%TF.GenerationSoftware,KiCad,Pcbnew,9.0.1*%
%TF.CreationDate,2025-05-21T17:24:49-04:00*%
%TF.ProjectId,control-module,636f6e74-726f-46c2-9d6d-6f64756c652e,rev?*%
%TF.SameCoordinates,Original*%
%TF.FileFunction,Legend,Bot*%
%TF.FilePolarity,Positive*%
%FSLAX46Y46*%
G04 Gerber Fmt 4.6, Leading zero omitted, Abs format (unit mm)*
G04 Created by KiCad (PCBNEW 9.0.1) date 2025-05-21 17:24:49*
%MOMM*%
%LPD*%
G01*
G04 APERTURE LIST*
%ADD10C,0.145143*%
%ADD11C,0.150000*%
%ADD12C,0.120000*%
%ADD13C,0.000000*%
G04 APERTURE END LIST*
D10*
X123106607Y-78100112D02*
X123106607Y-77084112D01*
X123106607Y-77084112D02*
X122719559Y-77084112D01*
X122719559Y-77084112D02*
X122622797Y-77132493D01*
X122622797Y-77132493D02*
X122574416Y-77180874D01*
X122574416Y-77180874D02*
X122526035Y-77277636D01*
X122526035Y-77277636D02*
X122526035Y-77422779D01*
X122526035Y-77422779D02*
X122574416Y-77519541D01*
X122574416Y-77519541D02*
X122622797Y-77567922D01*
X122622797Y-77567922D02*
X122719559Y-77616303D01*
X122719559Y-77616303D02*
X123106607Y-77616303D01*
X122138988Y-77180874D02*
X122090607Y-77132493D01*
X122090607Y-77132493D02*
X121993845Y-77084112D01*
X121993845Y-77084112D02*
X121751940Y-77084112D01*
X121751940Y-77084112D02*
X121655178Y-77132493D01*
X121655178Y-77132493D02*
X121606797Y-77180874D01*
X121606797Y-77180874D02*
X121558416Y-77277636D01*
X121558416Y-77277636D02*
X121558416Y-77374398D01*
X121558416Y-77374398D02*
X121606797Y-77519541D01*
X121606797Y-77519541D02*
X122187369Y-78100112D01*
X122187369Y-78100112D02*
X121558416Y-78100112D01*
X121122988Y-77713065D02*
X120348893Y-77713065D01*
X120735940Y-78100112D02*
X120735940Y-77326017D01*
X123106607Y-73020112D02*
X123106607Y-72004112D01*
X123106607Y-72004112D02*
X122719559Y-72004112D01*
X122719559Y-72004112D02*
X122622797Y-72052493D01*
X122622797Y-72052493D02*
X122574416Y-72100874D01*
X122574416Y-72100874D02*
X122526035Y-72197636D01*
X122526035Y-72197636D02*
X122526035Y-72342779D01*
X122526035Y-72342779D02*
X122574416Y-72439541D01*
X122574416Y-72439541D02*
X122622797Y-72487922D01*
X122622797Y-72487922D02*
X122719559Y-72536303D01*
X122719559Y-72536303D02*
X123106607Y-72536303D01*
X121558416Y-73020112D02*
X122138988Y-73020112D01*
X121848702Y-73020112D02*
X121848702Y-72004112D01*
X121848702Y-72004112D02*
X121945464Y-72149255D01*
X121945464Y-72149255D02*
X122042226Y-72246017D01*
X122042226Y-72246017D02*
X122138988Y-72294398D01*
X121122988Y-72633065D02*
X120348893Y-72633065D01*
X120735940Y-73020112D02*
X120735940Y-72246017D01*
X141140607Y-85333065D02*
X140366512Y-85333065D01*
X140753559Y-85720112D02*
X140753559Y-84946017D01*
X139979464Y-84704112D02*
X139350511Y-84704112D01*
X139350511Y-84704112D02*
X139689178Y-85091160D01*
X139689178Y-85091160D02*
X139544035Y-85091160D01*
X139544035Y-85091160D02*
X139447273Y-85139541D01*
X139447273Y-85139541D02*
X139398892Y-85187922D01*
X139398892Y-85187922D02*
X139350511Y-85284684D01*
X139350511Y-85284684D02*
X139350511Y-85526589D01*
X139350511Y-85526589D02*
X139398892Y-85623351D01*
X139398892Y-85623351D02*
X139447273Y-85671732D01*
X139447273Y-85671732D02*
X139544035Y-85720112D01*
X139544035Y-85720112D02*
X139834321Y-85720112D01*
X139834321Y-85720112D02*
X139931083Y-85671732D01*
X139931083Y-85671732D02*
X139979464Y-85623351D01*
X138915083Y-85623351D02*
X138866702Y-85671732D01*
X138866702Y-85671732D02*
X138915083Y-85720112D01*
X138915083Y-85720112D02*
X138963464Y-85671732D01*
X138963464Y-85671732D02*
X138915083Y-85623351D01*
X138915083Y-85623351D02*
X138915083Y-85720112D01*
X138528035Y-84704112D02*
X137899082Y-84704112D01*
X137899082Y-84704112D02*
X138237749Y-85091160D01*
X138237749Y-85091160D02*
X138092606Y-85091160D01*
X138092606Y-85091160D02*
X137995844Y-85139541D01*
X137995844Y-85139541D02*
X137947463Y-85187922D01*
X137947463Y-85187922D02*
X137899082Y-85284684D01*
X137899082Y-85284684D02*
X137899082Y-85526589D01*
X137899082Y-85526589D02*
X137947463Y-85623351D01*
X137947463Y-85623351D02*
X137995844Y-85671732D01*
X137995844Y-85671732D02*
X138092606Y-85720112D01*
X138092606Y-85720112D02*
X138382892Y-85720112D01*
X138382892Y-85720112D02*
X138479654Y-85671732D01*
X138479654Y-85671732D02*
X138528035Y-85623351D01*
X137608797Y-84704112D02*
X137270130Y-85720112D01*
X137270130Y-85720112D02*
X136931463Y-84704112D01*
X123106607Y-75560112D02*
X123106607Y-74544112D01*
X123106607Y-74544112D02*
X122719559Y-74544112D01*
X122719559Y-74544112D02*
X122622797Y-74592493D01*
X122622797Y-74592493D02*
X122574416Y-74640874D01*
X122574416Y-74640874D02*
X122526035Y-74737636D01*
X122526035Y-74737636D02*
X122526035Y-74882779D01*
X122526035Y-74882779D02*
X122574416Y-74979541D01*
X122574416Y-74979541D02*
X122622797Y-75027922D01*
X122622797Y-75027922D02*
X122719559Y-75076303D01*
X122719559Y-75076303D02*
X123106607Y-75076303D01*
X122138988Y-74640874D02*
X122090607Y-74592493D01*
X122090607Y-74592493D02*
X121993845Y-74544112D01*
X121993845Y-74544112D02*
X121751940Y-74544112D01*
X121751940Y-74544112D02*
X121655178Y-74592493D01*
X121655178Y-74592493D02*
X121606797Y-74640874D01*
X121606797Y-74640874D02*
X121558416Y-74737636D01*
X121558416Y-74737636D02*
X121558416Y-74834398D01*
X121558416Y-74834398D02*
X121606797Y-74979541D01*
X121606797Y-74979541D02*
X122187369Y-75560112D01*
X122187369Y-75560112D02*
X121558416Y-75560112D01*
X121122988Y-75173065D02*
X120348893Y-75173065D01*
X123106607Y-70480112D02*
X123106607Y-69464112D01*
X123106607Y-69464112D02*
X122719559Y-69464112D01*
X122719559Y-69464112D02*
X122622797Y-69512493D01*
X122622797Y-69512493D02*
X122574416Y-69560874D01*
X122574416Y-69560874D02*
X122526035Y-69657636D01*
X122526035Y-69657636D02*
X122526035Y-69802779D01*
X122526035Y-69802779D02*
X122574416Y-69899541D01*
X122574416Y-69899541D02*
X122622797Y-69947922D01*
X122622797Y-69947922D02*
X122719559Y-69996303D01*
X122719559Y-69996303D02*
X123106607Y-69996303D01*
X121558416Y-70480112D02*
X122138988Y-70480112D01*
X121848702Y-70480112D02*
X121848702Y-69464112D01*
X121848702Y-69464112D02*
X121945464Y-69609255D01*
X121945464Y-69609255D02*
X122042226Y-69706017D01*
X122042226Y-69706017D02*
X122138988Y-69754398D01*
X121122988Y-70093065D02*
X120348893Y-70093065D01*
X122235750Y-66924112D02*
X121897083Y-67940112D01*
X121897083Y-67940112D02*
X121558416Y-66924112D01*
X121219750Y-67553065D02*
X120445655Y-67553065D01*
X120832702Y-67940112D02*
X120832702Y-67166017D01*
X136060607Y-85333065D02*
X135286512Y-85333065D01*
X135673559Y-85720112D02*
X135673559Y-84946017D01*
X134270511Y-85720112D02*
X134851083Y-85720112D01*
X134560797Y-85720112D02*
X134560797Y-84704112D01*
X134560797Y-84704112D02*
X134657559Y-84849255D01*
X134657559Y-84849255D02*
X134754321Y-84946017D01*
X134754321Y-84946017D02*
X134851083Y-84994398D01*
X133883464Y-84800874D02*
X133835083Y-84752493D01*
X133835083Y-84752493D02*
X133738321Y-84704112D01*
X133738321Y-84704112D02*
X133496416Y-84704112D01*
X133496416Y-84704112D02*
X133399654Y-84752493D01*
X133399654Y-84752493D02*
X133351273Y-84800874D01*
X133351273Y-84800874D02*
X133302892Y-84897636D01*
X133302892Y-84897636D02*
X133302892Y-84994398D01*
X133302892Y-84994398D02*
X133351273Y-85139541D01*
X133351273Y-85139541D02*
X133931845Y-85720112D01*
X133931845Y-85720112D02*
X133302892Y-85720112D01*
X133012607Y-84704112D02*
X132673940Y-85720112D01*
X132673940Y-85720112D02*
X132335273Y-84704112D01*
X147974416Y-84752493D02*
X148071178Y-84704112D01*
X148071178Y-84704112D02*
X148216321Y-84704112D01*
X148216321Y-84704112D02*
X148361464Y-84752493D01*
X148361464Y-84752493D02*
X148458226Y-84849255D01*
X148458226Y-84849255D02*
X148506607Y-84946017D01*
X148506607Y-84946017D02*
X148554988Y-85139541D01*
X148554988Y-85139541D02*
X148554988Y-85284684D01*
X148554988Y-85284684D02*
X148506607Y-85478208D01*
X148506607Y-85478208D02*
X148458226Y-85574970D01*
X148458226Y-85574970D02*
X148361464Y-85671732D01*
X148361464Y-85671732D02*
X148216321Y-85720112D01*
X148216321Y-85720112D02*
X148119559Y-85720112D01*
X148119559Y-85720112D02*
X147974416Y-85671732D01*
X147974416Y-85671732D02*
X147926035Y-85623351D01*
X147926035Y-85623351D02*
X147926035Y-85284684D01*
X147926035Y-85284684D02*
X148119559Y-85284684D01*
X147490607Y-85720112D02*
X147490607Y-84704112D01*
X147490607Y-84704112D02*
X146910035Y-85720112D01*
X146910035Y-85720112D02*
X146910035Y-84704112D01*
X146426226Y-85720112D02*
X146426226Y-84704112D01*
X146426226Y-84704112D02*
X146184321Y-84704112D01*
X146184321Y-84704112D02*
X146039178Y-84752493D01*
X146039178Y-84752493D02*
X145942416Y-84849255D01*
X145942416Y-84849255D02*
X145894035Y-84946017D01*
X145894035Y-84946017D02*
X145845654Y-85139541D01*
X145845654Y-85139541D02*
X145845654Y-85284684D01*
X145845654Y-85284684D02*
X145894035Y-85478208D01*
X145894035Y-85478208D02*
X145942416Y-85574970D01*
X145942416Y-85574970D02*
X146039178Y-85671732D01*
X146039178Y-85671732D02*
X146184321Y-85720112D01*
X146184321Y-85720112D02*
X146426226Y-85720112D01*
X145458607Y-85429827D02*
X144974797Y-85429827D01*
X145555369Y-85720112D02*
X145216702Y-84704112D01*
X145216702Y-84704112D02*
X144878035Y-85720112D01*
X143158077Y-85429940D02*
X143109696Y-85284797D01*
X143109696Y-85284797D02*
X143061315Y-85236416D01*
X143061315Y-85236416D02*
X142964553Y-85188035D01*
X142964553Y-85188035D02*
X142819410Y-85188035D01*
X142819410Y-85188035D02*
X142722648Y-85236416D01*
X142722648Y-85236416D02*
X142674268Y-85284797D01*
X142674268Y-85284797D02*
X142625887Y-85381559D01*
X142625887Y-85381559D02*
X142625887Y-85768607D01*
X142625887Y-85768607D02*
X143641887Y-85768607D01*
X143641887Y-85768607D02*
X143641887Y-85429940D01*
X143641887Y-85429940D02*
X143593506Y-85333178D01*
X143593506Y-85333178D02*
X143545125Y-85284797D01*
X143545125Y-85284797D02*
X143448363Y-85236416D01*
X143448363Y-85236416D02*
X143351601Y-85236416D01*
X143351601Y-85236416D02*
X143254839Y-85284797D01*
X143254839Y-85284797D02*
X143206458Y-85333178D01*
X143206458Y-85333178D02*
X143158077Y-85429940D01*
X143158077Y-85429940D02*
X143158077Y-85768607D01*
X142916172Y-84800988D02*
X142916172Y-84317178D01*
X142625887Y-84897750D02*
X143641887Y-84559083D01*
X143641887Y-84559083D02*
X142625887Y-84220416D01*
X143641887Y-84026893D02*
X143641887Y-83446321D01*
X142625887Y-83736607D02*
X143641887Y-83736607D01*
X143012934Y-83107655D02*
X143012934Y-82333560D01*
X142625887Y-82720607D02*
X143399982Y-82720607D01*
X131234607Y-83409922D02*
X130895940Y-83409922D01*
X130750797Y-83942112D02*
X131234607Y-83942112D01*
X131234607Y-83942112D02*
X131234607Y-82926112D01*
X131234607Y-82926112D02*
X130750797Y-82926112D01*
X130315369Y-83264779D02*
X130315369Y-83942112D01*
X130315369Y-83361541D02*
X130266988Y-83313160D01*
X130266988Y-83313160D02*
X130170226Y-83264779D01*
X130170226Y-83264779D02*
X130025083Y-83264779D01*
X130025083Y-83264779D02*
X129928321Y-83313160D01*
X129928321Y-83313160D02*
X129879940Y-83409922D01*
X129879940Y-83409922D02*
X129879940Y-83942112D01*
X129009083Y-83893732D02*
X129105845Y-83942112D01*
X129105845Y-83942112D02*
X129299369Y-83942112D01*
X129299369Y-83942112D02*
X129396131Y-83893732D01*
X129396131Y-83893732D02*
X129444512Y-83796970D01*
X129444512Y-83796970D02*
X129444512Y-83409922D01*
X129444512Y-83409922D02*
X129396131Y-83313160D01*
X129396131Y-83313160D02*
X129299369Y-83264779D01*
X129299369Y-83264779D02*
X129105845Y-83264779D01*
X129105845Y-83264779D02*
X129009083Y-83313160D01*
X129009083Y-83313160D02*
X128960702Y-83409922D01*
X128960702Y-83409922D02*
X128960702Y-83506684D01*
X128960702Y-83506684D02*
X129444512Y-83603446D01*
X128525274Y-83942112D02*
X128525274Y-83264779D01*
X128525274Y-83458303D02*
X128476893Y-83361541D01*
X128476893Y-83361541D02*
X128428512Y-83313160D01*
X128428512Y-83313160D02*
X128331750Y-83264779D01*
X128331750Y-83264779D02*
X128234988Y-83264779D01*
X127460893Y-83264779D02*
X127460893Y-84087255D01*
X127460893Y-84087255D02*
X127509274Y-84184017D01*
X127509274Y-84184017D02*
X127557655Y-84232398D01*
X127557655Y-84232398D02*
X127654417Y-84280779D01*
X127654417Y-84280779D02*
X127799560Y-84280779D01*
X127799560Y-84280779D02*
X127896322Y-84232398D01*
X127460893Y-83893732D02*
X127557655Y-83942112D01*
X127557655Y-83942112D02*
X127751179Y-83942112D01*
X127751179Y-83942112D02*
X127847941Y-83893732D01*
X127847941Y-83893732D02*
X127896322Y-83845351D01*
X127896322Y-83845351D02*
X127944703Y-83748589D01*
X127944703Y-83748589D02*
X127944703Y-83458303D01*
X127944703Y-83458303D02*
X127896322Y-83361541D01*
X127896322Y-83361541D02*
X127847941Y-83313160D01*
X127847941Y-83313160D02*
X127751179Y-83264779D01*
X127751179Y-83264779D02*
X127557655Y-83264779D01*
X127557655Y-83264779D02*
X127460893Y-83313160D01*
X126977084Y-83942112D02*
X126977084Y-83264779D01*
X126977084Y-82926112D02*
X127025465Y-82974493D01*
X127025465Y-82974493D02*
X126977084Y-83022874D01*
X126977084Y-83022874D02*
X126928703Y-82974493D01*
X126928703Y-82974493D02*
X126977084Y-82926112D01*
X126977084Y-82926112D02*
X126977084Y-83022874D01*
X126590036Y-83264779D02*
X126057845Y-83264779D01*
X126057845Y-83264779D02*
X126590036Y-83942112D01*
X126590036Y-83942112D02*
X126057845Y-83942112D01*
X125283750Y-83893732D02*
X125380512Y-83942112D01*
X125380512Y-83942112D02*
X125574036Y-83942112D01*
X125574036Y-83942112D02*
X125670798Y-83893732D01*
X125670798Y-83893732D02*
X125719179Y-83796970D01*
X125719179Y-83796970D02*
X125719179Y-83409922D01*
X125719179Y-83409922D02*
X125670798Y-83313160D01*
X125670798Y-83313160D02*
X125574036Y-83264779D01*
X125574036Y-83264779D02*
X125380512Y-83264779D01*
X125380512Y-83264779D02*
X125283750Y-83313160D01*
X125283750Y-83313160D02*
X125235369Y-83409922D01*
X125235369Y-83409922D02*
X125235369Y-83506684D01*
X125235369Y-83506684D02*
X125719179Y-83603446D01*
X122235750Y-64384112D02*
X121897083Y-65400112D01*
X121897083Y-65400112D02*
X121558416Y-64384112D01*
X121219750Y-65013065D02*
X120445655Y-65013065D01*
X148800521Y-57683351D02*
X148848902Y-57731732D01*
X148848902Y-57731732D02*
X148994045Y-57780112D01*
X148994045Y-57780112D02*
X149090807Y-57780112D01*
X149090807Y-57780112D02*
X149235950Y-57731732D01*
X149235950Y-57731732D02*
X149332712Y-57634970D01*
X149332712Y-57634970D02*
X149381093Y-57538208D01*
X149381093Y-57538208D02*
X149429474Y-57344684D01*
X149429474Y-57344684D02*
X149429474Y-57199541D01*
X149429474Y-57199541D02*
X149381093Y-57006017D01*
X149381093Y-57006017D02*
X149332712Y-56909255D01*
X149332712Y-56909255D02*
X149235950Y-56812493D01*
X149235950Y-56812493D02*
X149090807Y-56764112D01*
X149090807Y-56764112D02*
X148994045Y-56764112D01*
X148994045Y-56764112D02*
X148848902Y-56812493D01*
X148848902Y-56812493D02*
X148800521Y-56860874D01*
X148219950Y-57780112D02*
X148316712Y-57731732D01*
X148316712Y-57731732D02*
X148365093Y-57683351D01*
X148365093Y-57683351D02*
X148413474Y-57586589D01*
X148413474Y-57586589D02*
X148413474Y-57296303D01*
X148413474Y-57296303D02*
X148365093Y-57199541D01*
X148365093Y-57199541D02*
X148316712Y-57151160D01*
X148316712Y-57151160D02*
X148219950Y-57102779D01*
X148219950Y-57102779D02*
X148074807Y-57102779D01*
X148074807Y-57102779D02*
X147978045Y-57151160D01*
X147978045Y-57151160D02*
X147929664Y-57199541D01*
X147929664Y-57199541D02*
X147881283Y-57296303D01*
X147881283Y-57296303D02*
X147881283Y-57586589D01*
X147881283Y-57586589D02*
X147929664Y-57683351D01*
X147929664Y-57683351D02*
X147978045Y-57731732D01*
X147978045Y-57731732D02*
X148074807Y-57780112D01*
X148074807Y-57780112D02*
X148219950Y-57780112D01*
X147445855Y-57102779D02*
X147445855Y-57780112D01*
X147445855Y-57199541D02*
X147397474Y-57151160D01*
X147397474Y-57151160D02*
X147300712Y-57102779D01*
X147300712Y-57102779D02*
X147155569Y-57102779D01*
X147155569Y-57102779D02*
X147058807Y-57151160D01*
X147058807Y-57151160D02*
X147010426Y-57247922D01*
X147010426Y-57247922D02*
X147010426Y-57780112D01*
X146671760Y-57102779D02*
X146284712Y-57102779D01*
X146526617Y-56764112D02*
X146526617Y-57634970D01*
X146526617Y-57634970D02*
X146478236Y-57731732D01*
X146478236Y-57731732D02*
X146381474Y-57780112D01*
X146381474Y-57780112D02*
X146284712Y-57780112D01*
X145946046Y-57780112D02*
X145946046Y-57102779D01*
X145946046Y-57296303D02*
X145897665Y-57199541D01*
X145897665Y-57199541D02*
X145849284Y-57151160D01*
X145849284Y-57151160D02*
X145752522Y-57102779D01*
X145752522Y-57102779D02*
X145655760Y-57102779D01*
X145171951Y-57780112D02*
X145268713Y-57731732D01*
X145268713Y-57731732D02*
X145317094Y-57683351D01*
X145317094Y-57683351D02*
X145365475Y-57586589D01*
X145365475Y-57586589D02*
X145365475Y-57296303D01*
X145365475Y-57296303D02*
X145317094Y-57199541D01*
X145317094Y-57199541D02*
X145268713Y-57151160D01*
X145268713Y-57151160D02*
X145171951Y-57102779D01*
X145171951Y-57102779D02*
X145026808Y-57102779D01*
X145026808Y-57102779D02*
X144930046Y-57151160D01*
X144930046Y-57151160D02*
X144881665Y-57199541D01*
X144881665Y-57199541D02*
X144833284Y-57296303D01*
X144833284Y-57296303D02*
X144833284Y-57586589D01*
X144833284Y-57586589D02*
X144881665Y-57683351D01*
X144881665Y-57683351D02*
X144930046Y-57731732D01*
X144930046Y-57731732D02*
X145026808Y-57780112D01*
X145026808Y-57780112D02*
X145171951Y-57780112D01*
X144252713Y-57780112D02*
X144349475Y-57731732D01*
X144349475Y-57731732D02*
X144397856Y-57634970D01*
X144397856Y-57634970D02*
X144397856Y-56764112D01*
X143091571Y-57780112D02*
X143091571Y-56764112D01*
X143091571Y-56764112D02*
X142752904Y-57489827D01*
X142752904Y-57489827D02*
X142414237Y-56764112D01*
X142414237Y-56764112D02*
X142414237Y-57780112D01*
X141785285Y-57780112D02*
X141882047Y-57731732D01*
X141882047Y-57731732D02*
X141930428Y-57683351D01*
X141930428Y-57683351D02*
X141978809Y-57586589D01*
X141978809Y-57586589D02*
X141978809Y-57296303D01*
X141978809Y-57296303D02*
X141930428Y-57199541D01*
X141930428Y-57199541D02*
X141882047Y-57151160D01*
X141882047Y-57151160D02*
X141785285Y-57102779D01*
X141785285Y-57102779D02*
X141640142Y-57102779D01*
X141640142Y-57102779D02*
X141543380Y-57151160D01*
X141543380Y-57151160D02*
X141494999Y-57199541D01*
X141494999Y-57199541D02*
X141446618Y-57296303D01*
X141446618Y-57296303D02*
X141446618Y-57586589D01*
X141446618Y-57586589D02*
X141494999Y-57683351D01*
X141494999Y-57683351D02*
X141543380Y-57731732D01*
X141543380Y-57731732D02*
X141640142Y-57780112D01*
X141640142Y-57780112D02*
X141785285Y-57780112D01*
X140575761Y-57780112D02*
X140575761Y-56764112D01*
X140575761Y-57731732D02*
X140672523Y-57780112D01*
X140672523Y-57780112D02*
X140866047Y-57780112D01*
X140866047Y-57780112D02*
X140962809Y-57731732D01*
X140962809Y-57731732D02*
X141011190Y-57683351D01*
X141011190Y-57683351D02*
X141059571Y-57586589D01*
X141059571Y-57586589D02*
X141059571Y-57296303D01*
X141059571Y-57296303D02*
X141011190Y-57199541D01*
X141011190Y-57199541D02*
X140962809Y-57151160D01*
X140962809Y-57151160D02*
X140866047Y-57102779D01*
X140866047Y-57102779D02*
X140672523Y-57102779D01*
X140672523Y-57102779D02*
X140575761Y-57151160D01*
X139656523Y-57102779D02*
X139656523Y-57780112D01*
X140091952Y-57102779D02*
X140091952Y-57634970D01*
X140091952Y-57634970D02*
X140043571Y-57731732D01*
X140043571Y-57731732D02*
X139946809Y-57780112D01*
X139946809Y-57780112D02*
X139801666Y-57780112D01*
X139801666Y-57780112D02*
X139704904Y-57731732D01*
X139704904Y-57731732D02*
X139656523Y-57683351D01*
X139027571Y-57780112D02*
X139124333Y-57731732D01*
X139124333Y-57731732D02*
X139172714Y-57634970D01*
X139172714Y-57634970D02*
X139172714Y-56764112D01*
X138253476Y-57731732D02*
X138350238Y-57780112D01*
X138350238Y-57780112D02*
X138543762Y-57780112D01*
X138543762Y-57780112D02*
X138640524Y-57731732D01*
X138640524Y-57731732D02*
X138688905Y-57634970D01*
X138688905Y-57634970D02*
X138688905Y-57247922D01*
X138688905Y-57247922D02*
X138640524Y-57151160D01*
X138640524Y-57151160D02*
X138543762Y-57102779D01*
X138543762Y-57102779D02*
X138350238Y-57102779D01*
X138350238Y-57102779D02*
X138253476Y-57151160D01*
X138253476Y-57151160D02*
X138205095Y-57247922D01*
X138205095Y-57247922D02*
X138205095Y-57344684D01*
X138205095Y-57344684D02*
X138688905Y-57441446D01*
X136415000Y-57780112D02*
X136753667Y-57296303D01*
X136995572Y-57780112D02*
X136995572Y-56764112D01*
X136995572Y-56764112D02*
X136608524Y-56764112D01*
X136608524Y-56764112D02*
X136511762Y-56812493D01*
X136511762Y-56812493D02*
X136463381Y-56860874D01*
X136463381Y-56860874D02*
X136415000Y-56957636D01*
X136415000Y-56957636D02*
X136415000Y-57102779D01*
X136415000Y-57102779D02*
X136463381Y-57199541D01*
X136463381Y-57199541D02*
X136511762Y-57247922D01*
X136511762Y-57247922D02*
X136608524Y-57296303D01*
X136608524Y-57296303D02*
X136995572Y-57296303D01*
X135592524Y-57731732D02*
X135689286Y-57780112D01*
X135689286Y-57780112D02*
X135882810Y-57780112D01*
X135882810Y-57780112D02*
X135979572Y-57731732D01*
X135979572Y-57731732D02*
X136027953Y-57634970D01*
X136027953Y-57634970D02*
X136027953Y-57247922D01*
X136027953Y-57247922D02*
X135979572Y-57151160D01*
X135979572Y-57151160D02*
X135882810Y-57102779D01*
X135882810Y-57102779D02*
X135689286Y-57102779D01*
X135689286Y-57102779D02*
X135592524Y-57151160D01*
X135592524Y-57151160D02*
X135544143Y-57247922D01*
X135544143Y-57247922D02*
X135544143Y-57344684D01*
X135544143Y-57344684D02*
X136027953Y-57441446D01*
X135205477Y-57102779D02*
X134963572Y-57780112D01*
X134963572Y-57780112D02*
X134721667Y-57102779D01*
X134334620Y-57683351D02*
X134286239Y-57731732D01*
X134286239Y-57731732D02*
X134334620Y-57780112D01*
X134334620Y-57780112D02*
X134383001Y-57731732D01*
X134383001Y-57731732D02*
X134334620Y-57683351D01*
X134334620Y-57683351D02*
X134334620Y-57780112D01*
X132544524Y-57780112D02*
X133125096Y-57780112D01*
X132834810Y-57780112D02*
X132834810Y-56764112D01*
X132834810Y-56764112D02*
X132931572Y-56909255D01*
X132931572Y-56909255D02*
X133028334Y-57006017D01*
X133028334Y-57006017D02*
X133125096Y-57054398D01*
D11*
X129916819Y-87296666D02*
X130631104Y-87296666D01*
X130631104Y-87296666D02*
X130773961Y-87249047D01*
X130773961Y-87249047D02*
X130869200Y-87153809D01*
X130869200Y-87153809D02*
X130916819Y-87010952D01*
X130916819Y-87010952D02*
X130916819Y-86915714D01*
X130012057Y-87725238D02*
X129964438Y-87772857D01*
X129964438Y-87772857D02*
X129916819Y-87868095D01*
X129916819Y-87868095D02*
X129916819Y-88106190D01*
X129916819Y-88106190D02*
X129964438Y-88201428D01*
X129964438Y-88201428D02*
X130012057Y-88249047D01*
X130012057Y-88249047D02*
X130107295Y-88296666D01*
X130107295Y-88296666D02*
X130202533Y-88296666D01*
X130202533Y-88296666D02*
X130345390Y-88249047D01*
X130345390Y-88249047D02*
X130916819Y-87677619D01*
X130916819Y-87677619D02*
X130916819Y-88296666D01*
D12*
%TO.C,J2*%
X131462000Y-86250000D02*
X131462000Y-87630000D01*
X132842000Y-86250000D02*
X131462000Y-86250000D01*
X134112000Y-86250000D02*
X134112000Y-89010000D01*
X134112000Y-86250000D02*
X149462000Y-86250000D01*
X134112000Y-89010000D02*
X149462000Y-89010000D01*
X149462000Y-86250000D02*
X149462000Y-89010000D01*
D13*
%TO.C,G\u002A\u002A\u002A*%
G36*
X136942265Y-78092533D02*
G01*
X136942265Y-79476992D01*
X136675950Y-79476992D01*
X136409635Y-79476992D01*
X136409635Y-79156194D01*
X136409635Y-78835396D01*
X136286264Y-78706326D01*
X136274033Y-78693537D01*
X136247181Y-78665529D01*
X136224899Y-78642431D01*
X136206751Y-78623825D01*
X136192299Y-78609292D01*
X136181108Y-78598413D01*
X136172741Y-78590772D01*
X136166760Y-78585950D01*
X136162730Y-78583527D01*
X136160214Y-78583087D01*
X136158775Y-78584211D01*
X136158217Y-78585187D01*
X136154377Y-78591995D01*
X136147158Y-78604838D01*
X136136778Y-78623326D01*
X136123454Y-78647072D01*
X136107406Y-78675685D01*
X136088852Y-78708776D01*
X136068008Y-78745957D01*
X136045094Y-78786839D01*
X136020328Y-78831032D01*
X135993927Y-78878147D01*
X135966111Y-78927795D01*
X135937096Y-78979587D01*
X135907102Y-79033134D01*
X135659546Y-79475103D01*
X135373526Y-79476071D01*
X135368386Y-79476089D01*
X135322865Y-79476209D01*
X135279668Y-79476269D01*
X135239376Y-79476272D01*
X135202571Y-79476220D01*
X135169834Y-79476115D01*
X135141746Y-79475959D01*
X135118887Y-79475756D01*
X135101840Y-79475507D01*
X135091186Y-79475215D01*
X135087506Y-79474883D01*
X135087675Y-79474540D01*
X135090618Y-79469278D01*
X135097049Y-79457972D01*
X135106749Y-79441008D01*
X135119494Y-79418769D01*
X135135063Y-79391640D01*
X135153236Y-79360005D01*
X135173789Y-79324250D01*
X135196503Y-79284757D01*
X135221155Y-79241913D01*
X135247523Y-79196100D01*
X135275387Y-79147704D01*
X135304524Y-79097108D01*
X135334713Y-79044698D01*
X135365733Y-78990858D01*
X135397362Y-78935972D01*
X135429379Y-78880424D01*
X135461561Y-78824599D01*
X135493688Y-78768882D01*
X135525537Y-78713656D01*
X135556888Y-78659306D01*
X135587519Y-78606218D01*
X135617208Y-78554774D01*
X135645734Y-78505359D01*
X135672875Y-78458358D01*
X135698409Y-78414156D01*
X135722116Y-78373136D01*
X135743773Y-78335683D01*
X135763160Y-78302182D01*
X135780053Y-78273017D01*
X135794233Y-78248572D01*
X135819880Y-78204401D01*
X135484857Y-77845956D01*
X135476135Y-77836625D01*
X135435115Y-77792731D01*
X135395513Y-77750348D01*
X135357640Y-77709808D01*
X135321808Y-77671447D01*
X135288330Y-77635597D01*
X135257517Y-77602593D01*
X135229680Y-77572770D01*
X135205132Y-77546461D01*
X135184185Y-77524000D01*
X135167150Y-77505722D01*
X135154340Y-77491960D01*
X135146065Y-77483049D01*
X135142638Y-77479322D01*
X135135442Y-77471133D01*
X135462142Y-77471133D01*
X135788841Y-77471133D01*
X136098294Y-77822925D01*
X136407746Y-78174716D01*
X136408700Y-77441396D01*
X136409654Y-76708075D01*
X136675959Y-76708075D01*
X136942265Y-76708075D01*
X136942265Y-78092533D01*
G37*
G36*
X132331810Y-76913370D02*
G01*
X132596235Y-77069010D01*
X132597213Y-77270071D01*
X132598190Y-77471133D01*
X132720927Y-77471133D01*
X132843663Y-77471133D01*
X132843663Y-77682673D01*
X132843663Y-77894214D01*
X132721116Y-77894214D01*
X132598569Y-77894214D01*
X132597037Y-78459897D01*
X132597011Y-78469154D01*
X132596749Y-78555632D01*
X132596461Y-78634747D01*
X132596144Y-78706675D01*
X132595798Y-78771589D01*
X132595419Y-78829664D01*
X132595008Y-78881075D01*
X132594561Y-78925996D01*
X132594077Y-78964603D01*
X132593555Y-78997069D01*
X132592992Y-79023569D01*
X132592387Y-79044278D01*
X132591739Y-79059370D01*
X132591045Y-79069021D01*
X132587391Y-79100927D01*
X132577988Y-79161232D01*
X132565827Y-79215092D01*
X132550687Y-79262984D01*
X132532343Y-79305383D01*
X132510573Y-79342768D01*
X132485154Y-79375615D01*
X132455863Y-79404401D01*
X132422477Y-79429603D01*
X132402200Y-79442168D01*
X132358180Y-79464751D01*
X132309590Y-79484393D01*
X132258216Y-79500492D01*
X132205846Y-79512450D01*
X132154266Y-79519665D01*
X132143221Y-79520423D01*
X132122338Y-79521179D01*
X132097097Y-79521565D01*
X132069370Y-79521596D01*
X132041030Y-79521283D01*
X132013949Y-79520639D01*
X131990001Y-79519677D01*
X131971057Y-79518410D01*
X131930706Y-79513986D01*
X131884707Y-79507268D01*
X131839860Y-79499098D01*
X131799361Y-79490006D01*
X131789260Y-79487376D01*
X131766558Y-79480968D01*
X131742783Y-79473711D01*
X131719610Y-79466160D01*
X131698715Y-79458870D01*
X131681774Y-79452397D01*
X131670462Y-79447295D01*
X131658846Y-79441106D01*
X131681235Y-79237120D01*
X131683613Y-79215522D01*
X131687746Y-79178301D01*
X131691626Y-79143768D01*
X131695172Y-79112610D01*
X131698305Y-79085519D01*
X131700944Y-79063181D01*
X131703010Y-79046287D01*
X131704422Y-79035526D01*
X131705100Y-79031587D01*
X131708966Y-79032062D01*
X131718563Y-79034529D01*
X131732427Y-79038591D01*
X131749101Y-79043841D01*
X131767101Y-79049565D01*
X131812304Y-79062643D01*
X131851932Y-79071928D01*
X131886658Y-79077474D01*
X131917153Y-79079334D01*
X131944087Y-79077563D01*
X131968132Y-79072216D01*
X131989959Y-79063347D01*
X131997509Y-79059283D01*
X132020972Y-79042374D01*
X132038574Y-79021541D01*
X132050852Y-78996008D01*
X132058348Y-78965000D01*
X132058704Y-78961700D01*
X132059378Y-78949529D01*
X132060018Y-78929829D01*
X132060625Y-78902616D01*
X132061199Y-78867906D01*
X132061738Y-78825717D01*
X132062244Y-78776066D01*
X132062715Y-78718969D01*
X132063152Y-78654442D01*
X132063554Y-78582503D01*
X132063921Y-78503169D01*
X132064254Y-78416455D01*
X132066074Y-77894214D01*
X131884464Y-77894214D01*
X131702854Y-77894214D01*
X131702854Y-77682673D01*
X131702854Y-77471133D01*
X131884155Y-77471133D01*
X132065457Y-77471133D01*
X132066420Y-77114431D01*
X132067384Y-76757730D01*
X132331810Y-76913370D01*
G37*
G36*
X132862257Y-73109848D02*
G01*
X132928273Y-73120149D01*
X132993215Y-73135795D01*
X133056497Y-73156898D01*
X133117532Y-73183566D01*
X133161764Y-73207321D01*
X133224075Y-73247480D01*
X133283805Y-73293961D01*
X133340109Y-73346089D01*
X133392140Y-73403187D01*
X133423511Y-73440719D01*
X133424500Y-73295188D01*
X133425488Y-73149657D01*
X133672871Y-73149657D01*
X133920254Y-73149657D01*
X133920254Y-74152587D01*
X133920254Y-75155517D01*
X133654206Y-75155517D01*
X133388158Y-75155517D01*
X133386486Y-74603055D01*
X133386221Y-74523575D01*
X133385891Y-74441995D01*
X133385523Y-74366974D01*
X133385116Y-74298611D01*
X133384673Y-74237007D01*
X133384194Y-74182261D01*
X133383681Y-74134472D01*
X133383134Y-74093740D01*
X133382553Y-74060165D01*
X133381942Y-74033846D01*
X133381299Y-74014883D01*
X133380626Y-74003375D01*
X133377245Y-73967771D01*
X133371439Y-73916983D01*
X133364974Y-73872608D01*
X133357713Y-73833955D01*
X133349521Y-73800330D01*
X133340259Y-73771040D01*
X133329793Y-73745394D01*
X133323280Y-73732049D01*
X133296507Y-73687976D01*
X133263634Y-73647491D01*
X133225375Y-73611211D01*
X133182444Y-73579756D01*
X133135556Y-73553743D01*
X133085423Y-73533791D01*
X133071799Y-73529581D01*
X133042975Y-73522343D01*
X133013937Y-73517674D01*
X132982294Y-73515247D01*
X132945655Y-73514737D01*
X132912440Y-73515799D01*
X132883381Y-73518763D01*
X132857309Y-73524081D01*
X132831977Y-73532217D01*
X132805138Y-73543632D01*
X132771845Y-73561859D01*
X132736302Y-73588940D01*
X132705917Y-73621537D01*
X132680694Y-73659642D01*
X132660637Y-73703250D01*
X132645752Y-73752353D01*
X132636041Y-73806945D01*
X132635843Y-73808544D01*
X132634255Y-73821678D01*
X132632808Y-73834505D01*
X132631494Y-73847417D01*
X132630305Y-73860808D01*
X132629233Y-73875070D01*
X132628271Y-73890597D01*
X132627411Y-73907782D01*
X132626647Y-73927018D01*
X132625970Y-73948699D01*
X132625372Y-73973216D01*
X132624847Y-74000965D01*
X132624386Y-74032337D01*
X132623983Y-74067725D01*
X132623629Y-74107524D01*
X132623317Y-74152125D01*
X132623039Y-74201923D01*
X132622788Y-74257310D01*
X132622557Y-74318680D01*
X132622337Y-74386425D01*
X132622121Y-74460939D01*
X132621903Y-74542615D01*
X132620301Y-75155517D01*
X132354231Y-75155517D01*
X132088160Y-75155517D01*
X132088224Y-74518061D01*
X132088247Y-74433089D01*
X132088304Y-74348317D01*
X132088402Y-74270423D01*
X132088545Y-74199057D01*
X132088739Y-74133866D01*
X132088989Y-74074501D01*
X132089300Y-74020609D01*
X132089679Y-73971839D01*
X132090130Y-73927842D01*
X132090658Y-73888264D01*
X132091270Y-73852755D01*
X132091970Y-73820964D01*
X132092764Y-73792540D01*
X132093657Y-73767131D01*
X132094655Y-73744387D01*
X132095763Y-73723956D01*
X132096986Y-73705486D01*
X132098330Y-73688627D01*
X132099801Y-73673028D01*
X132101402Y-73658337D01*
X132108754Y-73605744D01*
X132120271Y-73548518D01*
X132135169Y-73496127D01*
X132153865Y-73447348D01*
X132176777Y-73400954D01*
X132204320Y-73355722D01*
X132232802Y-73317732D01*
X132271952Y-73276527D01*
X132316475Y-73239451D01*
X132365784Y-73206615D01*
X132419295Y-73178131D01*
X132476420Y-73154108D01*
X132536574Y-73134657D01*
X132599170Y-73119888D01*
X132663623Y-73109912D01*
X132729345Y-73104840D01*
X132795752Y-73104782D01*
X132862257Y-73109848D01*
G37*
G36*
X141554005Y-74174389D02*
G01*
X141549229Y-74261022D01*
X141539151Y-74349018D01*
X141539032Y-74349840D01*
X141522882Y-74439078D01*
X141500934Y-74523982D01*
X141473270Y-74604401D01*
X141439974Y-74680185D01*
X141401126Y-74751184D01*
X141356809Y-74817248D01*
X141307105Y-74878225D01*
X141252097Y-74933967D01*
X141191867Y-74984322D01*
X141178032Y-74994593D01*
X141111353Y-75038758D01*
X141039372Y-75078316D01*
X140962860Y-75112977D01*
X140882588Y-75142449D01*
X140799329Y-75166442D01*
X140713853Y-75184667D01*
X140626934Y-75196833D01*
X140604586Y-75198459D01*
X140575652Y-75199432D01*
X140542477Y-75199726D01*
X140506728Y-75199382D01*
X140470071Y-75198445D01*
X140434172Y-75196956D01*
X140400699Y-75194960D01*
X140371317Y-75192500D01*
X140347693Y-75189617D01*
X140300981Y-75181561D01*
X140215942Y-75161678D01*
X140135126Y-75135623D01*
X140058262Y-75103261D01*
X139985078Y-75064454D01*
X139915306Y-75019069D01*
X139848673Y-74966970D01*
X139784911Y-74908022D01*
X139734241Y-74853651D01*
X139679973Y-74785466D01*
X139632120Y-74713453D01*
X139590828Y-74637854D01*
X139556241Y-74558915D01*
X139528505Y-74476879D01*
X139518187Y-74438871D01*
X139505089Y-74379437D01*
X139495494Y-74318497D01*
X139489130Y-74254201D01*
X139485727Y-74184696D01*
X139485178Y-74152148D01*
X139485271Y-74148809D01*
X140034182Y-74148809D01*
X140034339Y-74182877D01*
X140034922Y-74217853D01*
X140035913Y-74247251D01*
X140037289Y-74270415D01*
X140039028Y-74286689D01*
X140039983Y-74292892D01*
X140051690Y-74355914D01*
X140066250Y-74412667D01*
X140084026Y-74463953D01*
X140105380Y-74510572D01*
X140130675Y-74553326D01*
X140160273Y-74593016D01*
X140194536Y-74630442D01*
X140229666Y-74662624D01*
X140275209Y-74696448D01*
X140322897Y-74723294D01*
X140373205Y-74743418D01*
X140426605Y-74757079D01*
X140427465Y-74757240D01*
X140443619Y-74759586D01*
X140464139Y-74761658D01*
X140487048Y-74763351D01*
X140510368Y-74764562D01*
X140532120Y-74765186D01*
X140550327Y-74765119D01*
X140563011Y-74764257D01*
X140593148Y-74759747D01*
X140624123Y-74754124D01*
X140650694Y-74747875D01*
X140674584Y-74740523D01*
X140697516Y-74731594D01*
X140721212Y-74720612D01*
X140731862Y-74715226D01*
X140762296Y-74697976D01*
X140790136Y-74678851D01*
X140817504Y-74656296D01*
X140846525Y-74628754D01*
X140866618Y-74607726D01*
X140900139Y-74566935D01*
X140927995Y-74524066D01*
X140951206Y-74477447D01*
X140970794Y-74425408D01*
X140971740Y-74422503D01*
X140983848Y-74381522D01*
X140993267Y-74341042D01*
X141000214Y-74299485D01*
X141004908Y-74255274D01*
X141007564Y-74206834D01*
X141008402Y-74152587D01*
X141008398Y-74148599D01*
X141007441Y-74094807D01*
X141004650Y-74046711D01*
X140999807Y-74002736D01*
X140992695Y-73961304D01*
X140983096Y-73920840D01*
X140970794Y-73879766D01*
X140960957Y-73851820D01*
X140939605Y-73802819D01*
X140914097Y-73758367D01*
X140883411Y-73716791D01*
X140846525Y-73676420D01*
X140839304Y-73669306D01*
X140798276Y-73633081D01*
X140756356Y-73603536D01*
X140712233Y-73579948D01*
X140664592Y-73561597D01*
X140612119Y-73547761D01*
X140592639Y-73544680D01*
X140566163Y-73542390D01*
X140536356Y-73541221D01*
X140505378Y-73541174D01*
X140475388Y-73542248D01*
X140448549Y-73544444D01*
X140427021Y-73547761D01*
X140408378Y-73552117D01*
X140351872Y-73570209D01*
X140299126Y-73594691D01*
X140250401Y-73625297D01*
X140205960Y-73661762D01*
X140166064Y-73703820D01*
X140130975Y-73751205D01*
X140100956Y-73803653D01*
X140076268Y-73860896D01*
X140057173Y-73922671D01*
X140051174Y-73947270D01*
X140045790Y-73972270D01*
X140041636Y-73996118D01*
X140038567Y-74020262D01*
X140036435Y-74046153D01*
X140035091Y-74075242D01*
X140034389Y-74108977D01*
X140034182Y-74148809D01*
X139485271Y-74148809D01*
X139487777Y-74058611D01*
X139496738Y-73968986D01*
X139512127Y-73883050D01*
X139534008Y-73800583D01*
X139562448Y-73721363D01*
X139597512Y-73645168D01*
X139639266Y-73571776D01*
X139687774Y-73500966D01*
X139690326Y-73497587D01*
X139708492Y-73475191D01*
X139730868Y-73449753D01*
X139756182Y-73422554D01*
X139783165Y-73394875D01*
X139810543Y-73367997D01*
X139837046Y-73343199D01*
X139861403Y-73321764D01*
X139882342Y-73304971D01*
X139915822Y-73280918D01*
X139982630Y-73238532D01*
X140051458Y-73202345D01*
X140123097Y-73172040D01*
X140198340Y-73147301D01*
X140277978Y-73127813D01*
X140362803Y-73113258D01*
X140371996Y-73112108D01*
X140399948Y-73109631D01*
X140433143Y-73107805D01*
X140469984Y-73106630D01*
X140508876Y-73106105D01*
X140548223Y-73106232D01*
X140586427Y-73107009D01*
X140621893Y-73108438D01*
X140653024Y-73110517D01*
X140678225Y-73113248D01*
X140739102Y-73123306D01*
X140827136Y-73143500D01*
X140910930Y-73169748D01*
X140990369Y-73201996D01*
X141065340Y-73240189D01*
X141135728Y-73284275D01*
X141201420Y-73334197D01*
X141262301Y-73389904D01*
X141297944Y-73427986D01*
X141347158Y-73489228D01*
X141392127Y-73556015D01*
X141432506Y-73627717D01*
X141467948Y-73703701D01*
X141498108Y-73783336D01*
X141522642Y-73865991D01*
X141536812Y-73931162D01*
X141547768Y-74008610D01*
X141553509Y-74089969D01*
X141553877Y-74152587D01*
X141554005Y-74174389D01*
G37*
G36*
X138262113Y-77426973D02*
G01*
X138331672Y-77431048D01*
X138397865Y-77438327D01*
X138458936Y-77448773D01*
X138504768Y-77459316D01*
X138583501Y-77482762D01*
X138657618Y-77512071D01*
X138727378Y-77547380D01*
X138793038Y-77588826D01*
X138854855Y-77636547D01*
X138913088Y-77690680D01*
X138955762Y-77736763D01*
X138996157Y-77787314D01*
X139032052Y-77840640D01*
X139064979Y-77898841D01*
X139080241Y-77929477D01*
X139108940Y-77996282D01*
X139133041Y-78066584D01*
X139152690Y-78140982D01*
X139168034Y-78220073D01*
X139179218Y-78304458D01*
X139186391Y-78394735D01*
X139188682Y-78462046D01*
X139187012Y-78555170D01*
X139179784Y-78646629D01*
X139167121Y-78735614D01*
X139149145Y-78821316D01*
X139125978Y-78902924D01*
X139097744Y-78979630D01*
X139066708Y-79046506D01*
X139026816Y-79115983D01*
X138981285Y-79180749D01*
X138930421Y-79240578D01*
X138874531Y-79295247D01*
X138813919Y-79344530D01*
X138748894Y-79388202D01*
X138679761Y-79426040D01*
X138606826Y-79457819D01*
X138530396Y-79483313D01*
X138450777Y-79502299D01*
X138368276Y-79514552D01*
X138358711Y-79515562D01*
X138341416Y-79517412D01*
X138326800Y-79519005D01*
X138317280Y-79520079D01*
X138317255Y-79520082D01*
X138309989Y-79520445D01*
X138296311Y-79520679D01*
X138277356Y-79520782D01*
X138254259Y-79520753D01*
X138228154Y-79520588D01*
X138200177Y-79520286D01*
X138159978Y-79519450D01*
X138107262Y-79517114D01*
X138059315Y-79513257D01*
X138014544Y-79507667D01*
X137971357Y-79500133D01*
X137928161Y-79490445D01*
X137883365Y-79478393D01*
X137852203Y-79468805D01*
X137778866Y-79441067D01*
X137710243Y-79407426D01*
X137646338Y-79367888D01*
X137587155Y-79322456D01*
X137532698Y-79271134D01*
X137482969Y-79213926D01*
X137437973Y-79150836D01*
X137397713Y-79081868D01*
X137362193Y-79007026D01*
X137331417Y-78926315D01*
X137305388Y-78839738D01*
X137294211Y-78797443D01*
X137313724Y-78793562D01*
X137315407Y-78793232D01*
X137326785Y-78791109D01*
X137344014Y-78787999D01*
X137366356Y-78784029D01*
X137393071Y-78779326D01*
X137423422Y-78774017D01*
X137456670Y-78768229D01*
X137492076Y-78762088D01*
X137528902Y-78755723D01*
X137566409Y-78749259D01*
X137603858Y-78742824D01*
X137640512Y-78736544D01*
X137675632Y-78730547D01*
X137708478Y-78724960D01*
X137738313Y-78719909D01*
X137764398Y-78715521D01*
X137785995Y-78711924D01*
X137802364Y-78709244D01*
X137812768Y-78707609D01*
X137816468Y-78707144D01*
X137816788Y-78708156D01*
X137818615Y-78715070D01*
X137821736Y-78727394D01*
X137825822Y-78743820D01*
X137830543Y-78763042D01*
X137831522Y-78767011D01*
X137848514Y-78825818D01*
X137868626Y-78877953D01*
X137892046Y-78923695D01*
X137918961Y-78963322D01*
X137949559Y-78997111D01*
X137984025Y-79025342D01*
X138022549Y-79048292D01*
X138038177Y-79055608D01*
X138084140Y-79071858D01*
X138133311Y-79082329D01*
X138184474Y-79087023D01*
X138236412Y-79085939D01*
X138287909Y-79079079D01*
X138337748Y-79066444D01*
X138384714Y-79048034D01*
X138390305Y-79045344D01*
X138436624Y-79018685D01*
X138477954Y-78986526D01*
X138514350Y-78948794D01*
X138545869Y-78905412D01*
X138572565Y-78856306D01*
X138594495Y-78801400D01*
X138611713Y-78740619D01*
X138616959Y-78716289D01*
X138626027Y-78663093D01*
X138633116Y-78605182D01*
X138638102Y-78544306D01*
X138640857Y-78482214D01*
X138641254Y-78420656D01*
X138639167Y-78361382D01*
X138633639Y-78293259D01*
X138624889Y-78228673D01*
X138612927Y-78170258D01*
X138597586Y-78117599D01*
X138578699Y-78070282D01*
X138556101Y-78027892D01*
X138529625Y-77990016D01*
X138499104Y-77956238D01*
X138464372Y-77926146D01*
X138453875Y-77918407D01*
X138411766Y-77892989D01*
X138365185Y-77872737D01*
X138315184Y-77857915D01*
X138262815Y-77848785D01*
X138209131Y-77845613D01*
X138155182Y-77848661D01*
X138122741Y-77853544D01*
X138072176Y-77866297D01*
X138026535Y-77884772D01*
X137985798Y-77908986D01*
X137949945Y-77938958D01*
X137918956Y-77974707D01*
X137892808Y-78016250D01*
X137871483Y-78063607D01*
X137854958Y-78116796D01*
X137851628Y-78129808D01*
X137847915Y-78143752D01*
X137845147Y-78153490D01*
X137843755Y-78157457D01*
X137841906Y-78157297D01*
X137833341Y-78155997D01*
X137818354Y-78153522D01*
X137797545Y-78149978D01*
X137771515Y-78145469D01*
X137740864Y-78140101D01*
X137706195Y-78133977D01*
X137668106Y-78127204D01*
X137627199Y-78119885D01*
X137584075Y-78112126D01*
X137557251Y-78107279D01*
X137507902Y-78098303D01*
X137465408Y-78090484D01*
X137429372Y-78083741D01*
X137399398Y-78077994D01*
X137375088Y-78073164D01*
X137356045Y-78069171D01*
X137341873Y-78065936D01*
X137332175Y-78063378D01*
X137326554Y-78061417D01*
X137324612Y-78059974D01*
X137324584Y-78059759D01*
X137325552Y-78053696D01*
X137328591Y-78042219D01*
X137333255Y-78026889D01*
X137339098Y-78009269D01*
X137341117Y-78003453D01*
X137372348Y-77923251D01*
X137407802Y-77849298D01*
X137447555Y-77781530D01*
X137491682Y-77719884D01*
X137540260Y-77664294D01*
X137593365Y-77614697D01*
X137651072Y-77571028D01*
X137713458Y-77533222D01*
X137780597Y-77501216D01*
X137852567Y-77474944D01*
X137929443Y-77454343D01*
X138011301Y-77439348D01*
X138050774Y-77434340D01*
X138119909Y-77428582D01*
X138190940Y-77426139D01*
X138262113Y-77426973D01*
G37*
G36*
X141554005Y-78495865D02*
G01*
X141549229Y-78582497D01*
X141539151Y-78670493D01*
X141539032Y-78671315D01*
X141522882Y-78760553D01*
X141500934Y-78845457D01*
X141473270Y-78925876D01*
X141439974Y-79001661D01*
X141401126Y-79072660D01*
X141356809Y-79138723D01*
X141307105Y-79199701D01*
X141252097Y-79255442D01*
X141191867Y-79305797D01*
X141178032Y-79316068D01*
X141111353Y-79360234D01*
X141039372Y-79399792D01*
X140962860Y-79434452D01*
X140882588Y-79463924D01*
X140799329Y-79487918D01*
X140713853Y-79506143D01*
X140626934Y-79518309D01*
X140604586Y-79519934D01*
X140575652Y-79520908D01*
X140542477Y-79521201D01*
X140506728Y-79520857D01*
X140470071Y-79519920D01*
X140434172Y-79518432D01*
X140400699Y-79516436D01*
X140371317Y-79513975D01*
X140347693Y-79511093D01*
X140300981Y-79503036D01*
X140215942Y-79483154D01*
X140135126Y-79457099D01*
X140058262Y-79424736D01*
X139985078Y-79385930D01*
X139915306Y-79340545D01*
X139848673Y-79288446D01*
X139784911Y-79229498D01*
X139734241Y-79175126D01*
X139679973Y-79106942D01*
X139632120Y-79034928D01*
X139590828Y-78959330D01*
X139556241Y-78880390D01*
X139528505Y-78798354D01*
X139518187Y-78760346D01*
X139505089Y-78700912D01*
X139495494Y-78639973D01*
X139489130Y-78575676D01*
X139485727Y-78506171D01*
X139485178Y-78473624D01*
X139485271Y-78470285D01*
X140034182Y-78470285D01*
X140034339Y-78504353D01*
X140034922Y-78539328D01*
X140035913Y-78568726D01*
X140037289Y-78591890D01*
X140039028Y-78608164D01*
X140039983Y-78614368D01*
X140051690Y-78677389D01*
X140066250Y-78734143D01*
X140084026Y-78785428D01*
X140105380Y-78832048D01*
X140130675Y-78874801D01*
X140160273Y-78914491D01*
X140194536Y-78951918D01*
X140229666Y-78984100D01*
X140275209Y-79017924D01*
X140322897Y-79044769D01*
X140373205Y-79064893D01*
X140426605Y-79078554D01*
X140427465Y-79078715D01*
X140443619Y-79081061D01*
X140464139Y-79083133D01*
X140487048Y-79084826D01*
X140510368Y-79086037D01*
X140532120Y-79086661D01*
X140550327Y-79086594D01*
X140563011Y-79085732D01*
X140593148Y-79081222D01*
X140624123Y-79075600D01*
X140650694Y-79069350D01*
X140674584Y-79061999D01*
X140697516Y-79053069D01*
X140721212Y-79042087D01*
X140731862Y-79036701D01*
X140762296Y-79019451D01*
X140790136Y-79000327D01*
X140817504Y-78977772D01*
X140846525Y-78950230D01*
X140866618Y-78929201D01*
X140900139Y-78888410D01*
X140927995Y-78845541D01*
X140951206Y-78798923D01*
X140970794Y-78746883D01*
X140971740Y-78743978D01*
X140983848Y-78702998D01*
X140993267Y-78662517D01*
X141000214Y-78620960D01*
X141004908Y-78576750D01*
X141007564Y-78528309D01*
X141008402Y-78474062D01*
X141008380Y-78465610D01*
X141008040Y-78437966D01*
X141007336Y-78410991D01*
X141006334Y-78386406D01*
X141005100Y-78365933D01*
X141003701Y-78351293D01*
X140994076Y-78291809D01*
X140979010Y-78228448D01*
X140959516Y-78170303D01*
X140935376Y-78116741D01*
X140906374Y-78067130D01*
X140895362Y-78052103D01*
X140878508Y-78032100D01*
X140858521Y-78010474D01*
X140836932Y-77988760D01*
X140815273Y-77968493D01*
X140795077Y-77951206D01*
X140777875Y-77938435D01*
X140756041Y-77924692D01*
X140712048Y-77901199D01*
X140667948Y-77883713D01*
X140622197Y-77871782D01*
X140573252Y-77864956D01*
X140519570Y-77862781D01*
X140496056Y-77863089D01*
X140454728Y-77865633D01*
X140417616Y-77871118D01*
X140382741Y-77879989D01*
X140348126Y-77892693D01*
X140311795Y-77909676D01*
X140303595Y-77913951D01*
X140253296Y-77944997D01*
X140207720Y-77981824D01*
X140167053Y-78024188D01*
X140131479Y-78071846D01*
X140101184Y-78124554D01*
X140076354Y-78182068D01*
X140057173Y-78244146D01*
X140051174Y-78268745D01*
X140045790Y-78293746D01*
X140041636Y-78317593D01*
X140038567Y-78341737D01*
X140036435Y-78367629D01*
X140035091Y-78396717D01*
X140034389Y-78430452D01*
X140034182Y-78470285D01*
X139485271Y-78470285D01*
X139487777Y-78380086D01*
X139496738Y-78290461D01*
X139512127Y-78204526D01*
X139534008Y-78122059D01*
X139562448Y-78042839D01*
X139597512Y-77966643D01*
X139639266Y-77893252D01*
X139687774Y-77822441D01*
X139690326Y-77819063D01*
X139708492Y-77796667D01*
X139730868Y-77771229D01*
X139756182Y-77744030D01*
X139783165Y-77716351D01*
X139810543Y-77689472D01*
X139837046Y-77664675D01*
X139861403Y-77643239D01*
X139882342Y-77626446D01*
X139915822Y-77602393D01*
X139982630Y-77560007D01*
X140051458Y-77523820D01*
X140123097Y-77493515D01*
X140198340Y-77468776D01*
X140277978Y-77449288D01*
X140362803Y-77434734D01*
X140371996Y-77433583D01*
X140399948Y-77431107D01*
X140433143Y-77429280D01*
X140469984Y-77428105D01*
X140508876Y-77427581D01*
X140548223Y-77427707D01*
X140586427Y-77428485D01*
X140621893Y-77429913D01*
X140653024Y-77431993D01*
X140678225Y-77434723D01*
X140739102Y-77444781D01*
X140827136Y-77464975D01*
X140910930Y-77491224D01*
X140990369Y-77523471D01*
X141065340Y-77561665D01*
X141135728Y-77605750D01*
X141201420Y-77655673D01*
X141262301Y-77711379D01*
X141297944Y-77749462D01*
X141347158Y-77810703D01*
X141392127Y-77877490D01*
X141432506Y-77949192D01*
X141467948Y-78025176D01*
X141498108Y-78104812D01*
X141522642Y-78187466D01*
X141536812Y-78252637D01*
X141547768Y-78330086D01*
X141553509Y-78411444D01*
X141553877Y-78474062D01*
X141554005Y-78495865D01*
G37*
G36*
X139328784Y-73158130D02*
G01*
X139328645Y-73158642D01*
X139326726Y-73164954D01*
X139322646Y-73178091D01*
X139316496Y-73197757D01*
X139308369Y-73223661D01*
X139298359Y-73255508D01*
X139286557Y-73293006D01*
X139273057Y-73335860D01*
X139257950Y-73383777D01*
X139241330Y-73436465D01*
X139223289Y-73493628D01*
X139203920Y-73554974D01*
X139183315Y-73620210D01*
X139161567Y-73689042D01*
X139138769Y-73761176D01*
X139115012Y-73836319D01*
X139090391Y-73914178D01*
X139064997Y-73994458D01*
X139038923Y-74076868D01*
X139012261Y-74161112D01*
X138697497Y-75155568D01*
X138438858Y-75154598D01*
X138180219Y-75153628D01*
X138011721Y-74514284D01*
X138005049Y-74488974D01*
X137987356Y-74421910D01*
X137970203Y-74356976D01*
X137953690Y-74294543D01*
X137937916Y-74234979D01*
X137922978Y-74178655D01*
X137908975Y-74125941D01*
X137896006Y-74077206D01*
X137884169Y-74032819D01*
X137873563Y-73993151D01*
X137864286Y-73958572D01*
X137856438Y-73929450D01*
X137850116Y-73906156D01*
X137845419Y-73889060D01*
X137842446Y-73878532D01*
X137841295Y-73874940D01*
X137841172Y-73875254D01*
X137839530Y-73880892D01*
X137836088Y-73893243D01*
X137830969Y-73911858D01*
X137824293Y-73936286D01*
X137816182Y-73966077D01*
X137806756Y-74000780D01*
X137796138Y-74039944D01*
X137784448Y-74083120D01*
X137771808Y-74129856D01*
X137758339Y-74179702D01*
X137744163Y-74232207D01*
X137729400Y-74286922D01*
X137714172Y-74343394D01*
X137698601Y-74401175D01*
X137682807Y-74459814D01*
X137666912Y-74518859D01*
X137651037Y-74577861D01*
X137635303Y-74636368D01*
X137619832Y-74693931D01*
X137604745Y-74750099D01*
X137590164Y-74804421D01*
X137576209Y-74856447D01*
X137563002Y-74905726D01*
X137550664Y-74951808D01*
X137539316Y-74994243D01*
X137529080Y-75032579D01*
X137520078Y-75066366D01*
X137512429Y-75095154D01*
X137506256Y-75118492D01*
X137501680Y-75135930D01*
X137498822Y-75147017D01*
X137496678Y-75155517D01*
X137240911Y-75155517D01*
X136985144Y-75155517D01*
X136664713Y-74157309D01*
X136655287Y-74127947D01*
X136628419Y-74044252D01*
X136602178Y-73962515D01*
X136576658Y-73883026D01*
X136551952Y-73806077D01*
X136528152Y-73731959D01*
X136505354Y-73660961D01*
X136483650Y-73593376D01*
X136463133Y-73529494D01*
X136443898Y-73469605D01*
X136426037Y-73414002D01*
X136409643Y-73362974D01*
X136394812Y-73316812D01*
X136381635Y-73275808D01*
X136370206Y-73240252D01*
X136360619Y-73210436D01*
X136352967Y-73186649D01*
X136347344Y-73169184D01*
X136343842Y-73158330D01*
X136342557Y-73154379D01*
X136342536Y-73154299D01*
X136343815Y-73153361D01*
X136348260Y-73152550D01*
X136356310Y-73151858D01*
X136368404Y-73151277D01*
X136384980Y-73150800D01*
X136406477Y-73150418D01*
X136433335Y-73150123D01*
X136465992Y-73149907D01*
X136504887Y-73149763D01*
X136550459Y-73149682D01*
X136603148Y-73149657D01*
X136865464Y-73149657D01*
X137055909Y-73802934D01*
X137067892Y-73844018D01*
X137087482Y-73911084D01*
X137106459Y-73975936D01*
X137124716Y-74038212D01*
X137142147Y-74097552D01*
X137158644Y-74153598D01*
X137174102Y-74205988D01*
X137188414Y-74254362D01*
X137201472Y-74298362D01*
X137213170Y-74337626D01*
X137223401Y-74371795D01*
X137232059Y-74400509D01*
X137239037Y-74423407D01*
X137244228Y-74440130D01*
X137247525Y-74450318D01*
X137248822Y-74453611D01*
X137249173Y-74452529D01*
X137251202Y-74445116D01*
X137254915Y-74431061D01*
X137260197Y-74410816D01*
X137266935Y-74384830D01*
X137275012Y-74353552D01*
X137284315Y-74317433D01*
X137294728Y-74276922D01*
X137306138Y-74232469D01*
X137318429Y-74184523D01*
X137331487Y-74133534D01*
X137345197Y-74079952D01*
X137359444Y-74024227D01*
X137374114Y-73966808D01*
X137389092Y-73908145D01*
X137404264Y-73848687D01*
X137419514Y-73788885D01*
X137434728Y-73729188D01*
X137449792Y-73670046D01*
X137464591Y-73611909D01*
X137479009Y-73555226D01*
X137492934Y-73500446D01*
X137506249Y-73448020D01*
X137518840Y-73398398D01*
X137530592Y-73352029D01*
X137541391Y-73309362D01*
X137551123Y-73270848D01*
X137559672Y-73236936D01*
X137566923Y-73208076D01*
X137572763Y-73184717D01*
X137577076Y-73167310D01*
X137579748Y-73156303D01*
X137580664Y-73152148D01*
X137581964Y-73151897D01*
X137589819Y-73151511D01*
X137604253Y-73151176D01*
X137624655Y-73150896D01*
X137650412Y-73150675D01*
X137680910Y-73150515D01*
X137715538Y-73150422D01*
X137753683Y-73150398D01*
X137794732Y-73150448D01*
X137838072Y-73150575D01*
X138095480Y-73151546D01*
X138264742Y-73795612D01*
X138271913Y-73822899D01*
X138289655Y-73890403D01*
X138306865Y-73955878D01*
X138323445Y-74018945D01*
X138339295Y-74079230D01*
X138354316Y-74136353D01*
X138368409Y-74189939D01*
X138381474Y-74239611D01*
X138393413Y-74284991D01*
X138404127Y-74325702D01*
X138413515Y-74361369D01*
X138421480Y-74391613D01*
X138427921Y-74416058D01*
X138432740Y-74434327D01*
X138435838Y-74446042D01*
X138437115Y-74450828D01*
X138437592Y-74451320D01*
X138438740Y-74449908D01*
X138440559Y-74445922D01*
X138443130Y-74439086D01*
X138446536Y-74429124D01*
X138450858Y-74415760D01*
X138456178Y-74398718D01*
X138462577Y-74377721D01*
X138470138Y-74352494D01*
X138478941Y-74322759D01*
X138489069Y-74288241D01*
X138500602Y-74248664D01*
X138513624Y-74203751D01*
X138528215Y-74153227D01*
X138544457Y-74096814D01*
X138562432Y-74034238D01*
X138582222Y-73965221D01*
X138603908Y-73889488D01*
X138627571Y-73806762D01*
X138814916Y-73151546D01*
X139072730Y-73150575D01*
X139330544Y-73149604D01*
X139328784Y-73158130D01*
G37*
G36*
X134923321Y-78384093D02*
G01*
X134926101Y-78485395D01*
X134926002Y-78506275D01*
X134922696Y-78599528D01*
X134914606Y-78687520D01*
X134901606Y-78770834D01*
X134883565Y-78850057D01*
X134860357Y-78925772D01*
X134831853Y-78998565D01*
X134797923Y-79069021D01*
X134785613Y-79091604D01*
X134743278Y-79159673D01*
X134696167Y-79221902D01*
X134644274Y-79278294D01*
X134587592Y-79328852D01*
X134526117Y-79373581D01*
X134459840Y-79412484D01*
X134388758Y-79445564D01*
X134312863Y-79472825D01*
X134232150Y-79494272D01*
X134146612Y-79509907D01*
X134056244Y-79519734D01*
X134046586Y-79520307D01*
X134025525Y-79521031D01*
X133999868Y-79521466D01*
X133971350Y-79521620D01*
X133941708Y-79521505D01*
X133912675Y-79521130D01*
X133885988Y-79520505D01*
X133863382Y-79519639D01*
X133846592Y-79518543D01*
X133783441Y-79511261D01*
X133701729Y-79496680D01*
X133624957Y-79476635D01*
X133552843Y-79451009D01*
X133485109Y-79419683D01*
X133421473Y-79382539D01*
X133361657Y-79339460D01*
X133305379Y-79290327D01*
X133261063Y-79244302D01*
X133216359Y-79188895D01*
X133175564Y-79127953D01*
X133138142Y-79060741D01*
X133128253Y-79040725D01*
X133118137Y-79019187D01*
X133108474Y-78997669D01*
X133099737Y-78977299D01*
X133092397Y-78959210D01*
X133086928Y-78944531D01*
X133083802Y-78934393D01*
X133083490Y-78929927D01*
X133084141Y-78929694D01*
X133090716Y-78928261D01*
X133103744Y-78925759D01*
X133122492Y-78922311D01*
X133146232Y-78918042D01*
X133174232Y-78913078D01*
X133205761Y-78907543D01*
X133240089Y-78901562D01*
X133276485Y-78895261D01*
X133314219Y-78888764D01*
X133352560Y-78882196D01*
X133390777Y-78875683D01*
X133428140Y-78869348D01*
X133463918Y-78863318D01*
X133497380Y-78857717D01*
X133527796Y-78852669D01*
X133554435Y-78848301D01*
X133576566Y-78844736D01*
X133593460Y-78842101D01*
X133604384Y-78840519D01*
X133608609Y-78840116D01*
X133609041Y-78840401D01*
X133612230Y-78845650D01*
X133616555Y-78855911D01*
X133621208Y-78869312D01*
X133631484Y-78898007D01*
X133647800Y-78934802D01*
X133666755Y-78970157D01*
X133687241Y-79002045D01*
X133708149Y-79028437D01*
X133724890Y-79045212D01*
X133758766Y-79071239D01*
X133797173Y-79092285D01*
X133839272Y-79108225D01*
X133884222Y-79118936D01*
X133931182Y-79124293D01*
X133979312Y-79124172D01*
X134027771Y-79118448D01*
X134075719Y-79106997D01*
X134122315Y-79089695D01*
X134144025Y-79079067D01*
X134185888Y-79052968D01*
X134225522Y-79020962D01*
X134261800Y-78984128D01*
X134293594Y-78943549D01*
X134319779Y-78900304D01*
X134333764Y-78870192D01*
X134349326Y-78827952D01*
X134362398Y-78782421D01*
X134372423Y-78735878D01*
X134378846Y-78690602D01*
X134381111Y-78648871D01*
X134381111Y-78627052D01*
X133715665Y-78627052D01*
X133050220Y-78627052D01*
X133052760Y-78533907D01*
X133052901Y-78528894D01*
X133056675Y-78441065D01*
X133062825Y-78359577D01*
X133070099Y-78295575D01*
X133580281Y-78295575D01*
X133580451Y-78296405D01*
X133581395Y-78297369D01*
X133583547Y-78298220D01*
X133587330Y-78298964D01*
X133593168Y-78299610D01*
X133601484Y-78300163D01*
X133612700Y-78300632D01*
X133627240Y-78301022D01*
X133645526Y-78301341D01*
X133667983Y-78301597D01*
X133695033Y-78301795D01*
X133727100Y-78301944D01*
X133764605Y-78302049D01*
X133807973Y-78302120D01*
X133857627Y-78302161D01*
X133913990Y-78302180D01*
X133977485Y-78302185D01*
X134374691Y-78302185D01*
X134372148Y-78259688D01*
X134369567Y-78228024D01*
X134360023Y-78165643D01*
X134344877Y-78108096D01*
X134324172Y-78055466D01*
X134297952Y-78007839D01*
X134266260Y-77965299D01*
X134229140Y-77927932D01*
X134186635Y-77895823D01*
X134175510Y-77888772D01*
X134138808Y-77868643D01*
X134102094Y-77853800D01*
X134063683Y-77843768D01*
X134021889Y-77838072D01*
X133975028Y-77836238D01*
X133941980Y-77836971D01*
X133908702Y-77840011D01*
X133878700Y-77845818D01*
X133849815Y-77854824D01*
X133819891Y-77867466D01*
X133815207Y-77869695D01*
X133767803Y-77896591D01*
X133725668Y-77928883D01*
X133688847Y-77966511D01*
X133657383Y-78009419D01*
X133631318Y-78057548D01*
X133610696Y-78110841D01*
X133595560Y-78169239D01*
X133594076Y-78177041D01*
X133590911Y-78196381D01*
X133587758Y-78218656D01*
X133584867Y-78241789D01*
X133582490Y-78263705D01*
X133580877Y-78282325D01*
X133580281Y-78295575D01*
X133070099Y-78295575D01*
X133071460Y-78283604D01*
X133082690Y-78212325D01*
X133096626Y-78144913D01*
X133113378Y-78080547D01*
X133121087Y-78054965D01*
X133146885Y-77981962D01*
X133177159Y-77912408D01*
X133211446Y-77847212D01*
X133249281Y-77787282D01*
X133290203Y-77733529D01*
X133293940Y-77729109D01*
X133348428Y-77670759D01*
X133407316Y-77618548D01*
X133470591Y-77572482D01*
X133538238Y-77532569D01*
X133610243Y-77498818D01*
X133686591Y-77471235D01*
X133767267Y-77449829D01*
X133852259Y-77434606D01*
X133864315Y-77433167D01*
X133889905Y-77431063D01*
X133920203Y-77429450D01*
X133953679Y-77428340D01*
X133988801Y-77427741D01*
X134024042Y-77427665D01*
X134057869Y-77428120D01*
X134088753Y-77429117D01*
X134115164Y-77430666D01*
X134135572Y-77432776D01*
X134156915Y-77436008D01*
X134237763Y-77452346D01*
X134314099Y-77474614D01*
X134386260Y-77502976D01*
X134454581Y-77537597D01*
X134519399Y-77578644D01*
X134581050Y-77626281D01*
X134639870Y-77680673D01*
X134645281Y-77686157D01*
X134699223Y-77746272D01*
X134747294Y-77810440D01*
X134789541Y-77878792D01*
X134826011Y-77951459D01*
X134856749Y-78028572D01*
X134881802Y-78110261D01*
X134901218Y-78196657D01*
X134915042Y-78287891D01*
X134916272Y-78302185D01*
X134923321Y-78384093D01*
G37*
G36*
X144217755Y-73770874D02*
G01*
X144217755Y-75155517D01*
X143938219Y-75155517D01*
X143658683Y-75155517D01*
X143658683Y-74576983D01*
X143658683Y-73998450D01*
X143536859Y-74000832D01*
X143492443Y-74001937D01*
X143444442Y-74003862D01*
X143402515Y-74006528D01*
X143365860Y-74010052D01*
X143333672Y-74014549D01*
X143305148Y-74020136D01*
X143279484Y-74026927D01*
X143255877Y-74035040D01*
X143233523Y-74044590D01*
X143207728Y-74057696D01*
X143180288Y-74074322D01*
X143153759Y-74093624D01*
X143127417Y-74116278D01*
X143100538Y-74142959D01*
X143072399Y-74174342D01*
X143042276Y-74211106D01*
X143009446Y-74253924D01*
X143001684Y-74264365D01*
X142989806Y-74280553D01*
X142977129Y-74298087D01*
X142963412Y-74317320D01*
X142948415Y-74338607D01*
X142931894Y-74362299D01*
X142913609Y-74388750D01*
X142893319Y-74418315D01*
X142870780Y-74451346D01*
X142845753Y-74488196D01*
X142817995Y-74529219D01*
X142787265Y-74574769D01*
X142753321Y-74625199D01*
X142715921Y-74680861D01*
X142674825Y-74742110D01*
X142629790Y-74809299D01*
X142625607Y-74815543D01*
X142594970Y-74861214D01*
X142565503Y-74905060D01*
X142537480Y-74946673D01*
X142511176Y-74985650D01*
X142486866Y-75021584D01*
X142464827Y-75054072D01*
X142445332Y-75082707D01*
X142428658Y-75107085D01*
X142415079Y-75126801D01*
X142404870Y-75141450D01*
X142398307Y-75150626D01*
X142395665Y-75153925D01*
X142392335Y-75154130D01*
X142381905Y-75154338D01*
X142364944Y-75154514D01*
X142342002Y-75154655D01*
X142313629Y-75154761D01*
X142280374Y-75154832D01*
X142242787Y-75154865D01*
X142201417Y-75154860D01*
X142156814Y-75154815D01*
X142109527Y-75154730D01*
X142060106Y-75154603D01*
X141728884Y-75153628D01*
X141902651Y-74875981D01*
X141931118Y-74830507D01*
X141969987Y-74768460D01*
X142005292Y-74712177D01*
X142037287Y-74661267D01*
X142066225Y-74615341D01*
X142092359Y-74574010D01*
X142115944Y-74536884D01*
X142137233Y-74503575D01*
X142156479Y-74473691D01*
X142173937Y-74446845D01*
X142189859Y-74422647D01*
X142204500Y-74400708D01*
X142218114Y-74380637D01*
X142230953Y-74362047D01*
X142243272Y-74344547D01*
X142255324Y-74327748D01*
X142267362Y-74311260D01*
X142279641Y-74294695D01*
X142292414Y-74277664D01*
X142343195Y-74213692D01*
X142395218Y-74155434D01*
X142449374Y-74102258D01*
X142507008Y-74052931D01*
X142569465Y-74006222D01*
X142638090Y-73960897D01*
X142681474Y-73933815D01*
X142634139Y-73925476D01*
X142608055Y-73920608D01*
X142524636Y-73901074D01*
X142446524Y-73876470D01*
X142373798Y-73846855D01*
X142306535Y-73812290D01*
X142244813Y-73772834D01*
X142188712Y-73728548D01*
X142138309Y-73679490D01*
X142093682Y-73625722D01*
X142054910Y-73567302D01*
X142022072Y-73504291D01*
X141995245Y-73436748D01*
X141985127Y-73404849D01*
X141971103Y-73348936D01*
X141961364Y-73290998D01*
X141955676Y-73229492D01*
X141954895Y-73201653D01*
X142530198Y-73201653D01*
X142532247Y-73241262D01*
X142536929Y-73276561D01*
X142545869Y-73317971D01*
X142558456Y-73354551D01*
X142575257Y-73387578D01*
X142596835Y-73418329D01*
X142623756Y-73448081D01*
X142627698Y-73451969D01*
X142648177Y-73470695D01*
X142668843Y-73486738D01*
X142690514Y-73500365D01*
X142714008Y-73511839D01*
X142740144Y-73521427D01*
X142769738Y-73529394D01*
X142803609Y-73536005D01*
X142842576Y-73541525D01*
X142887456Y-73546221D01*
X142939067Y-73550356D01*
X142946670Y-73550784D01*
X142963817Y-73551434D01*
X142987397Y-73552094D01*
X143016739Y-73552754D01*
X143051174Y-73553403D01*
X143090031Y-73554030D01*
X143132641Y-73554625D01*
X143178333Y-73555177D01*
X143226438Y-73555676D01*
X143276286Y-73556112D01*
X143327207Y-73556473D01*
X143658683Y-73558544D01*
X143658683Y-73206310D01*
X143658683Y-72854076D01*
X143268655Y-72856272D01*
X143231418Y-72856498D01*
X143177894Y-72856879D01*
X143126295Y-72857312D01*
X143077184Y-72857790D01*
X143031125Y-72858303D01*
X142988680Y-72858845D01*
X142950411Y-72859407D01*
X142916883Y-72859981D01*
X142888658Y-72860561D01*
X142866299Y-72861137D01*
X142850369Y-72861702D01*
X142841431Y-72862248D01*
X142830536Y-72863473D01*
X142777222Y-72873177D01*
X142728444Y-72888467D01*
X142684437Y-72909162D01*
X142645439Y-72935085D01*
X142611686Y-72966056D01*
X142583414Y-73001895D01*
X142560859Y-73042424D01*
X142544257Y-73087464D01*
X142536799Y-73120576D01*
X142531791Y-73160451D01*
X142530198Y-73201653D01*
X141954895Y-73201653D01*
X141953807Y-73162878D01*
X141953856Y-73151338D01*
X141956746Y-73081814D01*
X141964307Y-73016731D01*
X141976834Y-72954578D01*
X141994619Y-72893846D01*
X142017958Y-72833025D01*
X142042748Y-72781006D01*
X142075859Y-72724308D01*
X142113568Y-72670885D01*
X142155067Y-72621777D01*
X142199542Y-72578024D01*
X142246183Y-72540663D01*
X142271544Y-72523480D01*
X142315753Y-72497568D01*
X142362825Y-72475001D01*
X142413502Y-72455540D01*
X142468525Y-72438943D01*
X142528636Y-72424969D01*
X142594576Y-72413377D01*
X142667086Y-72403927D01*
X142676359Y-72402899D01*
X142691760Y-72401218D01*
X142706461Y-72399680D01*
X142720836Y-72398278D01*
X142735262Y-72397004D01*
X142750114Y-72395852D01*
X142765766Y-72394814D01*
X142782594Y-72393883D01*
X142800973Y-72393053D01*
X142821279Y-72392315D01*
X142843887Y-72391662D01*
X142869171Y-72391089D01*
X142897508Y-72390587D01*
X142929272Y-72390149D01*
X142964838Y-72389768D01*
X143004583Y-72389437D01*
X143048881Y-72389149D01*
X143098107Y-72388897D01*
X143152636Y-72388673D01*
X143212845Y-72388470D01*
X143279107Y-72388282D01*
X143351799Y-72388102D01*
X143431295Y-72387921D01*
X143517971Y-72387733D01*
X144217755Y-72386231D01*
X144217755Y-73206310D01*
X144217755Y-73770874D01*
G37*
G36*
X144217755Y-78092349D02*
G01*
X144217755Y-79476992D01*
X143938219Y-79476992D01*
X143658683Y-79476992D01*
X143658683Y-78898459D01*
X143658683Y-78319925D01*
X143536859Y-78322307D01*
X143492443Y-78323413D01*
X143444442Y-78325337D01*
X143402515Y-78328004D01*
X143365860Y-78331527D01*
X143333672Y-78336024D01*
X143305148Y-78341611D01*
X143279484Y-78348403D01*
X143255877Y-78356515D01*
X143233523Y-78366065D01*
X143207728Y-78379171D01*
X143180288Y-78395798D01*
X143153759Y-78415100D01*
X143127417Y-78437753D01*
X143100538Y-78464434D01*
X143072399Y-78495818D01*
X143042276Y-78532581D01*
X143009446Y-78575399D01*
X143001684Y-78585840D01*
X142989806Y-78602028D01*
X142977129Y-78619562D01*
X142963412Y-78638796D01*
X142948415Y-78660082D01*
X142931894Y-78683774D01*
X142913609Y-78710226D01*
X142893319Y-78739790D01*
X142870780Y-78772821D01*
X142845753Y-78809671D01*
X142817995Y-78850695D01*
X142787265Y-78896244D01*
X142753321Y-78946674D01*
X142715921Y-79002336D01*
X142674825Y-79063586D01*
X142629790Y-79130775D01*
X142625607Y-79137018D01*
X142594970Y-79182690D01*
X142565503Y-79226535D01*
X142537480Y-79268148D01*
X142511176Y-79307125D01*
X142486866Y-79343060D01*
X142464827Y-79375547D01*
X142445332Y-79404183D01*
X142428658Y-79428561D01*
X142415079Y-79448277D01*
X142404870Y-79462925D01*
X142398307Y-79472101D01*
X142395665Y-79475400D01*
X142392335Y-79475605D01*
X142381905Y-79475814D01*
X142364944Y-79475989D01*
X142342002Y-79476130D01*
X142313629Y-79476237D01*
X142280374Y-79476307D01*
X142242787Y-79476340D01*
X142201417Y-79476335D01*
X142156814Y-79476290D01*
X142109527Y-79476205D01*
X142060106Y-79476078D01*
X141728884Y-79475103D01*
X141902651Y-79197456D01*
X141931118Y-79151982D01*
X141969987Y-79089936D01*
X142005292Y-79033652D01*
X142037287Y-78982743D01*
X142066225Y-78936817D01*
X142092359Y-78895486D01*
X142115944Y-78858360D01*
X142137233Y-78825050D01*
X142156479Y-78795167D01*
X142173937Y-78768321D01*
X142189859Y-78744123D01*
X142204500Y-78722183D01*
X142218114Y-78702113D01*
X142230953Y-78683522D01*
X142243272Y-78666022D01*
X142255324Y-78649223D01*
X142267362Y-78632736D01*
X142279641Y-78616171D01*
X142292414Y-78599139D01*
X142343195Y-78535168D01*
X142395218Y-78476910D01*
X142449374Y-78423734D01*
X142507008Y-78374407D01*
X142569465Y-78327697D01*
X142638090Y-78282372D01*
X142681474Y-78255291D01*
X142634139Y-78246952D01*
X142608055Y-78242083D01*
X142524636Y-78222549D01*
X142446524Y-78197945D01*
X142373798Y-78168330D01*
X142306535Y-78133765D01*
X142244813Y-78094310D01*
X142188712Y-78050023D01*
X142138309Y-78000966D01*
X142093682Y-77947197D01*
X142054910Y-77888777D01*
X142022072Y-77825766D01*
X141995245Y-77758224D01*
X141985127Y-77726324D01*
X141971103Y-77670412D01*
X141961364Y-77612473D01*
X141955676Y-77550968D01*
X141954895Y-77523128D01*
X142530198Y-77523128D01*
X142532247Y-77562737D01*
X142536929Y-77598036D01*
X142545869Y-77639446D01*
X142558456Y-77676026D01*
X142575257Y-77709053D01*
X142596835Y-77739804D01*
X142623756Y-77769556D01*
X142627698Y-77773444D01*
X142648177Y-77792170D01*
X142668843Y-77808214D01*
X142690514Y-77821840D01*
X142714008Y-77833315D01*
X142740144Y-77842903D01*
X142769738Y-77850869D01*
X142803609Y-77857480D01*
X142842576Y-77863001D01*
X142887456Y-77867696D01*
X142939067Y-77871831D01*
X142946670Y-77872259D01*
X142963817Y-77872910D01*
X142987397Y-77873570D01*
X143016739Y-77874229D01*
X143051174Y-77874878D01*
X143090031Y-77875505D01*
X143132641Y-77876100D01*
X143178333Y-77876653D01*
X143226438Y-77877152D01*
X143276286Y-77877587D01*
X143327207Y-77877948D01*
X143658683Y-77880019D01*
X143658683Y-77527786D01*
X143658683Y-77175552D01*
X143268655Y-77177747D01*
X143231418Y-77177973D01*
X143177894Y-77178354D01*
X143126295Y-77178788D01*
X143077184Y-77179265D01*
X143031125Y-77179778D01*
X142988680Y-77180320D01*
X142950411Y-77180882D01*
X142916883Y-77181457D01*
X142888658Y-77182036D01*
X142866299Y-77182612D01*
X142850369Y-77183177D01*
X142841431Y-77183723D01*
X142830536Y-77184949D01*
X142777222Y-77194653D01*
X142728444Y-77209942D01*
X142684437Y-77230638D01*
X142645439Y-77256560D01*
X142611686Y-77287531D01*
X142583414Y-77323370D01*
X142560859Y-77363900D01*
X142544257Y-77408939D01*
X142536799Y-77442051D01*
X142531791Y-77481926D01*
X142530198Y-77523128D01*
X141954895Y-77523128D01*
X141953807Y-77484354D01*
X141953856Y-77472813D01*
X141956746Y-77403289D01*
X141964307Y-77338206D01*
X141976834Y-77276053D01*
X141994619Y-77215321D01*
X142017958Y-77154500D01*
X142042748Y-77102482D01*
X142075859Y-77045783D01*
X142113568Y-76992361D01*
X142155067Y-76943253D01*
X142199542Y-76899499D01*
X142246183Y-76862138D01*
X142271544Y-76844955D01*
X142315753Y-76819043D01*
X142362825Y-76796476D01*
X142413502Y-76777015D01*
X142468525Y-76760418D01*
X142528636Y-76746444D01*
X142594576Y-76734853D01*
X142667086Y-76725403D01*
X142676359Y-76724374D01*
X142691760Y-76722693D01*
X142706461Y-76721155D01*
X142720836Y-76719753D01*
X142735262Y-76718480D01*
X142750114Y-76717327D01*
X142765766Y-76716290D01*
X142782594Y-76715359D01*
X142800973Y-76714528D01*
X142821279Y-76713790D01*
X142843887Y-76713138D01*
X142869171Y-76712564D01*
X142897508Y-76712062D01*
X142929272Y-76711624D01*
X142964838Y-76711243D01*
X143004583Y-76710912D01*
X143048881Y-76710624D01*
X143098107Y-76710372D01*
X143152636Y-76710148D01*
X143212845Y-76709946D01*
X143279107Y-76709758D01*
X143351799Y-76709577D01*
X143431295Y-76709396D01*
X143517971Y-76709208D01*
X144217755Y-76707706D01*
X144217755Y-77527786D01*
X144217755Y-78092349D01*
G37*
G36*
X136203983Y-74632757D02*
G01*
X136198510Y-74696681D01*
X136186656Y-74758888D01*
X136168557Y-74818611D01*
X136144347Y-74875078D01*
X136114162Y-74927522D01*
X136102355Y-74944760D01*
X136061095Y-74996496D01*
X136014877Y-75042589D01*
X135963834Y-75082964D01*
X135908100Y-75117544D01*
X135847807Y-75146254D01*
X135783089Y-75169018D01*
X135714079Y-75185761D01*
X135640911Y-75196406D01*
X135620139Y-75198037D01*
X135591644Y-75199358D01*
X135560229Y-75200078D01*
X135527984Y-75200194D01*
X135496998Y-75199700D01*
X135469362Y-75198592D01*
X135447165Y-75196864D01*
X135379470Y-75186858D01*
X135302696Y-75168669D01*
X135228315Y-75143423D01*
X135156200Y-75111061D01*
X135086223Y-75071525D01*
X135018257Y-75024758D01*
X134952176Y-74970701D01*
X134950769Y-74969457D01*
X134937459Y-74957904D01*
X134926412Y-74948686D01*
X134918743Y-74942712D01*
X134915567Y-74940890D01*
X134915110Y-74941943D01*
X134912728Y-74948970D01*
X134908672Y-74961676D01*
X134903271Y-74979013D01*
X134896851Y-74999936D01*
X134889741Y-75023396D01*
X134887367Y-75031246D01*
X134879654Y-75056409D01*
X134872197Y-75080256D01*
X134865468Y-75101303D01*
X134859940Y-75118070D01*
X134856084Y-75129074D01*
X134846872Y-75153628D01*
X134583710Y-75154598D01*
X134320547Y-75155568D01*
X134325970Y-75143266D01*
X134328500Y-75137530D01*
X134333940Y-75125201D01*
X134340866Y-75109510D01*
X134348375Y-75092501D01*
X134350428Y-75087818D01*
X134375903Y-75023505D01*
X134397081Y-74957899D01*
X134413391Y-74892961D01*
X134424268Y-74830651D01*
X134425116Y-74824130D01*
X134428010Y-74800113D01*
X134430571Y-74775554D01*
X134432808Y-74749950D01*
X134434733Y-74722802D01*
X134436358Y-74693608D01*
X134437692Y-74661869D01*
X134438746Y-74627082D01*
X134439532Y-74588749D01*
X134440061Y-74546367D01*
X134440342Y-74499437D01*
X134440388Y-74447457D01*
X134440209Y-74389927D01*
X134439816Y-74326346D01*
X134439220Y-74256214D01*
X134438644Y-74199909D01*
X134958187Y-74199909D01*
X134960102Y-74336792D01*
X134960341Y-74352901D01*
X134961136Y-74394253D01*
X134962164Y-74429274D01*
X134963514Y-74458871D01*
X134965276Y-74483949D01*
X134967539Y-74505415D01*
X134970393Y-74524176D01*
X134973925Y-74541138D01*
X134978227Y-74557208D01*
X134983386Y-74573292D01*
X134989493Y-74589319D01*
X134997820Y-74608250D01*
X135005951Y-74624289D01*
X135022974Y-74650989D01*
X135053078Y-74687288D01*
X135089003Y-74720533D01*
X135129912Y-74750206D01*
X135174972Y-74775791D01*
X135223348Y-74796770D01*
X135274204Y-74812628D01*
X135326707Y-74822847D01*
X135333985Y-74823773D01*
X135384319Y-74826344D01*
X135433291Y-74821814D01*
X135482256Y-74810074D01*
X135507744Y-74800792D01*
X135537239Y-74785719D01*
X135565367Y-74765842D01*
X135594008Y-74739981D01*
X135600638Y-74733338D01*
X135614772Y-74718214D01*
X135625545Y-74704561D01*
X135634740Y-74689958D01*
X135644144Y-74671985D01*
X135650057Y-74659298D01*
X135664476Y-74618148D01*
X135671639Y-74577268D01*
X135671537Y-74537078D01*
X135664158Y-74497999D01*
X135649492Y-74460454D01*
X135639000Y-74442778D01*
X135619838Y-74418464D01*
X135596614Y-74395248D01*
X135571173Y-74374926D01*
X135545361Y-74359291D01*
X135524553Y-74349658D01*
X135499420Y-74339657D01*
X135470408Y-74329644D01*
X135436918Y-74319445D01*
X135398349Y-74308888D01*
X135354101Y-74297800D01*
X135303572Y-74286008D01*
X135246161Y-74273341D01*
X135235519Y-74271029D01*
X135202815Y-74263735D01*
X135168608Y-74255860D01*
X135134009Y-74247678D01*
X135100127Y-74239464D01*
X135068074Y-74231493D01*
X135038959Y-74224040D01*
X135013893Y-74217379D01*
X134993987Y-74211787D01*
X134980349Y-74207537D01*
X134958187Y-74199909D01*
X134438644Y-74199909D01*
X134438431Y-74179030D01*
X134437878Y-74125591D01*
X134437278Y-74057513D01*
X134436880Y-73996160D01*
X134436690Y-73941048D01*
X134436714Y-73891696D01*
X134436959Y-73847622D01*
X134437432Y-73808343D01*
X134438137Y-73773379D01*
X134439082Y-73742247D01*
X134440274Y-73714465D01*
X134441717Y-73689551D01*
X134443419Y-73667024D01*
X134445385Y-73646400D01*
X134451301Y-73598834D01*
X134460609Y-73544057D01*
X134471930Y-73494886D01*
X134485122Y-73451914D01*
X134500044Y-73415734D01*
X134510687Y-73395462D01*
X134539080Y-73352532D01*
X134574143Y-73311781D01*
X134615378Y-73273644D01*
X134662285Y-73238554D01*
X134714368Y-73206946D01*
X134771129Y-73179255D01*
X134793221Y-73170229D01*
X134849117Y-73151573D01*
X134911627Y-73136005D01*
X134980540Y-73123553D01*
X135055648Y-73114247D01*
X135136741Y-73108113D01*
X135223610Y-73105182D01*
X135316045Y-73105480D01*
X135347140Y-73106299D01*
X135423486Y-73110177D01*
X135493699Y-73116683D01*
X135558514Y-73125959D01*
X135618667Y-73138145D01*
X135674894Y-73153381D01*
X135727931Y-73171806D01*
X135778513Y-73193562D01*
X135806435Y-73207463D01*
X135843888Y-73228985D01*
X135878444Y-73252894D01*
X135912166Y-73280660D01*
X135947118Y-73313756D01*
X135959233Y-73326125D01*
X135995949Y-73367476D01*
X136028286Y-73410717D01*
X136057568Y-73457734D01*
X136085117Y-73510410D01*
X136091151Y-73523380D01*
X136099818Y-73543310D01*
X136108840Y-73565267D01*
X136117805Y-73588126D01*
X136126305Y-73610764D01*
X136133930Y-73632056D01*
X136140268Y-73650878D01*
X136144911Y-73666106D01*
X136147447Y-73676618D01*
X136147467Y-73681288D01*
X136146749Y-73681509D01*
X136140076Y-73682939D01*
X136127038Y-73685513D01*
X136108396Y-73689093D01*
X136084911Y-73693539D01*
X136057344Y-73698710D01*
X136026455Y-73704468D01*
X135993006Y-73710673D01*
X135957756Y-73717185D01*
X135921467Y-73723864D01*
X135884900Y-73730572D01*
X135848816Y-73737167D01*
X135813974Y-73743511D01*
X135781137Y-73749464D01*
X135751065Y-73754886D01*
X135724518Y-73759637D01*
X135702258Y-73763579D01*
X135685045Y-73766571D01*
X135673640Y-73768473D01*
X135668804Y-73769147D01*
X135666501Y-73765986D01*
X135662600Y-73757503D01*
X135657977Y-73745560D01*
X135650805Y-73727474D01*
X135637958Y-73699797D01*
X135623036Y-73671542D01*
X135607439Y-73645318D01*
X135592568Y-73623735D01*
X135581858Y-73610561D01*
X135552824Y-73581951D01*
X135519557Y-73558448D01*
X135481746Y-73539941D01*
X135439079Y-73526321D01*
X135391243Y-73517478D01*
X135337925Y-73513303D01*
X135278813Y-73513686D01*
X135245100Y-73515564D01*
X135193690Y-73520628D01*
X135148758Y-73528247D01*
X135109837Y-73538620D01*
X135076465Y-73551950D01*
X135048175Y-73568437D01*
X135024504Y-73588281D01*
X135004987Y-73611684D01*
X134989159Y-73638845D01*
X134985390Y-73646771D01*
X134976840Y-73666837D01*
X134970518Y-73686066D01*
X134966110Y-73706129D01*
X134963304Y-73728701D01*
X134961787Y-73755452D01*
X134961247Y-73788057D01*
X134960959Y-73854163D01*
X135025109Y-73875639D01*
X135040310Y-73880618D01*
X135078175Y-73892179D01*
X135120212Y-73903894D01*
X135166977Y-73915897D01*
X135219022Y-73928321D01*
X135276900Y-73941301D01*
X135341166Y-73954971D01*
X135412372Y-73969465D01*
X135424116Y-73971818D01*
X135496249Y-73986646D01*
X135561521Y-74000791D01*
X135620488Y-74014420D01*
X135673707Y-74027699D01*
X135721735Y-74040795D01*
X135765130Y-74053875D01*
X135804448Y-74067104D01*
X135840245Y-74080649D01*
X135873080Y-74094678D01*
X135903508Y-74109355D01*
X135932087Y-74124849D01*
X135949595Y-74135325D01*
X136001034Y-74171764D01*
X136047478Y-74213555D01*
X136088562Y-74260190D01*
X136123917Y-74311162D01*
X136153177Y-74365961D01*
X136175975Y-74424080D01*
X136191944Y-74485008D01*
X136195246Y-74502837D01*
X136202940Y-74567886D01*
X136203091Y-74577268D01*
X136203983Y-74632757D01*
G37*
G36*
X130444245Y-77427100D02*
G01*
X130496876Y-77433978D01*
X130545767Y-77446701D01*
X130561322Y-77452345D01*
X130594967Y-77467077D01*
X130627353Y-77484388D01*
X130655345Y-77502678D01*
X130669149Y-77513478D01*
X130698772Y-77540319D01*
X130730167Y-77573277D01*
X130762770Y-77611706D01*
X130796016Y-77654956D01*
X130829339Y-77702379D01*
X130862357Y-77751441D01*
X130863347Y-77611287D01*
X130864338Y-77471133D01*
X131111719Y-77471133D01*
X131359100Y-77471133D01*
X131359100Y-78474062D01*
X131359100Y-79476992D01*
X131093190Y-79476992D01*
X130827280Y-79476992D01*
X130825323Y-79024635D01*
X130825217Y-79001216D01*
X130824901Y-78941232D01*
X130824531Y-78882768D01*
X130824114Y-78826371D01*
X130823656Y-78772591D01*
X130823164Y-78721976D01*
X130822643Y-78675075D01*
X130822101Y-78632437D01*
X130821543Y-78594611D01*
X130820975Y-78562144D01*
X130820405Y-78535587D01*
X130819838Y-78515487D01*
X130819281Y-78502394D01*
X130816884Y-78463588D01*
X130812489Y-78402995D01*
X130807582Y-78348806D01*
X130802024Y-78300300D01*
X130795675Y-78256755D01*
X130788394Y-78217448D01*
X130780041Y-78181658D01*
X130770476Y-78148663D01*
X130759557Y-78117741D01*
X130747145Y-78088170D01*
X130733099Y-78059229D01*
X130723591Y-78041860D01*
X130698029Y-78003944D01*
X130668942Y-77972459D01*
X130635837Y-77946999D01*
X130598223Y-77927158D01*
X130555607Y-77912528D01*
X130535290Y-77908487D01*
X130509312Y-77905614D01*
X130480860Y-77904165D01*
X130452397Y-77904199D01*
X130426382Y-77905774D01*
X130405278Y-77908949D01*
X130400473Y-77910063D01*
X130361105Y-77921594D01*
X130319377Y-77937608D01*
X130277674Y-77957104D01*
X130238382Y-77979079D01*
X130232748Y-77982288D01*
X130224776Y-77985768D01*
X130220938Y-77985878D01*
X130220763Y-77985470D01*
X130218590Y-77979646D01*
X130214172Y-77967473D01*
X130207725Y-77949557D01*
X130199465Y-77926507D01*
X130189611Y-77898927D01*
X130178379Y-77867425D01*
X130165985Y-77832608D01*
X130152646Y-77795080D01*
X130138579Y-77755450D01*
X130131591Y-77735782D01*
X130114792Y-77688789D01*
X130099930Y-77647665D01*
X130087076Y-77612593D01*
X130076299Y-77583759D01*
X130067667Y-77561345D01*
X130061251Y-77545536D01*
X130057119Y-77536515D01*
X130055340Y-77534466D01*
X130055196Y-77534845D01*
X130052985Y-77540667D01*
X130048233Y-77553191D01*
X130041050Y-77572130D01*
X130031544Y-77597197D01*
X130019825Y-77628103D01*
X130006001Y-77664561D01*
X129990182Y-77706283D01*
X129972477Y-77752982D01*
X129952994Y-77804370D01*
X129931843Y-77860159D01*
X129909133Y-77920062D01*
X129884972Y-77983790D01*
X129859471Y-78051057D01*
X129832737Y-78121574D01*
X129804881Y-78195055D01*
X129776011Y-78271210D01*
X129746236Y-78349753D01*
X129715666Y-78430396D01*
X129684408Y-78512851D01*
X129316005Y-79484686D01*
X129327367Y-79521036D01*
X129340132Y-79558296D01*
X129360489Y-79607906D01*
X129383826Y-79655729D01*
X129409365Y-79700324D01*
X129436328Y-79740250D01*
X129463936Y-79774064D01*
X129478201Y-79788227D01*
X129509762Y-79812506D01*
X129546317Y-79833066D01*
X129586501Y-79849194D01*
X129628950Y-79860179D01*
X129662643Y-79865190D01*
X129714780Y-79868577D01*
X129772127Y-79867737D01*
X129834080Y-79862686D01*
X129900035Y-79853437D01*
X129905074Y-79852609D01*
X129922733Y-79849955D01*
X129937026Y-79848196D01*
X129946596Y-79847479D01*
X129950087Y-79847954D01*
X129949843Y-79850995D01*
X129948827Y-79860918D01*
X129947111Y-79876798D01*
X129944791Y-79897792D01*
X129941963Y-79923060D01*
X129938725Y-79951759D01*
X129935174Y-79983049D01*
X129931405Y-80016087D01*
X129927515Y-80050033D01*
X129923602Y-80084044D01*
X129919762Y-80117280D01*
X129916091Y-80148898D01*
X129912686Y-80178058D01*
X129909644Y-80203918D01*
X129907062Y-80225637D01*
X129905035Y-80242372D01*
X129903662Y-80253283D01*
X129903038Y-80257527D01*
X129899473Y-80259858D01*
X129889275Y-80263083D01*
X129873511Y-80266783D01*
X129853210Y-80270782D01*
X129829401Y-80274903D01*
X129803113Y-80278969D01*
X129775374Y-80282803D01*
X129747213Y-80286229D01*
X129719659Y-80289068D01*
X129705448Y-80290066D01*
X129680854Y-80290983D01*
X129651574Y-80291421D01*
X129619138Y-80291412D01*
X129585076Y-80290984D01*
X129550916Y-80290169D01*
X129518189Y-80288995D01*
X129488424Y-80287494D01*
X129463152Y-80285696D01*
X129443901Y-80283630D01*
X129380103Y-80272607D01*
X129309874Y-80254876D01*
X129244794Y-80232031D01*
X129185004Y-80204137D01*
X129130644Y-80171263D01*
X129081854Y-80133475D01*
X129038774Y-80090838D01*
X129020750Y-80069952D01*
X129001704Y-80046075D01*
X128983557Y-80021099D01*
X128966031Y-79994466D01*
X128948852Y-79965617D01*
X128931743Y-79933992D01*
X128914429Y-79899033D01*
X128896636Y-79860180D01*
X128878086Y-79816874D01*
X128858504Y-79768557D01*
X128837615Y-79714670D01*
X128815143Y-79654654D01*
X128790812Y-79587949D01*
X128790488Y-79587050D01*
X128785474Y-79573222D01*
X128778124Y-79553026D01*
X128768566Y-79526808D01*
X128756925Y-79494912D01*
X128743328Y-79457685D01*
X128727902Y-79415471D01*
X128710772Y-79368616D01*
X128692066Y-79317464D01*
X128671910Y-79262362D01*
X128650430Y-79203653D01*
X128627753Y-79141683D01*
X128604005Y-79076798D01*
X128579312Y-79009343D01*
X128553802Y-78939662D01*
X128527600Y-78868101D01*
X128500833Y-78795005D01*
X128473628Y-78720720D01*
X128446111Y-78645590D01*
X128418408Y-78569961D01*
X128390646Y-78494178D01*
X128362951Y-78418586D01*
X128335451Y-78343530D01*
X128308270Y-78269356D01*
X128281536Y-78196408D01*
X128255375Y-78125033D01*
X128229914Y-78055574D01*
X128205279Y-77988377D01*
X128181597Y-77923788D01*
X128158993Y-77862152D01*
X128137595Y-77803813D01*
X128117529Y-77749117D01*
X128098922Y-77698409D01*
X128081899Y-77652035D01*
X128066587Y-77610339D01*
X128053113Y-77573667D01*
X128041604Y-77542364D01*
X128032185Y-77516774D01*
X128024983Y-77497244D01*
X128020125Y-77484119D01*
X128017737Y-77477743D01*
X128017560Y-77476506D01*
X128018392Y-77475419D01*
X128020741Y-77474488D01*
X128025113Y-77473703D01*
X128032009Y-77473050D01*
X128041932Y-77472518D01*
X128055387Y-77472094D01*
X128072875Y-77471765D01*
X128094900Y-77471521D01*
X128121964Y-77471349D01*
X128154572Y-77471236D01*
X128193225Y-77471170D01*
X128238427Y-77471140D01*
X128290682Y-77471133D01*
X128566171Y-77471133D01*
X128797825Y-78176583D01*
X128804287Y-78196260D01*
X128827346Y-78266458D01*
X128849761Y-78334668D01*
X128871419Y-78400545D01*
X128892205Y-78463742D01*
X128912006Y-78523914D01*
X128930707Y-78580714D01*
X128948193Y-78633796D01*
X128964352Y-78682814D01*
X128979069Y-78727422D01*
X128992229Y-78767274D01*
X129003719Y-78802023D01*
X129013424Y-78831325D01*
X129021231Y-78854832D01*
X129027025Y-78872199D01*
X129030692Y-78883080D01*
X129032118Y-78887128D01*
X129032133Y-78887156D01*
X129032557Y-78887345D01*
X129033252Y-78886624D01*
X129034304Y-78884743D01*
X129035798Y-78881452D01*
X129037820Y-78876501D01*
X129040454Y-78869640D01*
X129043787Y-78860618D01*
X129047904Y-78849186D01*
X129052890Y-78835094D01*
X129058830Y-78818091D01*
X129065810Y-78797928D01*
X129073915Y-78774354D01*
X129083230Y-78747119D01*
X129093842Y-78715973D01*
X129105834Y-78680667D01*
X129119294Y-78640949D01*
X129134305Y-78596571D01*
X129150954Y-78547281D01*
X129169325Y-78492830D01*
X129189504Y-78432968D01*
X129211577Y-78367445D01*
X129235629Y-78296010D01*
X129261745Y-78218414D01*
X129290010Y-78134406D01*
X129320510Y-78043736D01*
X129353331Y-77946155D01*
X129513092Y-77471133D01*
X129795807Y-77471133D01*
X129798204Y-77471133D01*
X129843572Y-77471149D01*
X129886647Y-77471195D01*
X129926844Y-77471267D01*
X129963578Y-77471363D01*
X129996264Y-77471480D01*
X130024318Y-77471617D01*
X130047156Y-77471770D01*
X130064192Y-77471937D01*
X130074843Y-77472116D01*
X130078523Y-77472305D01*
X130078522Y-77472325D01*
X130077184Y-77476320D01*
X130073798Y-77485375D01*
X130069079Y-77497575D01*
X130068922Y-77497975D01*
X130064238Y-77510054D01*
X130060905Y-77518878D01*
X130059635Y-77522559D01*
X130061465Y-77521879D01*
X130068721Y-77518372D01*
X130080218Y-77512534D01*
X130094577Y-77505055D01*
X130100398Y-77502028D01*
X130156538Y-77476290D01*
X130214348Y-77455696D01*
X130272925Y-77440364D01*
X130331368Y-77430409D01*
X130388775Y-77425949D01*
X130444245Y-77427100D01*
G37*
G36*
X153127924Y-75125140D02*
G01*
X153161099Y-75290292D01*
X153164867Y-75312723D01*
X153170339Y-75348888D01*
X153176076Y-75390371D01*
X153181936Y-75435891D01*
X153187779Y-75484173D01*
X153193464Y-75533935D01*
X153198850Y-75583901D01*
X153203796Y-75632791D01*
X153208162Y-75679327D01*
X153211807Y-75722231D01*
X153214589Y-75760224D01*
X153216369Y-75792028D01*
X153217591Y-75826247D01*
X153218584Y-75871171D01*
X153219105Y-75919753D01*
X153219174Y-75970748D01*
X153218809Y-76022910D01*
X153218031Y-76074993D01*
X153216858Y-76125754D01*
X153215311Y-76173946D01*
X153213407Y-76218324D01*
X153211168Y-76257644D01*
X153208611Y-76290660D01*
X153199788Y-76379149D01*
X153186895Y-76487366D01*
X153172051Y-76590654D01*
X153155035Y-76690398D01*
X153135624Y-76787985D01*
X153113598Y-76884800D01*
X153089629Y-76978559D01*
X153052048Y-77108988D01*
X153009833Y-77238853D01*
X152963562Y-77366497D01*
X152913811Y-77490265D01*
X152861160Y-77608499D01*
X152861127Y-77608570D01*
X152853825Y-77624744D01*
X152848155Y-77638484D01*
X152844678Y-77648339D01*
X152843958Y-77652858D01*
X152845171Y-77654679D01*
X152850684Y-77662428D01*
X152859458Y-77674469D01*
X152870615Y-77689620D01*
X152883276Y-77706698D01*
X152896564Y-77724521D01*
X152909600Y-77741905D01*
X152921506Y-77757668D01*
X152931404Y-77770627D01*
X152939718Y-77781577D01*
X152949962Y-77795520D01*
X152958028Y-77807021D01*
X152962667Y-77814334D01*
X152964010Y-77816670D01*
X152970096Y-77826257D01*
X152978704Y-77839046D01*
X152988426Y-77852927D01*
X153001157Y-77870974D01*
X153038369Y-77926265D01*
X153074086Y-77982986D01*
X153081575Y-77995195D01*
X153093053Y-78013553D01*
X153103858Y-78030471D01*
X153112389Y-78043426D01*
X153115701Y-78048438D01*
X153125303Y-78063721D01*
X153136828Y-78082771D01*
X153149106Y-78103595D01*
X153160970Y-78124196D01*
X153171251Y-78142579D01*
X153178780Y-78156751D01*
X153179674Y-78158513D01*
X153184406Y-78167789D01*
X153191528Y-78181706D01*
X153200237Y-78198695D01*
X153209731Y-78217191D01*
X153222698Y-78243000D01*
X153240321Y-78279584D01*
X153258328Y-78318455D01*
X153276066Y-78358120D01*
X153292880Y-78397085D01*
X153308117Y-78433855D01*
X153321123Y-78466938D01*
X153331244Y-78494839D01*
X153334549Y-78504584D01*
X153357283Y-78575448D01*
X153375947Y-78641390D01*
X153390755Y-78703538D01*
X153401924Y-78763025D01*
X153409670Y-78820978D01*
X153414209Y-78878529D01*
X153415757Y-78936808D01*
X153415743Y-78939240D01*
X153415608Y-78963514D01*
X153414003Y-79011597D01*
X153410443Y-79055426D01*
X153404673Y-79097081D01*
X153396435Y-79138641D01*
X153385473Y-79182187D01*
X153381550Y-79196259D01*
X153372325Y-79227034D01*
X153362999Y-79254026D01*
X153352718Y-79279225D01*
X153340632Y-79304622D01*
X153325888Y-79332206D01*
X153307634Y-79363968D01*
X153306873Y-79365261D01*
X153286857Y-79398023D01*
X153267462Y-79426923D01*
X153247538Y-79453306D01*
X153225936Y-79478516D01*
X153201506Y-79503898D01*
X153173099Y-79530797D01*
X153139565Y-79560556D01*
X153120754Y-79576273D01*
X153065736Y-79616601D01*
X153004573Y-79654051D01*
X152938013Y-79688260D01*
X152866803Y-79718865D01*
X152791691Y-79745503D01*
X152713424Y-79767809D01*
X152694939Y-79772372D01*
X152645082Y-79783731D01*
X152595701Y-79793470D01*
X152545461Y-79801776D01*
X152493026Y-79808837D01*
X152437059Y-79814839D01*
X152376225Y-79819970D01*
X152309189Y-79824417D01*
X152297699Y-79825006D01*
X152262170Y-79826015D01*
X152220891Y-79826229D01*
X152175138Y-79825699D01*
X152126191Y-79824475D01*
X152075327Y-79822611D01*
X152023824Y-79820156D01*
X151972962Y-79817162D01*
X151924019Y-79813680D01*
X151878272Y-79809762D01*
X151837000Y-79805459D01*
X151829935Y-79804656D01*
X151809276Y-79802417D01*
X151786447Y-79800057D01*
X151765227Y-79797970D01*
X151754575Y-79796895D01*
X151735597Y-79794705D01*
X151718727Y-79792442D01*
X151706676Y-79790453D01*
X151699438Y-79789122D01*
X151684049Y-79786571D01*
X151665459Y-79783707D01*
X151646235Y-79780933D01*
X151618475Y-79777027D01*
X151588871Y-79772692D01*
X151561879Y-79768510D01*
X151534799Y-79764073D01*
X151531965Y-79763600D01*
X151515128Y-79760855D01*
X151495319Y-79757698D01*
X151476247Y-79754723D01*
X151474012Y-79754373D01*
X151456338Y-79751334D01*
X151434296Y-79747213D01*
X151410478Y-79742506D01*
X151387476Y-79737710D01*
X151380789Y-79736274D01*
X151359993Y-79731837D01*
X151340965Y-79727820D01*
X151325578Y-79724614D01*
X151315703Y-79722615D01*
X151315226Y-79722522D01*
X151286288Y-79716546D01*
X151251186Y-79708756D01*
X151210994Y-79699426D01*
X151166788Y-79688828D01*
X151119642Y-79677235D01*
X151070634Y-79664920D01*
X151020836Y-79652155D01*
X150971325Y-79639215D01*
X150923176Y-79626371D01*
X150877463Y-79613896D01*
X150835263Y-79602063D01*
X150797650Y-79591146D01*
X150761229Y-79580344D01*
X150733432Y-79591126D01*
X150727340Y-79593459D01*
X150703432Y-79602248D01*
X150674105Y-79612609D01*
X150640747Y-79624080D01*
X150604747Y-79636202D01*
X150567490Y-79648515D01*
X150530365Y-79660559D01*
X150494759Y-79671875D01*
X150462059Y-79682002D01*
X150433654Y-79690482D01*
X150380868Y-79705429D01*
X150275213Y-79733029D01*
X150169704Y-79757601D01*
X150066342Y-79778693D01*
X149967131Y-79795853D01*
X149948953Y-79798553D01*
X149918951Y-79802639D01*
X149884186Y-79807048D01*
X149845884Y-79811651D01*
X149805271Y-79816316D01*
X149763570Y-79820910D01*
X149722008Y-79825303D01*
X149681810Y-79829362D01*
X149644201Y-79832958D01*
X149610406Y-79835957D01*
X149581650Y-79838229D01*
X149559159Y-79839641D01*
X149547393Y-79840102D01*
X149525649Y-79840645D01*
X149498269Y-79841084D01*
X149466359Y-79841413D01*
X149431023Y-79841623D01*
X149393366Y-79841705D01*
X149354493Y-79841651D01*
X149315510Y-79841454D01*
X149294062Y-79841296D01*
X149253429Y-79840940D01*
X149218613Y-79840514D01*
X149188432Y-79839969D01*
X149161704Y-79839257D01*
X149137246Y-79838328D01*
X149113877Y-79837134D01*
X149090414Y-79835626D01*
X149065676Y-79833756D01*
X149038479Y-79831473D01*
X149007642Y-79828730D01*
X148997259Y-79827781D01*
X148962481Y-79824469D01*
X148927022Y-79820914D01*
X148892524Y-79817291D01*
X148860628Y-79813775D01*
X148832976Y-79810541D01*
X148811212Y-79807765D01*
X148790486Y-79804873D01*
X148654166Y-79782587D01*
X148515633Y-79754468D01*
X148376549Y-79720944D01*
X148238575Y-79682442D01*
X148103373Y-79639389D01*
X147972604Y-79592212D01*
X147932721Y-79576676D01*
X147778073Y-79511731D01*
X147627752Y-79440891D01*
X147500966Y-79374257D01*
X151205691Y-79374257D01*
X151221978Y-79376673D01*
X151224106Y-79377005D01*
X151236879Y-79379304D01*
X151253304Y-79382576D01*
X151270373Y-79386227D01*
X151296993Y-79391899D01*
X151332105Y-79398901D01*
X151372687Y-79406589D01*
X151417696Y-79414761D01*
X151423267Y-79415758D01*
X151445590Y-79419807D01*
X151469730Y-79424252D01*
X151491357Y-79428297D01*
X151501663Y-79430176D01*
X151518098Y-79432886D01*
X151531499Y-79434749D01*
X151539680Y-79435441D01*
X151539772Y-79435441D01*
X151548848Y-79436187D01*
X151562373Y-79438102D01*
X151577455Y-79440778D01*
X151582940Y-79441801D01*
X151601324Y-79444814D01*
X151622348Y-79447823D01*
X151642458Y-79450308D01*
X151649099Y-79451055D01*
X151670682Y-79453591D01*
X151692410Y-79456271D01*
X151710453Y-79458629D01*
X151717431Y-79459532D01*
X151737263Y-79461787D01*
X151759439Y-79463991D01*
X151780337Y-79465774D01*
X151789073Y-79466457D01*
X151809914Y-79468170D01*
X151834621Y-79470278D01*
X151860813Y-79472576D01*
X151886108Y-79474859D01*
X151898191Y-79475841D01*
X151925021Y-79477474D01*
X151957413Y-79478932D01*
X151994090Y-79480194D01*
X152033774Y-79481241D01*
X152075186Y-79482054D01*
X152117050Y-79482614D01*
X152158087Y-79482901D01*
X152197020Y-79482896D01*
X152232570Y-79482580D01*
X152263460Y-79481933D01*
X152288413Y-79480936D01*
X152291900Y-79480741D01*
X152369102Y-79474423D01*
X152445214Y-79464442D01*
X152519216Y-79451034D01*
X152590086Y-79434439D01*
X152656804Y-79414893D01*
X152718347Y-79392635D01*
X152773695Y-79367903D01*
X152777110Y-79366192D01*
X152819040Y-79343655D01*
X152855392Y-79320843D01*
X152887942Y-79296551D01*
X152918465Y-79269573D01*
X152920342Y-79267774D01*
X152951489Y-79234802D01*
X152977108Y-79200753D01*
X152998095Y-79164069D01*
X153015348Y-79123195D01*
X153029764Y-79076576D01*
X153031885Y-79068384D01*
X153034737Y-79055868D01*
X153036778Y-79043712D01*
X153038151Y-79030333D01*
X153039000Y-79014148D01*
X153039469Y-78993573D01*
X153039701Y-78967028D01*
X153039715Y-78963971D01*
X153039324Y-78925528D01*
X153037633Y-78891814D01*
X153034326Y-78860484D01*
X153029090Y-78829197D01*
X153021610Y-78795609D01*
X153011572Y-78757376D01*
X152998165Y-78712026D01*
X152966491Y-78621883D01*
X152927774Y-78530273D01*
X152882172Y-78437554D01*
X152829843Y-78344086D01*
X152829378Y-78343302D01*
X152808335Y-78308269D01*
X152787526Y-78274363D01*
X152767644Y-78242678D01*
X152749381Y-78214305D01*
X152733432Y-78190335D01*
X152720488Y-78171861D01*
X152717312Y-78167439D01*
X152708767Y-78155240D01*
X152698424Y-78140212D01*
X152687864Y-78124642D01*
X152687706Y-78124407D01*
X152677804Y-78110014D01*
X152666234Y-78093678D01*
X152654189Y-78077030D01*
X152642862Y-78061703D01*
X152633445Y-78049328D01*
X152627130Y-78041537D01*
X152626494Y-78041135D01*
X152624033Y-78043608D01*
X152622741Y-78045907D01*
X152617727Y-78053902D01*
X152609519Y-78066624D01*
X152598711Y-78083162D01*
X152585895Y-78102605D01*
X152571664Y-78124041D01*
X152514657Y-78207249D01*
X152413655Y-78344097D01*
X152306918Y-78476103D01*
X152194602Y-78603120D01*
X152076866Y-78725002D01*
X151953866Y-78841601D01*
X151825759Y-78952772D01*
X151692704Y-79058369D01*
X151554858Y-79158243D01*
X151412377Y-79252250D01*
X151265419Y-79340242D01*
X151205691Y-79374257D01*
X147500966Y-79374257D01*
X147481018Y-79363773D01*
X147337131Y-79279992D01*
X147195349Y-79189164D01*
X147140352Y-79151632D01*
X147002025Y-79050963D01*
X146868849Y-78944768D01*
X146740810Y-78833034D01*
X146617896Y-78715751D01*
X146500093Y-78592905D01*
X146387390Y-78464486D01*
X146279772Y-78330480D01*
X146271139Y-78319197D01*
X146170640Y-78181178D01*
X146076642Y-78039361D01*
X145989220Y-77893924D01*
X145908452Y-77745042D01*
X145834413Y-77592892D01*
X145767181Y-77437648D01*
X145706832Y-77279487D01*
X145653442Y-77118585D01*
X145607089Y-76955118D01*
X145567848Y-76789262D01*
X145535797Y-76621192D01*
X145534082Y-76610762D01*
X145528448Y-76573588D01*
X145522608Y-76531146D01*
X145516718Y-76484848D01*
X145510930Y-76436111D01*
X145505399Y-76386348D01*
X145500278Y-76336975D01*
X145495720Y-76289406D01*
X145491879Y-76245055D01*
X145488910Y-76205337D01*
X145486965Y-76171668D01*
X145485667Y-76136748D01*
X145484642Y-76094627D01*
X145483955Y-76048344D01*
X145483605Y-75999571D01*
X145483592Y-75949982D01*
X145483917Y-75901250D01*
X145484580Y-75855046D01*
X145485581Y-75813045D01*
X145486921Y-75776918D01*
X145487936Y-75758177D01*
X145490393Y-75722862D01*
X145493737Y-75682350D01*
X145497816Y-75638044D01*
X145502478Y-75591345D01*
X145507572Y-75543655D01*
X145512946Y-75496376D01*
X145518450Y-75450908D01*
X145523930Y-75408653D01*
X145529236Y-75371013D01*
X145533070Y-75346672D01*
X149474881Y-75346672D01*
X149481529Y-75375883D01*
X149495095Y-75402953D01*
X149515374Y-75427294D01*
X149542161Y-75448323D01*
X149543403Y-75449110D01*
X149553183Y-75455049D01*
X149566744Y-75463014D01*
X149582797Y-75472277D01*
X149600052Y-75482111D01*
X149617220Y-75491788D01*
X149633012Y-75500581D01*
X149646139Y-75507763D01*
X149655311Y-75512605D01*
X149659240Y-75514381D01*
X149662224Y-75515712D01*
X149670082Y-75519984D01*
X149680818Y-75526176D01*
X149683978Y-75528026D01*
X149696495Y-75535229D01*
X149713171Y-75544713D01*
X149732208Y-75555458D01*
X149751813Y-75566446D01*
X149755195Y-75568340D01*
X149777457Y-75581001D01*
X149800830Y-75594576D01*
X149822733Y-75607553D01*
X149840584Y-75618421D01*
X149858579Y-75629387D01*
X149880837Y-75642586D01*
X149904118Y-75656104D01*
X149925578Y-75668275D01*
X149929946Y-75670712D01*
X149948309Y-75680964D01*
X149965237Y-75690420D01*
X149979010Y-75698118D01*
X149987907Y-75703097D01*
X149990836Y-75704774D01*
X150003514Y-75712601D01*
X150014350Y-75720033D01*
X150019414Y-75723540D01*
X150030873Y-75730875D01*
X150045575Y-75739880D01*
X150061569Y-75749341D01*
X150069434Y-75753931D01*
X150090907Y-75766597D01*
X150113461Y-75780051D01*
X150133341Y-75792060D01*
X150148482Y-75801287D01*
X150169794Y-75814272D01*
X150192161Y-75827897D01*
X150212669Y-75840387D01*
X150282026Y-75883287D01*
X150358103Y-75931718D01*
X150370455Y-75939681D01*
X150389440Y-75951902D01*
X150409899Y-75965055D01*
X150429120Y-75977396D01*
X150431702Y-75979056D01*
X150445950Y-75988292D01*
X150464312Y-76000282D01*
X150485744Y-76014337D01*
X150509203Y-76029766D01*
X150533645Y-76045882D01*
X150558028Y-76061994D01*
X150581307Y-76077414D01*
X150602440Y-76091451D01*
X150620382Y-76103417D01*
X150634091Y-76112622D01*
X150642523Y-76118378D01*
X150645610Y-76120497D01*
X150655216Y-76126985D01*
X150669004Y-76136228D01*
X150685630Y-76147325D01*
X150703746Y-76159375D01*
X150751442Y-76191269D01*
X150825289Y-76241674D01*
X150892622Y-76289003D01*
X150901886Y-76295601D01*
X150915753Y-76305398D01*
X150927122Y-76313335D01*
X150934174Y-76318137D01*
X150935133Y-76318774D01*
X150944952Y-76325837D01*
X150955298Y-76333935D01*
X150959766Y-76337436D01*
X150970803Y-76345595D01*
X150984900Y-76355661D01*
X151000083Y-76366210D01*
X151010469Y-76373366D01*
X151023202Y-76382273D01*
X151032722Y-76389095D01*
X151037510Y-76392754D01*
X151038637Y-76393671D01*
X151045279Y-76398626D01*
X151056397Y-76406678D01*
X151070767Y-76416943D01*
X151087163Y-76428539D01*
X151093893Y-76433286D01*
X151109597Y-76444451D01*
X151122765Y-76453934D01*
X151132178Y-76460852D01*
X151136617Y-76464323D01*
X151137025Y-76464699D01*
X151143206Y-76469858D01*
X151151727Y-76476490D01*
X151153773Y-76478036D01*
X151162636Y-76484753D01*
X151175568Y-76494570D01*
X151191170Y-76506424D01*
X151208044Y-76519253D01*
X151212940Y-76522976D01*
X151231046Y-76536722D01*
X151248466Y-76549919D01*
X151263426Y-76561224D01*
X151274150Y-76569295D01*
X151278138Y-76572311D01*
X151290623Y-76581924D01*
X151306637Y-76594406D01*
X151324542Y-76608478D01*
X151342698Y-76622858D01*
X151357857Y-76634910D01*
X151389864Y-76660319D01*
X151417523Y-76682207D01*
X151441915Y-76701429D01*
X151464121Y-76718836D01*
X151485222Y-76735281D01*
X151495893Y-76743612D01*
X151508547Y-76753597D01*
X151518241Y-76761371D01*
X151523466Y-76765732D01*
X151526235Y-76768114D01*
X151534449Y-76774911D01*
X151546011Y-76784317D01*
X151559353Y-76795052D01*
X151568345Y-76802291D01*
X151579727Y-76811594D01*
X151587881Y-76818432D01*
X151591462Y-76821692D01*
X151591605Y-76821856D01*
X151595741Y-76825614D01*
X151604392Y-76833055D01*
X151616388Y-76843183D01*
X151630564Y-76855004D01*
X151638487Y-76861587D01*
X151663244Y-76882298D01*
X151689811Y-76904699D01*
X151717235Y-76927973D01*
X151744566Y-76951306D01*
X151770851Y-76973881D01*
X151795141Y-76994881D01*
X151816482Y-77013491D01*
X151833925Y-77028894D01*
X151846517Y-77040274D01*
X151878268Y-77069364D01*
X151908313Y-77096337D01*
X151937276Y-77121713D01*
X151949074Y-77132046D01*
X151978457Y-77158578D01*
X152011963Y-77189753D01*
X152048932Y-77224918D01*
X152088708Y-77263419D01*
X152130631Y-77304604D01*
X152174043Y-77347819D01*
X152218286Y-77392410D01*
X152262702Y-77437724D01*
X152306633Y-77483108D01*
X152349420Y-77527909D01*
X152390406Y-77571473D01*
X152413566Y-77596568D01*
X152440533Y-77626320D01*
X152468856Y-77658031D01*
X152497605Y-77690635D01*
X152525849Y-77723061D01*
X152552658Y-77754240D01*
X152577101Y-77783105D01*
X152598248Y-77808587D01*
X152615168Y-77829616D01*
X152624516Y-77841453D01*
X152635436Y-77855163D01*
X152644255Y-77866120D01*
X152652159Y-77876090D01*
X152662761Y-77889852D01*
X152673150Y-77903658D01*
X152673508Y-77904140D01*
X152682583Y-77916290D01*
X152694633Y-77932314D01*
X152708130Y-77950186D01*
X152721546Y-77967876D01*
X152728794Y-77977470D01*
X152762723Y-78023789D01*
X152798471Y-78074657D01*
X152834815Y-78128248D01*
X152870532Y-78182733D01*
X152904398Y-78236284D01*
X152935191Y-78287075D01*
X152935459Y-78287529D01*
X152977244Y-78361810D01*
X153015532Y-78437073D01*
X153050001Y-78512476D01*
X153080331Y-78587178D01*
X153106203Y-78660335D01*
X153127296Y-78731106D01*
X153143289Y-78798649D01*
X153153863Y-78862121D01*
X153154512Y-78867536D01*
X153156908Y-78894171D01*
X153158574Y-78924171D01*
X153159469Y-78955365D01*
X153159493Y-78963971D01*
X153159552Y-78985579D01*
X153158782Y-79012642D01*
X153157117Y-79034380D01*
X153156364Y-79040046D01*
X153153467Y-79057212D01*
X153149373Y-79078084D01*
X153144575Y-79100432D01*
X153139560Y-79122024D01*
X153134820Y-79140629D01*
X153130844Y-79154015D01*
X153129615Y-79157569D01*
X153106270Y-79213750D01*
X153076868Y-79265912D01*
X153041274Y-79314199D01*
X152999353Y-79358756D01*
X152950970Y-79399726D01*
X152895992Y-79437254D01*
X152834283Y-79471483D01*
X152818453Y-79479197D01*
X152755235Y-79506284D01*
X152686100Y-79530504D01*
X152612010Y-79551545D01*
X152533929Y-79569094D01*
X152469255Y-79580310D01*
X152388302Y-79590755D01*
X152302835Y-79598269D01*
X152214202Y-79602788D01*
X152123749Y-79604245D01*
X152032823Y-79602576D01*
X151942770Y-79597715D01*
X151893746Y-79594077D01*
X151841083Y-79589947D01*
X151794979Y-79586057D01*
X151754895Y-79582356D01*
X151720289Y-79578799D01*
X151690621Y-79575336D01*
X151689503Y-79575196D01*
X151669427Y-79572721D01*
X151646834Y-79569988D01*
X151626404Y-79567565D01*
X151612019Y-79565789D01*
X151581630Y-79561618D01*
X151546520Y-79556374D01*
X151507799Y-79550255D01*
X151466574Y-79543457D01*
X151423955Y-79536178D01*
X151381050Y-79528614D01*
X151338969Y-79520961D01*
X151298819Y-79513417D01*
X151261710Y-79506179D01*
X151228750Y-79499443D01*
X151201048Y-79493407D01*
X151179713Y-79488266D01*
X151175356Y-79487184D01*
X151163393Y-79484344D01*
X151146632Y-79480452D01*
X151126655Y-79475874D01*
X151105042Y-79470975D01*
X151043593Y-79457123D01*
X150992661Y-79481078D01*
X150983916Y-79485226D01*
X150967248Y-79493345D01*
X150953866Y-79500153D01*
X150944962Y-79505035D01*
X150941729Y-79507375D01*
X150942358Y-79508177D01*
X150948063Y-79510792D01*
X150957784Y-79513661D01*
X150961457Y-79514580D01*
X150973141Y-79517558D01*
X150990175Y-79521938D01*
X151011295Y-79527393D01*
X151035232Y-79533596D01*
X151060721Y-79540222D01*
X151074325Y-79543759D01*
X151118861Y-79555258D01*
X151158107Y-79565222D01*
X151193624Y-79574011D01*
X151226972Y-79581985D01*
X151259713Y-79589505D01*
X151293406Y-79596932D01*
X151329613Y-79604626D01*
X151369893Y-79612948D01*
X151415807Y-79622257D01*
X151436550Y-79626352D01*
X151490978Y-79636427D01*
X151549622Y-79646456D01*
X151610828Y-79656200D01*
X151672943Y-79665417D01*
X151734315Y-79673869D01*
X151793290Y-79681314D01*
X151848216Y-79687513D01*
X151897440Y-79692226D01*
X151913594Y-79693632D01*
X151938749Y-79695919D01*
X151963516Y-79698266D01*
X151984323Y-79700340D01*
X151985906Y-79700491D01*
X151998698Y-79701322D01*
X152017585Y-79702133D01*
X152041518Y-79702910D01*
X152069445Y-79703639D01*
X152100319Y-79704304D01*
X152133088Y-79704893D01*
X152166704Y-79705391D01*
X152200116Y-79705784D01*
X152232274Y-79706057D01*
X152262129Y-79706196D01*
X152288631Y-79706188D01*
X152310730Y-79706017D01*
X152327376Y-79705669D01*
X152337520Y-79705131D01*
X152344890Y-79704428D01*
X152359207Y-79703091D01*
X152377008Y-79701449D01*
X152396039Y-79699710D01*
X152413239Y-79698142D01*
X152436986Y-79695939D01*
X152455697Y-79694110D01*
X152470931Y-79692474D01*
X152484247Y-79690846D01*
X152497205Y-79689044D01*
X152511365Y-79686885D01*
X152528285Y-79684185D01*
X152566638Y-79677708D01*
X152633426Y-79664696D01*
X152694605Y-79650239D01*
X152751409Y-79633966D01*
X152805073Y-79615507D01*
X152856834Y-79594493D01*
X152907925Y-79570553D01*
X152917186Y-79565845D01*
X152942799Y-79552028D01*
X152968807Y-79536993D01*
X152993771Y-79521641D01*
X153016253Y-79506876D01*
X153034813Y-79493599D01*
X153048012Y-79482713D01*
X153048034Y-79482692D01*
X153052923Y-79478414D01*
X153061726Y-79470942D01*
X153072553Y-79461882D01*
X153099715Y-79437870D01*
X153145411Y-79389843D01*
X153185359Y-79337166D01*
X153219453Y-79280120D01*
X153247589Y-79218989D01*
X153269663Y-79154053D01*
X153285569Y-79085595D01*
X153295202Y-79013896D01*
X153298459Y-78939240D01*
X153295235Y-78861908D01*
X153290170Y-78817201D01*
X153280363Y-78759514D01*
X153266726Y-78697833D01*
X153249572Y-78633319D01*
X153229213Y-78567134D01*
X153205962Y-78500440D01*
X153180132Y-78434398D01*
X153152891Y-78371835D01*
X153119493Y-78302236D01*
X153081707Y-78230100D01*
X153039204Y-78154823D01*
X152991655Y-78075800D01*
X152938729Y-77992429D01*
X152922122Y-77967211D01*
X152888121Y-77917193D01*
X152850861Y-77864166D01*
X152811514Y-77809721D01*
X152771254Y-77755450D01*
X152731253Y-77702945D01*
X152692684Y-77653799D01*
X152656720Y-77609603D01*
X152647712Y-77598759D01*
X152631160Y-77578773D01*
X152613970Y-77557961D01*
X152598684Y-77539397D01*
X152587744Y-77526224D01*
X152573406Y-77509300D01*
X152560058Y-77493877D01*
X152549577Y-77482145D01*
X152538427Y-77469897D01*
X152527429Y-77457601D01*
X152519170Y-77448148D01*
X152512559Y-77440527D01*
X152501821Y-77428403D01*
X152490839Y-77416214D01*
X152482412Y-77406922D01*
X152469605Y-77392708D01*
X152458537Y-77380328D01*
X152436797Y-77356161D01*
X152405474Y-77322105D01*
X152370554Y-77284827D01*
X152332903Y-77245211D01*
X152293386Y-77204140D01*
X152252869Y-77162498D01*
X152212216Y-77121168D01*
X152172293Y-77081035D01*
X152133966Y-77042980D01*
X152098099Y-77007889D01*
X152065558Y-76976644D01*
X152037208Y-76950129D01*
X152026436Y-76940200D01*
X152005764Y-76921005D01*
X151984905Y-76901482D01*
X151965784Y-76883436D01*
X151950325Y-76868671D01*
X151945405Y-76863971D01*
X151930047Y-76849627D01*
X151910593Y-76831783D01*
X151887923Y-76811221D01*
X151862916Y-76788720D01*
X151836454Y-76765062D01*
X151809415Y-76741028D01*
X151782680Y-76717398D01*
X151757129Y-76694954D01*
X151733641Y-76674476D01*
X151713097Y-76656745D01*
X151696376Y-76642542D01*
X151684358Y-76632648D01*
X151682737Y-76631334D01*
X151674204Y-76624188D01*
X151661824Y-76613623D01*
X151646997Y-76600839D01*
X151631125Y-76587038D01*
X151631022Y-76586947D01*
X151603606Y-76563393D01*
X151571459Y-76536434D01*
X151535906Y-76507163D01*
X151498277Y-76476673D01*
X151459899Y-76446059D01*
X151448634Y-76437076D01*
X151437048Y-76427666D01*
X151428822Y-76420782D01*
X151425251Y-76417491D01*
X151423671Y-76415783D01*
X151416405Y-76409277D01*
X151404126Y-76398963D01*
X151387488Y-76385357D01*
X151367143Y-76368971D01*
X151343743Y-76350318D01*
X151317941Y-76329912D01*
X151290389Y-76308267D01*
X151261739Y-76285895D01*
X151232644Y-76263310D01*
X151203757Y-76241026D01*
X151175729Y-76219556D01*
X151149214Y-76199414D01*
X151124863Y-76181112D01*
X151115566Y-76174134D01*
X151099303Y-76161820D01*
X151084562Y-76150548D01*
X151080004Y-76147070D01*
X151066388Y-76136849D01*
X151048017Y-76123207D01*
X151025813Y-76106823D01*
X151000703Y-76088378D01*
X150973610Y-76068550D01*
X150945460Y-76048021D01*
X150917175Y-76027469D01*
X150916329Y-76026855D01*
X150901796Y-76016230D01*
X150889650Y-76007205D01*
X150881139Y-76000717D01*
X150877512Y-75997702D01*
X150877122Y-75997306D01*
X150872589Y-75993764D01*
X150863057Y-75986893D01*
X150848271Y-75976513D01*
X150827978Y-75962449D01*
X150801923Y-75944523D01*
X150769852Y-75922559D01*
X150769363Y-75922224D01*
X150751129Y-75909651D01*
X150729506Y-75894590D01*
X150707157Y-75878905D01*
X150686747Y-75864458D01*
X150668402Y-75851406D01*
X150652094Y-75839838D01*
X150637770Y-75829742D01*
X150624252Y-75820303D01*
X150610360Y-75810709D01*
X150594918Y-75800146D01*
X150576746Y-75787800D01*
X150554666Y-75772857D01*
X150527501Y-75754504D01*
X150510349Y-75742945D01*
X150488630Y-75728379D01*
X150469002Y-75715292D01*
X150452504Y-75704375D01*
X150440178Y-75696319D01*
X150433063Y-75691814D01*
X150432299Y-75691352D01*
X150422996Y-75685484D01*
X150409361Y-75676633D01*
X150393107Y-75665917D01*
X150375945Y-75654456D01*
X150367244Y-75648619D01*
X150334234Y-75626677D01*
X150300856Y-75604781D01*
X150268426Y-75583779D01*
X150238263Y-75564521D01*
X150211683Y-75547857D01*
X150190004Y-75534634D01*
X150179251Y-75528132D01*
X150162504Y-75517728D01*
X150147695Y-75508217D01*
X150137119Y-75501056D01*
X150129155Y-75495685D01*
X150115641Y-75487005D01*
X150098319Y-75476140D01*
X150078573Y-75463958D01*
X150057791Y-75451329D01*
X150041451Y-75441428D01*
X150017439Y-75426732D01*
X149993800Y-75412116D01*
X149972574Y-75398842D01*
X149955798Y-75388173D01*
X149953770Y-75386867D01*
X149931072Y-75372491D01*
X149905235Y-75356493D01*
X149877057Y-75339337D01*
X149847339Y-75321487D01*
X149816877Y-75303406D01*
X149786470Y-75285558D01*
X149756918Y-75268407D01*
X149729019Y-75252417D01*
X149703571Y-75238051D01*
X149681373Y-75225773D01*
X149663223Y-75216047D01*
X149649921Y-75209337D01*
X149642265Y-75206106D01*
X149622273Y-75202060D01*
X149593382Y-75201980D01*
X149565181Y-75208065D01*
X149538900Y-75219723D01*
X149515768Y-75236363D01*
X149497015Y-75257395D01*
X149483872Y-75282227D01*
X149483162Y-75284161D01*
X149475357Y-75315902D01*
X149474881Y-75346672D01*
X145533070Y-75346672D01*
X145534217Y-75339389D01*
X145549142Y-75256420D01*
X145583183Y-75095259D01*
X145623404Y-74936571D01*
X145669600Y-74781067D01*
X145697924Y-74698438D01*
X147533844Y-74698438D01*
X147534041Y-74717994D01*
X147536195Y-74750212D01*
X147540277Y-74785271D01*
X147545971Y-74821439D01*
X147552960Y-74856983D01*
X147560926Y-74890170D01*
X147569552Y-74919267D01*
X147578522Y-74942543D01*
X147583388Y-74952677D01*
X147592710Y-74970325D01*
X147602957Y-74988123D01*
X147613074Y-75004334D01*
X147622003Y-75017220D01*
X147628689Y-75025047D01*
X147633565Y-75029243D01*
X147636013Y-75029596D01*
X147636405Y-75024601D01*
X147636388Y-75024028D01*
X147635246Y-75016102D01*
X147632666Y-75003640D01*
X147629144Y-74989073D01*
X147624025Y-74967352D01*
X147617238Y-74926435D01*
X147614918Y-74889024D01*
X147617176Y-74856330D01*
X147619725Y-74842305D01*
X147625168Y-74821961D01*
X147631717Y-74806104D01*
X147638934Y-74795494D01*
X147646381Y-74790892D01*
X147653622Y-74793056D01*
X147657672Y-74796976D01*
X147668205Y-74811803D01*
X147679430Y-74833757D01*
X147691241Y-74862566D01*
X147703533Y-74897961D01*
X147716200Y-74939668D01*
X147729138Y-74987417D01*
X147731035Y-74994439D01*
X147744294Y-75033025D01*
X147762113Y-75072314D01*
X147783135Y-75109242D01*
X147788901Y-75117583D01*
X147796747Y-75126269D01*
X147802450Y-75129175D01*
X147805394Y-75126088D01*
X147804966Y-75116797D01*
X147801269Y-75094136D01*
X147799696Y-75076101D01*
X147800611Y-75064143D01*
X147804006Y-75057715D01*
X147806073Y-75056216D01*
X147814429Y-75054162D01*
X147824160Y-75058004D01*
X147835835Y-75068075D01*
X147850024Y-75084711D01*
X147860421Y-75097678D01*
X147877089Y-75117226D01*
X147893559Y-75135225D01*
X147908749Y-75150551D01*
X147921574Y-75162080D01*
X147930952Y-75168687D01*
X147931974Y-75169230D01*
X147939359Y-75174183D01*
X147942384Y-75178143D01*
X147942967Y-75179546D01*
X147947989Y-75184776D01*
X147956482Y-75191267D01*
X147959103Y-75193000D01*
X147970014Y-75198964D01*
X147977426Y-75200863D01*
X147980159Y-75198346D01*
X147980084Y-75197800D01*
X147977471Y-75191731D01*
X147971979Y-75181756D01*
X147964782Y-75169832D01*
X147957053Y-75157915D01*
X147949964Y-75147962D01*
X147947443Y-75144523D01*
X147939397Y-75132307D01*
X147930269Y-75117165D01*
X147921091Y-75100955D01*
X147912895Y-75085532D01*
X147906714Y-75072755D01*
X147903578Y-75064481D01*
X147903529Y-75064278D01*
X147901380Y-75056986D01*
X147897305Y-75044378D01*
X147891871Y-75028171D01*
X147885643Y-75010083D01*
X147879531Y-74991367D01*
X147874351Y-74973211D01*
X147870753Y-74957983D01*
X147869279Y-74947754D01*
X147869158Y-74942750D01*
X147869775Y-74934619D01*
X147872625Y-74930959D01*
X147878859Y-74929584D01*
X147879448Y-74929521D01*
X147891794Y-74930843D01*
X147904462Y-74937595D01*
X147918213Y-74950333D01*
X147933807Y-74969609D01*
X147940004Y-74977884D01*
X147958036Y-75000525D01*
X147974522Y-75019085D01*
X147988706Y-75032751D01*
X147999831Y-75040709D01*
X148006282Y-75044735D01*
X148017157Y-75052820D01*
X148028578Y-75062356D01*
X148030367Y-75063920D01*
X148043548Y-75074295D01*
X148058165Y-75084246D01*
X148072954Y-75093111D01*
X148086653Y-75100226D01*
X148098001Y-75104926D01*
X148105736Y-75106549D01*
X148108594Y-75104430D01*
X148108219Y-75103551D01*
X148104507Y-75097824D01*
X148097672Y-75088214D01*
X148088762Y-75076216D01*
X148087139Y-75074049D01*
X148073478Y-75054170D01*
X148059892Y-75031187D01*
X148045617Y-75003728D01*
X148029889Y-74970419D01*
X148024012Y-74957550D01*
X148015212Y-74938364D01*
X148007204Y-74920986D01*
X148002832Y-74910511D01*
X147996343Y-74892568D01*
X147989715Y-74872073D01*
X147983855Y-74851720D01*
X147981898Y-74844176D01*
X147975886Y-74815527D01*
X147973488Y-74790459D01*
X147974601Y-74766559D01*
X147979120Y-74741413D01*
X147981286Y-74734549D01*
X147991595Y-74718542D01*
X148008049Y-74705701D01*
X148029868Y-74696711D01*
X148031808Y-74696183D01*
X148055885Y-74692978D01*
X148079068Y-74696457D01*
X148101815Y-74706824D01*
X148124584Y-74724282D01*
X148147832Y-74749033D01*
X148163277Y-74768786D01*
X148179437Y-74792219D01*
X148195775Y-74818984D01*
X148212844Y-74850041D01*
X148231195Y-74886349D01*
X148251381Y-74928866D01*
X148253492Y-74933885D01*
X148258015Y-74946502D01*
X148263179Y-74962575D01*
X148268560Y-74980583D01*
X148273738Y-74999005D01*
X148278290Y-75016321D01*
X148281795Y-75031007D01*
X148283831Y-75041544D01*
X148283976Y-75046410D01*
X148283613Y-75047842D01*
X148284132Y-75055219D01*
X148286380Y-75065714D01*
X148290739Y-75081855D01*
X148304492Y-75066417D01*
X148315963Y-75054631D01*
X148327060Y-75046878D01*
X148339325Y-75043153D01*
X148355410Y-75042191D01*
X148356856Y-75042193D01*
X148364458Y-75042383D01*
X148371221Y-75043261D01*
X148378370Y-75045350D01*
X148387131Y-75049172D01*
X148398731Y-75055249D01*
X148414395Y-75064105D01*
X148435349Y-75076261D01*
X148437210Y-75077365D01*
X148447584Y-75084345D01*
X148459225Y-75093700D01*
X148473400Y-75106507D01*
X148491376Y-75123842D01*
X148497287Y-75129348D01*
X148508359Y-75137806D01*
X148516711Y-75141755D01*
X148521555Y-75141131D01*
X148522106Y-75135873D01*
X148517576Y-75125918D01*
X148516973Y-75124908D01*
X148511889Y-75116426D01*
X148504045Y-75103381D01*
X148494395Y-75087358D01*
X148483895Y-75069945D01*
X148475692Y-75056204D01*
X148458969Y-75026800D01*
X148446598Y-75002453D01*
X148438384Y-74982514D01*
X148434133Y-74966336D01*
X148433652Y-74953269D01*
X148436746Y-74942663D01*
X148443222Y-74933871D01*
X148449183Y-74928572D01*
X148455104Y-74925948D01*
X148463489Y-74925458D01*
X148476848Y-74926555D01*
X148488152Y-74927937D01*
X148501876Y-74930177D01*
X148511473Y-74932398D01*
X148520713Y-74935087D01*
X148532106Y-74937940D01*
X148537615Y-74940179D01*
X148547833Y-74946685D01*
X148558548Y-74955485D01*
X148565158Y-74961629D01*
X148579167Y-74974654D01*
X148592116Y-74986696D01*
X148594331Y-74988799D01*
X148605721Y-75000393D01*
X148618836Y-75014649D01*
X148631261Y-75028959D01*
X148636401Y-75035091D01*
X148654014Y-75055927D01*
X148667599Y-75071625D01*
X148677716Y-75082788D01*
X148684926Y-75090016D01*
X148689789Y-75093912D01*
X148692867Y-75095077D01*
X148695511Y-75093796D01*
X148697648Y-75087907D01*
X148697121Y-75080105D01*
X148693792Y-75073606D01*
X148693499Y-75073266D01*
X148690428Y-75067001D01*
X148686489Y-75055837D01*
X148682460Y-75041941D01*
X148677911Y-75022121D01*
X148675289Y-75000256D01*
X148676938Y-74984208D01*
X148682968Y-74973662D01*
X148693491Y-74968306D01*
X148708616Y-74967824D01*
X148711940Y-74968197D01*
X148743099Y-74973831D01*
X148769659Y-74982600D01*
X148770200Y-74982833D01*
X148785144Y-74988910D01*
X148803150Y-74995495D01*
X148826322Y-75003359D01*
X148834138Y-75006200D01*
X148849352Y-75012513D01*
X148864097Y-75019384D01*
X148864487Y-75019578D01*
X148879138Y-75026159D01*
X148894151Y-75031746D01*
X148907719Y-75035799D01*
X148918037Y-75037776D01*
X148923298Y-75037135D01*
X148923246Y-75036621D01*
X148919765Y-75031859D01*
X148911858Y-75022909D01*
X148900279Y-75010579D01*
X148885780Y-74995676D01*
X148869114Y-74979007D01*
X148848896Y-74958642D01*
X148825206Y-74933272D01*
X148807294Y-74911861D01*
X148794967Y-74894124D01*
X148788032Y-74879773D01*
X148786298Y-74868519D01*
X148789572Y-74860076D01*
X148794999Y-74855208D01*
X148808959Y-74849234D01*
X148827445Y-74846423D01*
X148848910Y-74846948D01*
X148871803Y-74850979D01*
X148884396Y-74854048D01*
X148903533Y-74857984D01*
X148915699Y-74859242D01*
X148920958Y-74857815D01*
X148919374Y-74853697D01*
X148911013Y-74846881D01*
X148897775Y-74836971D01*
X148881259Y-74822965D01*
X148866018Y-74808438D01*
X148853706Y-74794984D01*
X148845978Y-74784198D01*
X148842836Y-74777296D01*
X148839392Y-74760696D01*
X148840974Y-74744799D01*
X148847509Y-74732138D01*
X148849158Y-74730162D01*
X148852835Y-74722816D01*
X148849881Y-74719003D01*
X148840487Y-74719081D01*
X148806180Y-74722639D01*
X148770893Y-74720431D01*
X148737156Y-74711512D01*
X148703553Y-74695639D01*
X148698836Y-74692900D01*
X148682248Y-74682102D01*
X148670323Y-74671732D01*
X148661056Y-74660115D01*
X148656640Y-74653026D01*
X148650069Y-74637834D01*
X148648791Y-74624135D01*
X148653088Y-74611727D01*
X148663244Y-74600410D01*
X148679542Y-74589984D01*
X148702263Y-74580248D01*
X148731690Y-74571001D01*
X148768107Y-74562044D01*
X148811795Y-74553175D01*
X148830901Y-74549387D01*
X148852740Y-74544247D01*
X148867131Y-74539628D01*
X148874056Y-74535540D01*
X148873499Y-74531997D01*
X148865443Y-74529010D01*
X148849872Y-74526590D01*
X148831241Y-74524388D01*
X148805898Y-74520952D01*
X148782265Y-74517275D01*
X148761793Y-74513603D01*
X148745936Y-74510183D01*
X148736144Y-74507263D01*
X148735292Y-74506918D01*
X148724336Y-74503434D01*
X148715368Y-74501993D01*
X148710119Y-74501224D01*
X148698052Y-74496085D01*
X148686050Y-74487713D01*
X148677115Y-74477991D01*
X148673545Y-74471457D01*
X148673311Y-74465177D01*
X148676834Y-74456090D01*
X148677207Y-74455284D01*
X148682553Y-74444792D01*
X148687422Y-74436737D01*
X148689960Y-74430464D01*
X148686348Y-74426769D01*
X148676164Y-74425754D01*
X148659129Y-74427327D01*
X148635792Y-74430537D01*
X148613461Y-74433577D01*
X148594613Y-74436087D01*
X148577084Y-74438353D01*
X148558715Y-74440657D01*
X148537342Y-74443283D01*
X148516587Y-74445396D01*
X148488927Y-74447400D01*
X148460620Y-74448755D01*
X148435349Y-74449245D01*
X148429682Y-74449232D01*
X148409986Y-74448961D01*
X148392919Y-74448161D01*
X148376481Y-74446608D01*
X148358672Y-74444075D01*
X148337493Y-74440335D01*
X148310942Y-74435161D01*
X148305915Y-74433515D01*
X148294665Y-74428467D01*
X148280239Y-74421073D01*
X148264541Y-74412272D01*
X148263447Y-74411630D01*
X148242189Y-74397892D01*
X148227797Y-74385292D01*
X148219905Y-74372883D01*
X148218145Y-74359719D01*
X148222150Y-74344855D01*
X148231551Y-74327344D01*
X148244803Y-74310367D01*
X148263732Y-74293656D01*
X148288521Y-74277450D01*
X148319728Y-74261385D01*
X148357910Y-74245099D01*
X148376415Y-74238698D01*
X148412375Y-74230119D01*
X148450967Y-74224998D01*
X148489938Y-74223483D01*
X148527035Y-74225722D01*
X148560007Y-74231862D01*
X148565025Y-74232385D01*
X148573116Y-74230282D01*
X148574735Y-74228760D01*
X148574665Y-74225018D01*
X148570262Y-74218861D01*
X148560810Y-74209055D01*
X148555195Y-74203335D01*
X148544748Y-74190557D01*
X148540419Y-74180346D01*
X148541957Y-74171727D01*
X148549110Y-74163726D01*
X148550877Y-74162359D01*
X148568682Y-74153478D01*
X148590284Y-74149621D01*
X148613715Y-74151170D01*
X148619110Y-74152043D01*
X148631884Y-74152893D01*
X148639764Y-74151440D01*
X148642798Y-74149322D01*
X148642887Y-74145977D01*
X148637507Y-74140233D01*
X148629501Y-74134519D01*
X148619130Y-74130110D01*
X148611996Y-74127837D01*
X148599870Y-74123040D01*
X148586450Y-74117051D01*
X148570290Y-74110114D01*
X148547287Y-74103159D01*
X148522480Y-74099450D01*
X148493150Y-74098444D01*
X148488026Y-74098427D01*
X148463215Y-74097030D01*
X148442058Y-74093639D01*
X148425824Y-74088523D01*
X148415783Y-74081953D01*
X148413081Y-74077817D01*
X148412840Y-74068242D01*
X148419551Y-74057691D01*
X148432952Y-74046705D01*
X148443566Y-74040661D01*
X148459051Y-74034582D01*
X148478392Y-74029705D01*
X148502819Y-74025733D01*
X148533564Y-74022367D01*
X148549119Y-74020912D01*
X148569864Y-74018819D01*
X148584729Y-74016997D01*
X148594748Y-74015248D01*
X148600957Y-74013374D01*
X148604391Y-74011174D01*
X148606086Y-74008452D01*
X148605982Y-74003009D01*
X148600352Y-73997925D01*
X148590197Y-73995878D01*
X148586392Y-73995252D01*
X148576442Y-73991809D01*
X148564872Y-73986376D01*
X148558101Y-73983010D01*
X148547440Y-73978639D01*
X148540348Y-73976925D01*
X148534140Y-73975388D01*
X148523456Y-73971067D01*
X148510899Y-73964938D01*
X148499080Y-73959148D01*
X148485396Y-73953407D01*
X148475013Y-73950087D01*
X148473696Y-73949798D01*
X148460343Y-73946686D01*
X148446682Y-73943276D01*
X148436651Y-73941111D01*
X148409342Y-73939780D01*
X148383883Y-73945254D01*
X148363572Y-73952808D01*
X148312640Y-73972289D01*
X148264354Y-73991517D01*
X148221024Y-74009579D01*
X148211640Y-74013266D01*
X148195219Y-74017275D01*
X148177583Y-74017731D01*
X148155813Y-74016597D01*
X148156794Y-73998011D01*
X148157308Y-73992584D01*
X148160172Y-73979168D01*
X148164406Y-73968950D01*
X148166956Y-73965287D01*
X148180144Y-73951253D01*
X148198699Y-73936325D01*
X148221162Y-73921492D01*
X148246073Y-73907745D01*
X148271972Y-73896071D01*
X148279710Y-73892122D01*
X148285318Y-73886359D01*
X148284751Y-73881283D01*
X148277638Y-73878072D01*
X148272448Y-73877582D01*
X148259495Y-73877378D01*
X148241771Y-73877724D01*
X148220924Y-73878531D01*
X148198599Y-73879708D01*
X148176446Y-73881165D01*
X148156110Y-73882811D01*
X148139240Y-73884555D01*
X148127482Y-73886309D01*
X148122042Y-73887422D01*
X148072874Y-73900263D01*
X148027842Y-73917544D01*
X147986209Y-73939784D01*
X147947235Y-73967501D01*
X147910182Y-74001213D01*
X147874311Y-74041438D01*
X147864615Y-74054372D01*
X147838883Y-74088695D01*
X147833252Y-74097228D01*
X147823673Y-74112515D01*
X147811128Y-74133043D01*
X147796029Y-74158110D01*
X147778793Y-74187010D01*
X147759832Y-74219041D01*
X147739559Y-74253498D01*
X147718391Y-74289678D01*
X147696739Y-74326877D01*
X147675018Y-74364391D01*
X147653642Y-74401517D01*
X147633025Y-74437550D01*
X147613580Y-74471787D01*
X147612021Y-74474542D01*
X147602786Y-74490780D01*
X147592182Y-74509338D01*
X147582206Y-74526720D01*
X147563945Y-74563601D01*
X147548240Y-74607985D01*
X147537986Y-74653713D01*
X147533844Y-74698438D01*
X145697924Y-74698438D01*
X145721569Y-74629459D01*
X145779107Y-74482459D01*
X145820180Y-74387787D01*
X145889725Y-74241829D01*
X145965948Y-74097707D01*
X146048317Y-73956409D01*
X146136300Y-73818922D01*
X146166057Y-73774506D01*
X146118341Y-73747217D01*
X146095995Y-73734432D01*
X146054198Y-73710475D01*
X146017262Y-73689237D01*
X145984029Y-73670048D01*
X145953341Y-73652240D01*
X145924042Y-73635143D01*
X145894971Y-73618087D01*
X145873549Y-73605522D01*
X145850439Y-73592038D01*
X145828666Y-73579399D01*
X145809950Y-73568605D01*
X145796016Y-73560655D01*
X145787507Y-73555732D01*
X145767703Y-73543693D01*
X145746768Y-73530369D01*
X145728020Y-73517850D01*
X145719257Y-73511822D01*
X145699085Y-73498046D01*
X145678483Y-73484085D01*
X145660766Y-73472189D01*
X145652731Y-73466770D01*
X145637583Y-73456243D01*
X145624428Y-73446729D01*
X145615435Y-73439778D01*
X145597184Y-73425075D01*
X145575025Y-73408008D01*
X145551400Y-73390457D01*
X145549650Y-73389155D01*
X145538512Y-73380251D01*
X145523213Y-73367366D01*
X145504854Y-73351487D01*
X145484536Y-73333603D01*
X145463360Y-73314701D01*
X145442425Y-73295767D01*
X145422833Y-73277791D01*
X145405684Y-73261758D01*
X145392079Y-73248657D01*
X145383118Y-73239475D01*
X145374632Y-73230028D01*
X145342860Y-73192253D01*
X145315496Y-73155674D01*
X145293206Y-73121228D01*
X145276656Y-73089851D01*
X145269712Y-73073435D01*
X145257360Y-73032849D01*
X145252450Y-72993483D01*
X145252710Y-72989569D01*
X145378212Y-72989569D01*
X145383309Y-73014009D01*
X145394985Y-73041513D01*
X145413292Y-73072312D01*
X145418284Y-73079607D01*
X145439768Y-73107914D01*
X145465957Y-73138670D01*
X145495589Y-73170552D01*
X145527400Y-73202242D01*
X145560129Y-73232417D01*
X145592512Y-73259757D01*
X145601369Y-73266854D01*
X145626025Y-73286553D01*
X145646495Y-73302766D01*
X145664061Y-73316457D01*
X145680002Y-73328593D01*
X145695599Y-73340139D01*
X145712131Y-73352060D01*
X145730879Y-73365322D01*
X145753123Y-73380891D01*
X145756382Y-73383165D01*
X145766784Y-73390404D01*
X145776813Y-73397331D01*
X145786757Y-73404117D01*
X145796905Y-73410931D01*
X145807545Y-73417944D01*
X145818965Y-73425326D01*
X145831453Y-73433248D01*
X145845297Y-73441881D01*
X145860786Y-73451394D01*
X145878207Y-73461958D01*
X145897849Y-73473743D01*
X145920000Y-73486921D01*
X145944948Y-73501661D01*
X145972980Y-73518133D01*
X146004386Y-73536508D01*
X146039454Y-73556957D01*
X146078471Y-73579650D01*
X146121726Y-73604757D01*
X146169506Y-73632449D01*
X146222101Y-73662896D01*
X146279798Y-73696268D01*
X146342885Y-73732736D01*
X146411650Y-73772471D01*
X146486382Y-73815642D01*
X146567369Y-73862420D01*
X146570458Y-73864205D01*
X146608357Y-73886093D01*
X146645412Y-73907490D01*
X146680909Y-73927986D01*
X146714136Y-73947168D01*
X146744383Y-73964626D01*
X146770936Y-73979950D01*
X146793083Y-73992727D01*
X146810113Y-74002547D01*
X146821313Y-74008998D01*
X146825193Y-74011240D01*
X146841376Y-74020786D01*
X146854961Y-74029107D01*
X146864619Y-74035375D01*
X146869024Y-74038762D01*
X146870178Y-74040719D01*
X146872362Y-74045135D01*
X146875725Y-74052371D01*
X146880431Y-74062800D01*
X146886644Y-74076798D01*
X146894528Y-74094740D01*
X146904246Y-74117000D01*
X146915961Y-74143953D01*
X146929839Y-74175974D01*
X146946041Y-74213439D01*
X146964733Y-74256721D01*
X146986077Y-74306196D01*
X147010237Y-74362239D01*
X147021630Y-74388780D01*
X147033621Y-74416773D01*
X147043440Y-74439292D01*
X147051639Y-74457112D01*
X147058769Y-74471007D01*
X147065383Y-74481753D01*
X147072033Y-74490123D01*
X147079271Y-74496893D01*
X147087649Y-74502838D01*
X147097720Y-74508731D01*
X147110036Y-74515348D01*
X147125148Y-74523464D01*
X147135397Y-74529057D01*
X147157313Y-74540977D01*
X147178630Y-74552522D01*
X147197340Y-74562607D01*
X147211435Y-74570144D01*
X147217757Y-74573530D01*
X147230721Y-74580665D01*
X147240463Y-74586295D01*
X147245244Y-74589427D01*
X147246985Y-74590688D01*
X147257131Y-74592424D01*
X147271892Y-74588853D01*
X147290763Y-74580080D01*
X147295027Y-74577766D01*
X147311518Y-74568963D01*
X147334639Y-74556778D01*
X147364313Y-74541250D01*
X147400466Y-74522418D01*
X147443025Y-74500321D01*
X147491915Y-74474998D01*
X147507989Y-74466560D01*
X147526618Y-74456464D01*
X147542392Y-74447566D01*
X147554014Y-74440601D01*
X147560188Y-74436304D01*
X147562716Y-74433596D01*
X147569711Y-74424229D01*
X147578288Y-74411135D01*
X147587136Y-74396262D01*
X147587519Y-74395584D01*
X147593873Y-74384477D01*
X147603447Y-74367879D01*
X147615689Y-74346739D01*
X147630050Y-74322003D01*
X147645981Y-74294618D01*
X147662932Y-74265532D01*
X147680351Y-74235692D01*
X147755397Y-74107257D01*
X147755397Y-74054372D01*
X147755387Y-74050895D01*
X147755126Y-74031827D01*
X147754547Y-74007066D01*
X147753698Y-73978114D01*
X147752625Y-73946473D01*
X147751376Y-73913644D01*
X147749995Y-73881130D01*
X147748775Y-73854617D01*
X147747303Y-73825270D01*
X147745952Y-73802166D01*
X147744654Y-73784554D01*
X147743343Y-73771687D01*
X147741952Y-73762816D01*
X147740414Y-73757191D01*
X147738663Y-73754064D01*
X147734568Y-73750792D01*
X147724741Y-73744001D01*
X147710221Y-73734438D01*
X147691931Y-73722700D01*
X147670796Y-73709386D01*
X147647738Y-73695095D01*
X147623252Y-73680094D01*
X147602433Y-73667530D01*
X147586318Y-73658131D01*
X147574033Y-73651452D01*
X147564706Y-73647047D01*
X147557464Y-73644470D01*
X147551435Y-73643276D01*
X147545745Y-73643019D01*
X147542527Y-73643145D01*
X147530806Y-73644029D01*
X147513547Y-73645640D01*
X147492082Y-73647843D01*
X147467743Y-73650504D01*
X147441863Y-73653489D01*
X147438691Y-73653864D01*
X147408352Y-73657440D01*
X147376015Y-73661231D01*
X147344054Y-73664960D01*
X147314845Y-73668349D01*
X147290763Y-73671121D01*
X147270091Y-73673487D01*
X147240642Y-73676860D01*
X147208579Y-73680536D01*
X147176567Y-73684207D01*
X147147272Y-73687569D01*
X147141263Y-73688257D01*
X147116017Y-73691082D01*
X147096963Y-73693023D01*
X147083016Y-73694119D01*
X147073092Y-73694410D01*
X147066106Y-73693935D01*
X147060974Y-73692733D01*
X147056611Y-73690843D01*
X147054839Y-73689894D01*
X147046184Y-73685055D01*
X147031460Y-73676691D01*
X147010995Y-73664987D01*
X146985113Y-73650133D01*
X146954140Y-73632316D01*
X146918402Y-73611723D01*
X146878225Y-73588543D01*
X146833934Y-73562963D01*
X146785854Y-73535171D01*
X146734312Y-73505354D01*
X146679633Y-73473701D01*
X146622143Y-73440398D01*
X146606703Y-73431454D01*
X146568901Y-73409574D01*
X146527738Y-73385766D01*
X146485191Y-73361176D01*
X146443242Y-73336947D01*
X146403868Y-73314223D01*
X146369049Y-73294148D01*
X146353152Y-73284984D01*
X146317655Y-73264504D01*
X146279979Y-73242743D01*
X146241870Y-73220713D01*
X146205073Y-73199421D01*
X146171334Y-73179877D01*
X146142398Y-73163092D01*
X146136454Y-73159646D01*
X146108910Y-73143847D01*
X146081687Y-73128476D01*
X146056022Y-73114217D01*
X146033151Y-73101753D01*
X146014312Y-73091764D01*
X146000742Y-73084935D01*
X145990258Y-73079904D01*
X145967494Y-73068853D01*
X145944209Y-73057414D01*
X145924081Y-73047391D01*
X145911609Y-73041287D01*
X145897470Y-73034815D01*
X145886703Y-73030406D01*
X145880971Y-73028777D01*
X145878003Y-73028226D01*
X145869116Y-73024736D01*
X145858339Y-73019095D01*
X145852743Y-73016013D01*
X145837292Y-73008608D01*
X145822121Y-73002497D01*
X145820423Y-73001896D01*
X145806386Y-72996743D01*
X145789201Y-72990213D01*
X145772202Y-72983571D01*
X145768374Y-72982061D01*
X145752624Y-72976076D01*
X145738531Y-72971034D01*
X145728761Y-72967899D01*
X145715594Y-72963856D01*
X145702318Y-72959220D01*
X145697540Y-72957437D01*
X145662953Y-72945998D01*
X145625384Y-72935760D01*
X145586797Y-72927123D01*
X145549158Y-72920488D01*
X145514431Y-72916255D01*
X145484582Y-72914825D01*
X145454115Y-72916170D01*
X145429791Y-72920181D01*
X145410922Y-72927178D01*
X145396644Y-72937482D01*
X145386091Y-72951415D01*
X145379642Y-72967966D01*
X145378212Y-72989569D01*
X145252710Y-72989569D01*
X145254986Y-72955272D01*
X145264967Y-72918150D01*
X145282397Y-72882052D01*
X145294362Y-72863889D01*
X145314932Y-72840611D01*
X145339073Y-72822409D01*
X145367956Y-72808464D01*
X145402753Y-72797958D01*
X145412025Y-72795858D01*
X145424978Y-72793482D01*
X145438008Y-72792036D01*
X145452981Y-72791402D01*
X145471763Y-72791463D01*
X145496220Y-72792104D01*
X145497185Y-72792135D01*
X145528246Y-72793365D01*
X145553996Y-72795024D01*
X145576619Y-72797391D01*
X145598296Y-72800748D01*
X145621210Y-72805374D01*
X145647544Y-72811551D01*
X145670586Y-72817632D01*
X145699879Y-72826206D01*
X145731966Y-72836282D01*
X145765406Y-72847360D01*
X145798761Y-72858939D01*
X145830590Y-72870518D01*
X145859454Y-72881597D01*
X145883913Y-72891673D01*
X145902526Y-72900248D01*
X145910088Y-72903796D01*
X145923888Y-72909712D01*
X145938413Y-72915477D01*
X145948369Y-72919487D01*
X145965373Y-72927108D01*
X145979965Y-72934472D01*
X145980724Y-72934888D01*
X145994190Y-72941718D01*
X146010993Y-72949553D01*
X146027679Y-72956779D01*
X146041100Y-72962806D01*
X146059753Y-72972021D01*
X146080045Y-72982695D01*
X146099452Y-72993538D01*
X146112265Y-73000948D01*
X146133640Y-73013284D01*
X146157894Y-73027260D01*
X146182921Y-73041662D01*
X146206616Y-73055279D01*
X146220995Y-73063542D01*
X146248709Y-73079502D01*
X146277960Y-73096379D01*
X146306049Y-73112617D01*
X146330279Y-73126659D01*
X146339458Y-73131985D01*
X146366067Y-73147404D01*
X146394861Y-73164064D01*
X146422934Y-73180285D01*
X146447382Y-73194387D01*
X146461904Y-73202781D01*
X146481372Y-73214119D01*
X146498694Y-73224302D01*
X146512400Y-73232464D01*
X146521019Y-73237738D01*
X146526690Y-73241215D01*
X146535355Y-73245997D01*
X146540112Y-73247873D01*
X146542972Y-73248878D01*
X146550827Y-73253020D01*
X146561205Y-73259275D01*
X146579185Y-73270678D01*
X146651660Y-73201193D01*
X146704203Y-73151446D01*
X146768974Y-73092080D01*
X146832075Y-73036624D01*
X146895004Y-72983800D01*
X146959259Y-72932325D01*
X147026337Y-72880921D01*
X147111886Y-72818490D01*
X147253084Y-72722930D01*
X147398017Y-72633829D01*
X147546455Y-72551295D01*
X147698164Y-72475435D01*
X147852913Y-72406355D01*
X148010470Y-72344163D01*
X148170605Y-72288966D01*
X148333085Y-72240872D01*
X148497678Y-72199988D01*
X148508181Y-72197636D01*
X148571729Y-72183923D01*
X148632470Y-72171803D01*
X148691884Y-72161050D01*
X148751452Y-72151437D01*
X148812654Y-72142738D01*
X148876969Y-72134725D01*
X148945879Y-72127173D01*
X149020864Y-72119853D01*
X149039090Y-72118182D01*
X149061650Y-72116202D01*
X149082295Y-72114552D01*
X149101972Y-72113199D01*
X149121628Y-72112112D01*
X149142209Y-72111261D01*
X149164664Y-72110613D01*
X149189938Y-72110137D01*
X149218979Y-72109802D01*
X149252735Y-72109576D01*
X149292151Y-72109427D01*
X149338175Y-72109325D01*
X149380727Y-72109315D01*
X149434051Y-72109510D01*
X149482751Y-72109936D01*
X149526242Y-72110582D01*
X149563938Y-72111440D01*
X149595252Y-72112500D01*
X149619600Y-72113754D01*
X149696075Y-72119595D01*
X149853434Y-72136866D01*
X150011609Y-72161129D01*
X150169839Y-72192176D01*
X150327363Y-72229803D01*
X150483421Y-72273802D01*
X150637251Y-72323967D01*
X150788093Y-72380091D01*
X150935186Y-72441969D01*
X151077768Y-72509393D01*
X151218110Y-72583347D01*
X151363336Y-72667916D01*
X151504981Y-72758771D01*
X151642660Y-72855614D01*
X151775990Y-72958151D01*
X151904585Y-73066083D01*
X152028060Y-73179115D01*
X152146031Y-73296950D01*
X152258114Y-73419292D01*
X152307180Y-73476421D01*
X152414236Y-73609252D01*
X152515145Y-73746202D01*
X152609793Y-73887034D01*
X152698067Y-74031514D01*
X152779853Y-74179404D01*
X152855036Y-74330468D01*
X152923502Y-74484470D01*
X152985138Y-74641175D01*
X153039830Y-74800345D01*
X153087463Y-74961746D01*
X153106131Y-75037135D01*
X153127924Y-75125140D01*
G37*
%TD*%
M02*
