%TF.GenerationSoftware,KiCad,Pcbnew,9.0.1*%
%TF.CreationDate,2025-05-21T17:24:49-04:00*%
%TF.ProjectId,control-module,636f6e74-726f-46c2-9d6d-6f64756c652e,rev?*%
%TF.SameCoordinates,Original*%
%TF.FileFunction,Legend,Top*%
%TF.FilePolarity,Positive*%
%FSLAX46Y46*%
G04 Gerber Fmt 4.6, Leading zero omitted, Abs format (unit mm)*
G04 Created by KiCad (PCBNEW 9.0.1) date 2025-05-21 17:24:49*
%MOMM*%
%LPD*%
G01*
G04 APERTURE LIST*
%ADD10C,0.112486*%
%ADD11C,0.150000*%
%ADD12C,0.120000*%
G04 APERTURE END LIST*
D10*
X157412488Y-60238377D02*
X157937422Y-61025777D01*
X157937422Y-60238377D02*
X157412488Y-61025777D01*
X157487479Y-61880999D02*
X157749945Y-61880999D01*
X157862431Y-62293447D02*
X157487479Y-62293447D01*
X157487479Y-62293447D02*
X157487479Y-61506047D01*
X157487479Y-61506047D02*
X157862431Y-61506047D01*
X158199889Y-61768513D02*
X158199889Y-62443428D01*
X158199889Y-62443428D02*
X158162393Y-62518418D01*
X158162393Y-62518418D02*
X158087403Y-62555913D01*
X158087403Y-62555913D02*
X158049908Y-62555913D01*
X158199889Y-61506047D02*
X158162393Y-61543542D01*
X158162393Y-61543542D02*
X158199889Y-61581037D01*
X158199889Y-61581037D02*
X158237384Y-61543542D01*
X158237384Y-61543542D02*
X158199889Y-61506047D01*
X158199889Y-61506047D02*
X158199889Y-61581037D01*
X158874803Y-62255952D02*
X158799812Y-62293447D01*
X158799812Y-62293447D02*
X158649831Y-62293447D01*
X158649831Y-62293447D02*
X158574841Y-62255952D01*
X158574841Y-62255952D02*
X158537345Y-62180961D01*
X158537345Y-62180961D02*
X158537345Y-61880999D01*
X158537345Y-61880999D02*
X158574841Y-61806009D01*
X158574841Y-61806009D02*
X158649831Y-61768513D01*
X158649831Y-61768513D02*
X158799812Y-61768513D01*
X158799812Y-61768513D02*
X158874803Y-61806009D01*
X158874803Y-61806009D02*
X158912298Y-61880999D01*
X158912298Y-61880999D02*
X158912298Y-61955990D01*
X158912298Y-61955990D02*
X158537345Y-62030980D01*
X159587212Y-62255952D02*
X159512221Y-62293447D01*
X159512221Y-62293447D02*
X159362240Y-62293447D01*
X159362240Y-62293447D02*
X159287250Y-62255952D01*
X159287250Y-62255952D02*
X159249755Y-62218456D01*
X159249755Y-62218456D02*
X159212259Y-62143466D01*
X159212259Y-62143466D02*
X159212259Y-61918494D01*
X159212259Y-61918494D02*
X159249755Y-61843504D01*
X159249755Y-61843504D02*
X159287250Y-61806009D01*
X159287250Y-61806009D02*
X159362240Y-61768513D01*
X159362240Y-61768513D02*
X159512221Y-61768513D01*
X159512221Y-61768513D02*
X159587212Y-61806009D01*
X159812183Y-61768513D02*
X160112145Y-61768513D01*
X159924669Y-61506047D02*
X159924669Y-62180961D01*
X159924669Y-62180961D02*
X159962164Y-62255952D01*
X159962164Y-62255952D02*
X160037154Y-62293447D01*
X160037154Y-62293447D02*
X160112145Y-62293447D01*
X157749945Y-63148669D02*
X157862431Y-63186164D01*
X157862431Y-63186164D02*
X157899926Y-63223660D01*
X157899926Y-63223660D02*
X157937422Y-63298650D01*
X157937422Y-63298650D02*
X157937422Y-63411136D01*
X157937422Y-63411136D02*
X157899926Y-63486126D01*
X157899926Y-63486126D02*
X157862431Y-63523622D01*
X157862431Y-63523622D02*
X157787441Y-63561117D01*
X157787441Y-63561117D02*
X157487479Y-63561117D01*
X157487479Y-63561117D02*
X157487479Y-62773717D01*
X157487479Y-62773717D02*
X157749945Y-62773717D01*
X157749945Y-62773717D02*
X157824936Y-62811212D01*
X157824936Y-62811212D02*
X157862431Y-62848707D01*
X157862431Y-62848707D02*
X157899926Y-62923698D01*
X157899926Y-62923698D02*
X157899926Y-62998688D01*
X157899926Y-62998688D02*
X157862431Y-63073679D01*
X157862431Y-63073679D02*
X157824936Y-63111174D01*
X157824936Y-63111174D02*
X157749945Y-63148669D01*
X157749945Y-63148669D02*
X157487479Y-63148669D01*
X158387364Y-63561117D02*
X158312374Y-63523622D01*
X158312374Y-63523622D02*
X158274879Y-63486126D01*
X158274879Y-63486126D02*
X158237383Y-63411136D01*
X158237383Y-63411136D02*
X158237383Y-63186164D01*
X158237383Y-63186164D02*
X158274879Y-63111174D01*
X158274879Y-63111174D02*
X158312374Y-63073679D01*
X158312374Y-63073679D02*
X158387364Y-63036183D01*
X158387364Y-63036183D02*
X158499850Y-63036183D01*
X158499850Y-63036183D02*
X158574841Y-63073679D01*
X158574841Y-63073679D02*
X158612336Y-63111174D01*
X158612336Y-63111174D02*
X158649831Y-63186164D01*
X158649831Y-63186164D02*
X158649831Y-63411136D01*
X158649831Y-63411136D02*
X158612336Y-63486126D01*
X158612336Y-63486126D02*
X158574841Y-63523622D01*
X158574841Y-63523622D02*
X158499850Y-63561117D01*
X158499850Y-63561117D02*
X158387364Y-63561117D01*
X159099774Y-63561117D02*
X159024784Y-63523622D01*
X159024784Y-63523622D02*
X158987289Y-63486126D01*
X158987289Y-63486126D02*
X158949793Y-63411136D01*
X158949793Y-63411136D02*
X158949793Y-63186164D01*
X158949793Y-63186164D02*
X158987289Y-63111174D01*
X158987289Y-63111174D02*
X159024784Y-63073679D01*
X159024784Y-63073679D02*
X159099774Y-63036183D01*
X159099774Y-63036183D02*
X159212260Y-63036183D01*
X159212260Y-63036183D02*
X159287251Y-63073679D01*
X159287251Y-63073679D02*
X159324746Y-63111174D01*
X159324746Y-63111174D02*
X159362241Y-63186164D01*
X159362241Y-63186164D02*
X159362241Y-63411136D01*
X159362241Y-63411136D02*
X159324746Y-63486126D01*
X159324746Y-63486126D02*
X159287251Y-63523622D01*
X159287251Y-63523622D02*
X159212260Y-63561117D01*
X159212260Y-63561117D02*
X159099774Y-63561117D01*
X159587213Y-63036183D02*
X159887175Y-63036183D01*
X159699699Y-62773717D02*
X159699699Y-63448631D01*
X159699699Y-63448631D02*
X159737194Y-63523622D01*
X159737194Y-63523622D02*
X159812184Y-63561117D01*
X159812184Y-63561117D02*
X159887175Y-63561117D01*
X157937422Y-64828787D02*
X157674955Y-64453834D01*
X157487479Y-64828787D02*
X157487479Y-64041387D01*
X157487479Y-64041387D02*
X157787441Y-64041387D01*
X157787441Y-64041387D02*
X157862431Y-64078882D01*
X157862431Y-64078882D02*
X157899926Y-64116377D01*
X157899926Y-64116377D02*
X157937422Y-64191368D01*
X157937422Y-64191368D02*
X157937422Y-64303853D01*
X157937422Y-64303853D02*
X157899926Y-64378844D01*
X157899926Y-64378844D02*
X157862431Y-64416339D01*
X157862431Y-64416339D02*
X157787441Y-64453834D01*
X157787441Y-64453834D02*
X157487479Y-64453834D01*
X158574841Y-64791292D02*
X158499850Y-64828787D01*
X158499850Y-64828787D02*
X158349869Y-64828787D01*
X158349869Y-64828787D02*
X158274879Y-64791292D01*
X158274879Y-64791292D02*
X158237383Y-64716301D01*
X158237383Y-64716301D02*
X158237383Y-64416339D01*
X158237383Y-64416339D02*
X158274879Y-64341349D01*
X158274879Y-64341349D02*
X158349869Y-64303853D01*
X158349869Y-64303853D02*
X158499850Y-64303853D01*
X158499850Y-64303853D02*
X158574841Y-64341349D01*
X158574841Y-64341349D02*
X158612336Y-64416339D01*
X158612336Y-64416339D02*
X158612336Y-64491330D01*
X158612336Y-64491330D02*
X158237383Y-64566320D01*
X158912297Y-64791292D02*
X158987288Y-64828787D01*
X158987288Y-64828787D02*
X159137269Y-64828787D01*
X159137269Y-64828787D02*
X159212259Y-64791292D01*
X159212259Y-64791292D02*
X159249755Y-64716301D01*
X159249755Y-64716301D02*
X159249755Y-64678806D01*
X159249755Y-64678806D02*
X159212259Y-64603815D01*
X159212259Y-64603815D02*
X159137269Y-64566320D01*
X159137269Y-64566320D02*
X159024783Y-64566320D01*
X159024783Y-64566320D02*
X158949793Y-64528825D01*
X158949793Y-64528825D02*
X158912297Y-64453834D01*
X158912297Y-64453834D02*
X158912297Y-64416339D01*
X158912297Y-64416339D02*
X158949793Y-64341349D01*
X158949793Y-64341349D02*
X159024783Y-64303853D01*
X159024783Y-64303853D02*
X159137269Y-64303853D01*
X159137269Y-64303853D02*
X159212259Y-64341349D01*
X159887174Y-64791292D02*
X159812183Y-64828787D01*
X159812183Y-64828787D02*
X159662202Y-64828787D01*
X159662202Y-64828787D02*
X159587212Y-64791292D01*
X159587212Y-64791292D02*
X159549716Y-64716301D01*
X159549716Y-64716301D02*
X159549716Y-64416339D01*
X159549716Y-64416339D02*
X159587212Y-64341349D01*
X159587212Y-64341349D02*
X159662202Y-64303853D01*
X159662202Y-64303853D02*
X159812183Y-64303853D01*
X159812183Y-64303853D02*
X159887174Y-64341349D01*
X159887174Y-64341349D02*
X159924669Y-64416339D01*
X159924669Y-64416339D02*
X159924669Y-64491330D01*
X159924669Y-64491330D02*
X159549716Y-64566320D01*
X160149640Y-64303853D02*
X160449602Y-64303853D01*
X160262126Y-64041387D02*
X160262126Y-64716301D01*
X160262126Y-64716301D02*
X160299621Y-64791292D01*
X160299621Y-64791292D02*
X160374611Y-64828787D01*
X160374611Y-64828787D02*
X160449602Y-64828787D01*
D11*
X125595142Y-56936819D02*
X125261809Y-56460628D01*
X125023714Y-56936819D02*
X125023714Y-55936819D01*
X125023714Y-55936819D02*
X125404666Y-55936819D01*
X125404666Y-55936819D02*
X125499904Y-55984438D01*
X125499904Y-55984438D02*
X125547523Y-56032057D01*
X125547523Y-56032057D02*
X125595142Y-56127295D01*
X125595142Y-56127295D02*
X125595142Y-56270152D01*
X125595142Y-56270152D02*
X125547523Y-56365390D01*
X125547523Y-56365390D02*
X125499904Y-56413009D01*
X125499904Y-56413009D02*
X125404666Y-56460628D01*
X125404666Y-56460628D02*
X125023714Y-56460628D01*
X126547523Y-56936819D02*
X125976095Y-56936819D01*
X126261809Y-56936819D02*
X126261809Y-55936819D01*
X126261809Y-55936819D02*
X126166571Y-56079676D01*
X126166571Y-56079676D02*
X126071333Y-56174914D01*
X126071333Y-56174914D02*
X125976095Y-56222533D01*
X126880857Y-55936819D02*
X127499904Y-55936819D01*
X127499904Y-55936819D02*
X127166571Y-56317771D01*
X127166571Y-56317771D02*
X127309428Y-56317771D01*
X127309428Y-56317771D02*
X127404666Y-56365390D01*
X127404666Y-56365390D02*
X127452285Y-56413009D01*
X127452285Y-56413009D02*
X127499904Y-56508247D01*
X127499904Y-56508247D02*
X127499904Y-56746342D01*
X127499904Y-56746342D02*
X127452285Y-56841580D01*
X127452285Y-56841580D02*
X127404666Y-56889200D01*
X127404666Y-56889200D02*
X127309428Y-56936819D01*
X127309428Y-56936819D02*
X127023714Y-56936819D01*
X127023714Y-56936819D02*
X126928476Y-56889200D01*
X126928476Y-56889200D02*
X126880857Y-56841580D01*
X127412761Y-68925557D02*
X127317523Y-68877938D01*
X127317523Y-68877938D02*
X127222285Y-68782700D01*
X127222285Y-68782700D02*
X127079428Y-68639842D01*
X127079428Y-68639842D02*
X126984190Y-68592223D01*
X126984190Y-68592223D02*
X126888952Y-68592223D01*
X126936571Y-68830319D02*
X126841333Y-68782700D01*
X126841333Y-68782700D02*
X126746095Y-68687461D01*
X126746095Y-68687461D02*
X126698476Y-68496985D01*
X126698476Y-68496985D02*
X126698476Y-68163652D01*
X126698476Y-68163652D02*
X126746095Y-67973176D01*
X126746095Y-67973176D02*
X126841333Y-67877938D01*
X126841333Y-67877938D02*
X126936571Y-67830319D01*
X126936571Y-67830319D02*
X127127047Y-67830319D01*
X127127047Y-67830319D02*
X127222285Y-67877938D01*
X127222285Y-67877938D02*
X127317523Y-67973176D01*
X127317523Y-67973176D02*
X127365142Y-68163652D01*
X127365142Y-68163652D02*
X127365142Y-68496985D01*
X127365142Y-68496985D02*
X127317523Y-68687461D01*
X127317523Y-68687461D02*
X127222285Y-68782700D01*
X127222285Y-68782700D02*
X127127047Y-68830319D01*
X127127047Y-68830319D02*
X126936571Y-68830319D01*
X127698476Y-67830319D02*
X128317523Y-67830319D01*
X128317523Y-67830319D02*
X127984190Y-68211271D01*
X127984190Y-68211271D02*
X128127047Y-68211271D01*
X128127047Y-68211271D02*
X128222285Y-68258890D01*
X128222285Y-68258890D02*
X128269904Y-68306509D01*
X128269904Y-68306509D02*
X128317523Y-68401747D01*
X128317523Y-68401747D02*
X128317523Y-68639842D01*
X128317523Y-68639842D02*
X128269904Y-68735080D01*
X128269904Y-68735080D02*
X128222285Y-68782700D01*
X128222285Y-68782700D02*
X128127047Y-68830319D01*
X128127047Y-68830319D02*
X127841333Y-68830319D01*
X127841333Y-68830319D02*
X127746095Y-68782700D01*
X127746095Y-68782700D02*
X127698476Y-68735080D01*
X132820580Y-78620857D02*
X132868200Y-78668476D01*
X132868200Y-78668476D02*
X132915819Y-78811333D01*
X132915819Y-78811333D02*
X132915819Y-78906571D01*
X132915819Y-78906571D02*
X132868200Y-79049428D01*
X132868200Y-79049428D02*
X132772961Y-79144666D01*
X132772961Y-79144666D02*
X132677723Y-79192285D01*
X132677723Y-79192285D02*
X132487247Y-79239904D01*
X132487247Y-79239904D02*
X132344390Y-79239904D01*
X132344390Y-79239904D02*
X132153914Y-79192285D01*
X132153914Y-79192285D02*
X132058676Y-79144666D01*
X132058676Y-79144666D02*
X131963438Y-79049428D01*
X131963438Y-79049428D02*
X131915819Y-78906571D01*
X131915819Y-78906571D02*
X131915819Y-78811333D01*
X131915819Y-78811333D02*
X131963438Y-78668476D01*
X131963438Y-78668476D02*
X132011057Y-78620857D01*
X132915819Y-77668476D02*
X132915819Y-78239904D01*
X132915819Y-77954190D02*
X131915819Y-77954190D01*
X131915819Y-77954190D02*
X132058676Y-78049428D01*
X132058676Y-78049428D02*
X132153914Y-78144666D01*
X132153914Y-78144666D02*
X132201533Y-78239904D01*
X131915819Y-77049428D02*
X131915819Y-76954190D01*
X131915819Y-76954190D02*
X131963438Y-76858952D01*
X131963438Y-76858952D02*
X132011057Y-76811333D01*
X132011057Y-76811333D02*
X132106295Y-76763714D01*
X132106295Y-76763714D02*
X132296771Y-76716095D01*
X132296771Y-76716095D02*
X132534866Y-76716095D01*
X132534866Y-76716095D02*
X132725342Y-76763714D01*
X132725342Y-76763714D02*
X132820580Y-76811333D01*
X132820580Y-76811333D02*
X132868200Y-76858952D01*
X132868200Y-76858952D02*
X132915819Y-76954190D01*
X132915819Y-76954190D02*
X132915819Y-77049428D01*
X132915819Y-77049428D02*
X132868200Y-77144666D01*
X132868200Y-77144666D02*
X132820580Y-77192285D01*
X132820580Y-77192285D02*
X132725342Y-77239904D01*
X132725342Y-77239904D02*
X132534866Y-77287523D01*
X132534866Y-77287523D02*
X132296771Y-77287523D01*
X132296771Y-77287523D02*
X132106295Y-77239904D01*
X132106295Y-77239904D02*
X132011057Y-77192285D01*
X132011057Y-77192285D02*
X131963438Y-77144666D01*
X131963438Y-77144666D02*
X131915819Y-77049428D01*
X118792666Y-79718819D02*
X118792666Y-80433104D01*
X118792666Y-80433104D02*
X118745047Y-80575961D01*
X118745047Y-80575961D02*
X118649809Y-80671200D01*
X118649809Y-80671200D02*
X118506952Y-80718819D01*
X118506952Y-80718819D02*
X118411714Y-80718819D01*
X119792666Y-80718819D02*
X119221238Y-80718819D01*
X119506952Y-80718819D02*
X119506952Y-79718819D01*
X119506952Y-79718819D02*
X119411714Y-79861676D01*
X119411714Y-79861676D02*
X119316476Y-79956914D01*
X119316476Y-79956914D02*
X119221238Y-80004533D01*
X151471333Y-67891819D02*
X151138000Y-67415628D01*
X150899905Y-67891819D02*
X150899905Y-66891819D01*
X150899905Y-66891819D02*
X151280857Y-66891819D01*
X151280857Y-66891819D02*
X151376095Y-66939438D01*
X151376095Y-66939438D02*
X151423714Y-66987057D01*
X151423714Y-66987057D02*
X151471333Y-67082295D01*
X151471333Y-67082295D02*
X151471333Y-67225152D01*
X151471333Y-67225152D02*
X151423714Y-67320390D01*
X151423714Y-67320390D02*
X151376095Y-67368009D01*
X151376095Y-67368009D02*
X151280857Y-67415628D01*
X151280857Y-67415628D02*
X150899905Y-67415628D01*
X151852286Y-66987057D02*
X151899905Y-66939438D01*
X151899905Y-66939438D02*
X151995143Y-66891819D01*
X151995143Y-66891819D02*
X152233238Y-66891819D01*
X152233238Y-66891819D02*
X152328476Y-66939438D01*
X152328476Y-66939438D02*
X152376095Y-66987057D01*
X152376095Y-66987057D02*
X152423714Y-67082295D01*
X152423714Y-67082295D02*
X152423714Y-67177533D01*
X152423714Y-67177533D02*
X152376095Y-67320390D01*
X152376095Y-67320390D02*
X151804667Y-67891819D01*
X151804667Y-67891819D02*
X152423714Y-67891819D01*
X127158761Y-76496057D02*
X127063523Y-76448438D01*
X127063523Y-76448438D02*
X126968285Y-76353200D01*
X126968285Y-76353200D02*
X126825428Y-76210342D01*
X126825428Y-76210342D02*
X126730190Y-76162723D01*
X126730190Y-76162723D02*
X126634952Y-76162723D01*
X126682571Y-76400819D02*
X126587333Y-76353200D01*
X126587333Y-76353200D02*
X126492095Y-76257961D01*
X126492095Y-76257961D02*
X126444476Y-76067485D01*
X126444476Y-76067485D02*
X126444476Y-75734152D01*
X126444476Y-75734152D02*
X126492095Y-75543676D01*
X126492095Y-75543676D02*
X126587333Y-75448438D01*
X126587333Y-75448438D02*
X126682571Y-75400819D01*
X126682571Y-75400819D02*
X126873047Y-75400819D01*
X126873047Y-75400819D02*
X126968285Y-75448438D01*
X126968285Y-75448438D02*
X127063523Y-75543676D01*
X127063523Y-75543676D02*
X127111142Y-75734152D01*
X127111142Y-75734152D02*
X127111142Y-76067485D01*
X127111142Y-76067485D02*
X127063523Y-76257961D01*
X127063523Y-76257961D02*
X126968285Y-76353200D01*
X126968285Y-76353200D02*
X126873047Y-76400819D01*
X126873047Y-76400819D02*
X126682571Y-76400819D01*
X128063523Y-76400819D02*
X127492095Y-76400819D01*
X127777809Y-76400819D02*
X127777809Y-75400819D01*
X127777809Y-75400819D02*
X127682571Y-75543676D01*
X127682571Y-75543676D02*
X127587333Y-75638914D01*
X127587333Y-75638914D02*
X127492095Y-75686533D01*
X152979523Y-56842819D02*
X152646190Y-56366628D01*
X152408095Y-56842819D02*
X152408095Y-55842819D01*
X152408095Y-55842819D02*
X152789047Y-55842819D01*
X152789047Y-55842819D02*
X152884285Y-55890438D01*
X152884285Y-55890438D02*
X152931904Y-55938057D01*
X152931904Y-55938057D02*
X152979523Y-56033295D01*
X152979523Y-56033295D02*
X152979523Y-56176152D01*
X152979523Y-56176152D02*
X152931904Y-56271390D01*
X152931904Y-56271390D02*
X152884285Y-56319009D01*
X152884285Y-56319009D02*
X152789047Y-56366628D01*
X152789047Y-56366628D02*
X152408095Y-56366628D01*
X153408095Y-56842819D02*
X153408095Y-55842819D01*
X153408095Y-55842819D02*
X153979523Y-56842819D01*
X153979523Y-56842819D02*
X153979523Y-55842819D01*
X154408095Y-55938057D02*
X154455714Y-55890438D01*
X154455714Y-55890438D02*
X154550952Y-55842819D01*
X154550952Y-55842819D02*
X154789047Y-55842819D01*
X154789047Y-55842819D02*
X154884285Y-55890438D01*
X154884285Y-55890438D02*
X154931904Y-55938057D01*
X154931904Y-55938057D02*
X154979523Y-56033295D01*
X154979523Y-56033295D02*
X154979523Y-56128533D01*
X154979523Y-56128533D02*
X154931904Y-56271390D01*
X154931904Y-56271390D02*
X154360476Y-56842819D01*
X154360476Y-56842819D02*
X154979523Y-56842819D01*
X153013580Y-78271666D02*
X153061200Y-78319285D01*
X153061200Y-78319285D02*
X153108819Y-78462142D01*
X153108819Y-78462142D02*
X153108819Y-78557380D01*
X153108819Y-78557380D02*
X153061200Y-78700237D01*
X153061200Y-78700237D02*
X152965961Y-78795475D01*
X152965961Y-78795475D02*
X152870723Y-78843094D01*
X152870723Y-78843094D02*
X152680247Y-78890713D01*
X152680247Y-78890713D02*
X152537390Y-78890713D01*
X152537390Y-78890713D02*
X152346914Y-78843094D01*
X152346914Y-78843094D02*
X152251676Y-78795475D01*
X152251676Y-78795475D02*
X152156438Y-78700237D01*
X152156438Y-78700237D02*
X152108819Y-78557380D01*
X152108819Y-78557380D02*
X152108819Y-78462142D01*
X152108819Y-78462142D02*
X152156438Y-78319285D01*
X152156438Y-78319285D02*
X152204057Y-78271666D01*
X153108819Y-77319285D02*
X153108819Y-77890713D01*
X153108819Y-77604999D02*
X152108819Y-77604999D01*
X152108819Y-77604999D02*
X152251676Y-77700237D01*
X152251676Y-77700237D02*
X152346914Y-77795475D01*
X152346914Y-77795475D02*
X152394533Y-77890713D01*
X134366095Y-85052819D02*
X134366095Y-85862342D01*
X134366095Y-85862342D02*
X134413714Y-85957580D01*
X134413714Y-85957580D02*
X134461333Y-86005200D01*
X134461333Y-86005200D02*
X134556571Y-86052819D01*
X134556571Y-86052819D02*
X134747047Y-86052819D01*
X134747047Y-86052819D02*
X134842285Y-86005200D01*
X134842285Y-86005200D02*
X134889904Y-85957580D01*
X134889904Y-85957580D02*
X134937523Y-85862342D01*
X134937523Y-85862342D02*
X134937523Y-85052819D01*
X135842285Y-85386152D02*
X135842285Y-86052819D01*
X135604190Y-85005200D02*
X135366095Y-85719485D01*
X135366095Y-85719485D02*
X135985142Y-85719485D01*
X132453142Y-72749580D02*
X132405523Y-72797200D01*
X132405523Y-72797200D02*
X132262666Y-72844819D01*
X132262666Y-72844819D02*
X132167428Y-72844819D01*
X132167428Y-72844819D02*
X132024571Y-72797200D01*
X132024571Y-72797200D02*
X131929333Y-72701961D01*
X131929333Y-72701961D02*
X131881714Y-72606723D01*
X131881714Y-72606723D02*
X131834095Y-72416247D01*
X131834095Y-72416247D02*
X131834095Y-72273390D01*
X131834095Y-72273390D02*
X131881714Y-72082914D01*
X131881714Y-72082914D02*
X131929333Y-71987676D01*
X131929333Y-71987676D02*
X132024571Y-71892438D01*
X132024571Y-71892438D02*
X132167428Y-71844819D01*
X132167428Y-71844819D02*
X132262666Y-71844819D01*
X132262666Y-71844819D02*
X132405523Y-71892438D01*
X132405523Y-71892438D02*
X132453142Y-71940057D01*
X133405523Y-72844819D02*
X132834095Y-72844819D01*
X133119809Y-72844819D02*
X133119809Y-71844819D01*
X133119809Y-71844819D02*
X133024571Y-71987676D01*
X133024571Y-71987676D02*
X132929333Y-72082914D01*
X132929333Y-72082914D02*
X132834095Y-72130533D01*
X133786476Y-71940057D02*
X133834095Y-71892438D01*
X133834095Y-71892438D02*
X133929333Y-71844819D01*
X133929333Y-71844819D02*
X134167428Y-71844819D01*
X134167428Y-71844819D02*
X134262666Y-71892438D01*
X134262666Y-71892438D02*
X134310285Y-71940057D01*
X134310285Y-71940057D02*
X134357904Y-72035295D01*
X134357904Y-72035295D02*
X134357904Y-72130533D01*
X134357904Y-72130533D02*
X134310285Y-72273390D01*
X134310285Y-72273390D02*
X133738857Y-72844819D01*
X133738857Y-72844819D02*
X134357904Y-72844819D01*
X154537580Y-87796666D02*
X154585200Y-87844285D01*
X154585200Y-87844285D02*
X154632819Y-87987142D01*
X154632819Y-87987142D02*
X154632819Y-88082380D01*
X154632819Y-88082380D02*
X154585200Y-88225237D01*
X154585200Y-88225237D02*
X154489961Y-88320475D01*
X154489961Y-88320475D02*
X154394723Y-88368094D01*
X154394723Y-88368094D02*
X154204247Y-88415713D01*
X154204247Y-88415713D02*
X154061390Y-88415713D01*
X154061390Y-88415713D02*
X153870914Y-88368094D01*
X153870914Y-88368094D02*
X153775676Y-88320475D01*
X153775676Y-88320475D02*
X153680438Y-88225237D01*
X153680438Y-88225237D02*
X153632819Y-88082380D01*
X153632819Y-88082380D02*
X153632819Y-87987142D01*
X153632819Y-87987142D02*
X153680438Y-87844285D01*
X153680438Y-87844285D02*
X153728057Y-87796666D01*
X153728057Y-87415713D02*
X153680438Y-87368094D01*
X153680438Y-87368094D02*
X153632819Y-87272856D01*
X153632819Y-87272856D02*
X153632819Y-87034761D01*
X153632819Y-87034761D02*
X153680438Y-86939523D01*
X153680438Y-86939523D02*
X153728057Y-86891904D01*
X153728057Y-86891904D02*
X153823295Y-86844285D01*
X153823295Y-86844285D02*
X153918533Y-86844285D01*
X153918533Y-86844285D02*
X154061390Y-86891904D01*
X154061390Y-86891904D02*
X154632819Y-87463332D01*
X154632819Y-87463332D02*
X154632819Y-86844285D01*
X127702819Y-81351333D02*
X128417104Y-81351333D01*
X128417104Y-81351333D02*
X128559961Y-81398952D01*
X128559961Y-81398952D02*
X128655200Y-81494190D01*
X128655200Y-81494190D02*
X128702819Y-81637047D01*
X128702819Y-81637047D02*
X128702819Y-81732285D01*
X128702819Y-80875142D02*
X127702819Y-80875142D01*
X127702819Y-80875142D02*
X127702819Y-80494190D01*
X127702819Y-80494190D02*
X127750438Y-80398952D01*
X127750438Y-80398952D02*
X127798057Y-80351333D01*
X127798057Y-80351333D02*
X127893295Y-80303714D01*
X127893295Y-80303714D02*
X128036152Y-80303714D01*
X128036152Y-80303714D02*
X128131390Y-80351333D01*
X128131390Y-80351333D02*
X128179009Y-80398952D01*
X128179009Y-80398952D02*
X128226628Y-80494190D01*
X128226628Y-80494190D02*
X128226628Y-80875142D01*
X127798057Y-79922761D02*
X127750438Y-79875142D01*
X127750438Y-79875142D02*
X127702819Y-79779904D01*
X127702819Y-79779904D02*
X127702819Y-79541809D01*
X127702819Y-79541809D02*
X127750438Y-79446571D01*
X127750438Y-79446571D02*
X127798057Y-79398952D01*
X127798057Y-79398952D02*
X127893295Y-79351333D01*
X127893295Y-79351333D02*
X127988533Y-79351333D01*
X127988533Y-79351333D02*
X128131390Y-79398952D01*
X128131390Y-79398952D02*
X128702819Y-79970380D01*
X128702819Y-79970380D02*
X128702819Y-79351333D01*
X129756819Y-73151904D02*
X130566342Y-73151904D01*
X130566342Y-73151904D02*
X130661580Y-73104285D01*
X130661580Y-73104285D02*
X130709200Y-73056666D01*
X130709200Y-73056666D02*
X130756819Y-72961428D01*
X130756819Y-72961428D02*
X130756819Y-72770952D01*
X130756819Y-72770952D02*
X130709200Y-72675714D01*
X130709200Y-72675714D02*
X130661580Y-72628095D01*
X130661580Y-72628095D02*
X130566342Y-72580476D01*
X130566342Y-72580476D02*
X129756819Y-72580476D01*
X129756819Y-71628095D02*
X129756819Y-72104285D01*
X129756819Y-72104285D02*
X130233009Y-72151904D01*
X130233009Y-72151904D02*
X130185390Y-72104285D01*
X130185390Y-72104285D02*
X130137771Y-72009047D01*
X130137771Y-72009047D02*
X130137771Y-71770952D01*
X130137771Y-71770952D02*
X130185390Y-71675714D01*
X130185390Y-71675714D02*
X130233009Y-71628095D01*
X130233009Y-71628095D02*
X130328247Y-71580476D01*
X130328247Y-71580476D02*
X130566342Y-71580476D01*
X130566342Y-71580476D02*
X130661580Y-71628095D01*
X130661580Y-71628095D02*
X130709200Y-71675714D01*
X130709200Y-71675714D02*
X130756819Y-71770952D01*
X130756819Y-71770952D02*
X130756819Y-72009047D01*
X130756819Y-72009047D02*
X130709200Y-72104285D01*
X130709200Y-72104285D02*
X130661580Y-72151904D01*
X124533819Y-60078857D02*
X124057628Y-60412190D01*
X124533819Y-60650285D02*
X123533819Y-60650285D01*
X123533819Y-60650285D02*
X123533819Y-60269333D01*
X123533819Y-60269333D02*
X123581438Y-60174095D01*
X123581438Y-60174095D02*
X123629057Y-60126476D01*
X123629057Y-60126476D02*
X123724295Y-60078857D01*
X123724295Y-60078857D02*
X123867152Y-60078857D01*
X123867152Y-60078857D02*
X123962390Y-60126476D01*
X123962390Y-60126476D02*
X124010009Y-60174095D01*
X124010009Y-60174095D02*
X124057628Y-60269333D01*
X124057628Y-60269333D02*
X124057628Y-60650285D01*
X124533819Y-59126476D02*
X124533819Y-59697904D01*
X124533819Y-59412190D02*
X123533819Y-59412190D01*
X123533819Y-59412190D02*
X123676676Y-59507428D01*
X123676676Y-59507428D02*
X123771914Y-59602666D01*
X123771914Y-59602666D02*
X123819533Y-59697904D01*
X123867152Y-58269333D02*
X124533819Y-58269333D01*
X123486200Y-58507428D02*
X124200485Y-58745523D01*
X124200485Y-58745523D02*
X124200485Y-58126476D01*
X141075580Y-82208666D02*
X141123200Y-82256285D01*
X141123200Y-82256285D02*
X141170819Y-82399142D01*
X141170819Y-82399142D02*
X141170819Y-82494380D01*
X141170819Y-82494380D02*
X141123200Y-82637237D01*
X141123200Y-82637237D02*
X141027961Y-82732475D01*
X141027961Y-82732475D02*
X140932723Y-82780094D01*
X140932723Y-82780094D02*
X140742247Y-82827713D01*
X140742247Y-82827713D02*
X140599390Y-82827713D01*
X140599390Y-82827713D02*
X140408914Y-82780094D01*
X140408914Y-82780094D02*
X140313676Y-82732475D01*
X140313676Y-82732475D02*
X140218438Y-82637237D01*
X140218438Y-82637237D02*
X140170819Y-82494380D01*
X140170819Y-82494380D02*
X140170819Y-82399142D01*
X140170819Y-82399142D02*
X140218438Y-82256285D01*
X140218438Y-82256285D02*
X140266057Y-82208666D01*
X140504152Y-81351523D02*
X141170819Y-81351523D01*
X140123200Y-81589618D02*
X140837485Y-81827713D01*
X140837485Y-81827713D02*
X140837485Y-81208666D01*
X129232819Y-57157857D02*
X128756628Y-57491190D01*
X129232819Y-57729285D02*
X128232819Y-57729285D01*
X128232819Y-57729285D02*
X128232819Y-57348333D01*
X128232819Y-57348333D02*
X128280438Y-57253095D01*
X128280438Y-57253095D02*
X128328057Y-57205476D01*
X128328057Y-57205476D02*
X128423295Y-57157857D01*
X128423295Y-57157857D02*
X128566152Y-57157857D01*
X128566152Y-57157857D02*
X128661390Y-57205476D01*
X128661390Y-57205476D02*
X128709009Y-57253095D01*
X128709009Y-57253095D02*
X128756628Y-57348333D01*
X128756628Y-57348333D02*
X128756628Y-57729285D01*
X129232819Y-56205476D02*
X129232819Y-56776904D01*
X129232819Y-56491190D02*
X128232819Y-56491190D01*
X128232819Y-56491190D02*
X128375676Y-56586428D01*
X128375676Y-56586428D02*
X128470914Y-56681666D01*
X128470914Y-56681666D02*
X128518533Y-56776904D01*
X128232819Y-55348333D02*
X128232819Y-55538809D01*
X128232819Y-55538809D02*
X128280438Y-55634047D01*
X128280438Y-55634047D02*
X128328057Y-55681666D01*
X128328057Y-55681666D02*
X128470914Y-55776904D01*
X128470914Y-55776904D02*
X128661390Y-55824523D01*
X128661390Y-55824523D02*
X129042342Y-55824523D01*
X129042342Y-55824523D02*
X129137580Y-55776904D01*
X129137580Y-55776904D02*
X129185200Y-55729285D01*
X129185200Y-55729285D02*
X129232819Y-55634047D01*
X129232819Y-55634047D02*
X129232819Y-55443571D01*
X129232819Y-55443571D02*
X129185200Y-55348333D01*
X129185200Y-55348333D02*
X129137580Y-55300714D01*
X129137580Y-55300714D02*
X129042342Y-55253095D01*
X129042342Y-55253095D02*
X128804247Y-55253095D01*
X128804247Y-55253095D02*
X128709009Y-55300714D01*
X128709009Y-55300714D02*
X128661390Y-55348333D01*
X128661390Y-55348333D02*
X128613771Y-55443571D01*
X128613771Y-55443571D02*
X128613771Y-55634047D01*
X128613771Y-55634047D02*
X128661390Y-55729285D01*
X128661390Y-55729285D02*
X128709009Y-55776904D01*
X128709009Y-55776904D02*
X128804247Y-55824523D01*
X156569580Y-87796666D02*
X156617200Y-87844285D01*
X156617200Y-87844285D02*
X156664819Y-87987142D01*
X156664819Y-87987142D02*
X156664819Y-88082380D01*
X156664819Y-88082380D02*
X156617200Y-88225237D01*
X156617200Y-88225237D02*
X156521961Y-88320475D01*
X156521961Y-88320475D02*
X156426723Y-88368094D01*
X156426723Y-88368094D02*
X156236247Y-88415713D01*
X156236247Y-88415713D02*
X156093390Y-88415713D01*
X156093390Y-88415713D02*
X155902914Y-88368094D01*
X155902914Y-88368094D02*
X155807676Y-88320475D01*
X155807676Y-88320475D02*
X155712438Y-88225237D01*
X155712438Y-88225237D02*
X155664819Y-88082380D01*
X155664819Y-88082380D02*
X155664819Y-87987142D01*
X155664819Y-87987142D02*
X155712438Y-87844285D01*
X155712438Y-87844285D02*
X155760057Y-87796666D01*
X155664819Y-87463332D02*
X155664819Y-86844285D01*
X155664819Y-86844285D02*
X156045771Y-87177618D01*
X156045771Y-87177618D02*
X156045771Y-87034761D01*
X156045771Y-87034761D02*
X156093390Y-86939523D01*
X156093390Y-86939523D02*
X156141009Y-86891904D01*
X156141009Y-86891904D02*
X156236247Y-86844285D01*
X156236247Y-86844285D02*
X156474342Y-86844285D01*
X156474342Y-86844285D02*
X156569580Y-86891904D01*
X156569580Y-86891904D02*
X156617200Y-86939523D01*
X156617200Y-86939523D02*
X156664819Y-87034761D01*
X156664819Y-87034761D02*
X156664819Y-87320475D01*
X156664819Y-87320475D02*
X156617200Y-87415713D01*
X156617200Y-87415713D02*
X156569580Y-87463332D01*
X122769333Y-80972819D02*
X122436000Y-80496628D01*
X122197905Y-80972819D02*
X122197905Y-79972819D01*
X122197905Y-79972819D02*
X122578857Y-79972819D01*
X122578857Y-79972819D02*
X122674095Y-80020438D01*
X122674095Y-80020438D02*
X122721714Y-80068057D01*
X122721714Y-80068057D02*
X122769333Y-80163295D01*
X122769333Y-80163295D02*
X122769333Y-80306152D01*
X122769333Y-80306152D02*
X122721714Y-80401390D01*
X122721714Y-80401390D02*
X122674095Y-80449009D01*
X122674095Y-80449009D02*
X122578857Y-80496628D01*
X122578857Y-80496628D02*
X122197905Y-80496628D01*
X123721714Y-80972819D02*
X123150286Y-80972819D01*
X123436000Y-80972819D02*
X123436000Y-79972819D01*
X123436000Y-79972819D02*
X123340762Y-80115676D01*
X123340762Y-80115676D02*
X123245524Y-80210914D01*
X123245524Y-80210914D02*
X123150286Y-80258533D01*
X162139333Y-66240819D02*
X161806000Y-65764628D01*
X161567905Y-66240819D02*
X161567905Y-65240819D01*
X161567905Y-65240819D02*
X161948857Y-65240819D01*
X161948857Y-65240819D02*
X162044095Y-65288438D01*
X162044095Y-65288438D02*
X162091714Y-65336057D01*
X162091714Y-65336057D02*
X162139333Y-65431295D01*
X162139333Y-65431295D02*
X162139333Y-65574152D01*
X162139333Y-65574152D02*
X162091714Y-65669390D01*
X162091714Y-65669390D02*
X162044095Y-65717009D01*
X162044095Y-65717009D02*
X161948857Y-65764628D01*
X161948857Y-65764628D02*
X161567905Y-65764628D01*
X162710762Y-65669390D02*
X162615524Y-65621771D01*
X162615524Y-65621771D02*
X162567905Y-65574152D01*
X162567905Y-65574152D02*
X162520286Y-65478914D01*
X162520286Y-65478914D02*
X162520286Y-65431295D01*
X162520286Y-65431295D02*
X162567905Y-65336057D01*
X162567905Y-65336057D02*
X162615524Y-65288438D01*
X162615524Y-65288438D02*
X162710762Y-65240819D01*
X162710762Y-65240819D02*
X162901238Y-65240819D01*
X162901238Y-65240819D02*
X162996476Y-65288438D01*
X162996476Y-65288438D02*
X163044095Y-65336057D01*
X163044095Y-65336057D02*
X163091714Y-65431295D01*
X163091714Y-65431295D02*
X163091714Y-65478914D01*
X163091714Y-65478914D02*
X163044095Y-65574152D01*
X163044095Y-65574152D02*
X162996476Y-65621771D01*
X162996476Y-65621771D02*
X162901238Y-65669390D01*
X162901238Y-65669390D02*
X162710762Y-65669390D01*
X162710762Y-65669390D02*
X162615524Y-65717009D01*
X162615524Y-65717009D02*
X162567905Y-65764628D01*
X162567905Y-65764628D02*
X162520286Y-65859866D01*
X162520286Y-65859866D02*
X162520286Y-66050342D01*
X162520286Y-66050342D02*
X162567905Y-66145580D01*
X162567905Y-66145580D02*
X162615524Y-66193200D01*
X162615524Y-66193200D02*
X162710762Y-66240819D01*
X162710762Y-66240819D02*
X162901238Y-66240819D01*
X162901238Y-66240819D02*
X162996476Y-66193200D01*
X162996476Y-66193200D02*
X163044095Y-66145580D01*
X163044095Y-66145580D02*
X163091714Y-66050342D01*
X163091714Y-66050342D02*
X163091714Y-65859866D01*
X163091714Y-65859866D02*
X163044095Y-65764628D01*
X163044095Y-65764628D02*
X162996476Y-65717009D01*
X162996476Y-65717009D02*
X162901238Y-65669390D01*
X157048819Y-81533904D02*
X157858342Y-81533904D01*
X157858342Y-81533904D02*
X157953580Y-81486285D01*
X157953580Y-81486285D02*
X158001200Y-81438666D01*
X158001200Y-81438666D02*
X158048819Y-81343428D01*
X158048819Y-81343428D02*
X158048819Y-81152952D01*
X158048819Y-81152952D02*
X158001200Y-81057714D01*
X158001200Y-81057714D02*
X157953580Y-81010095D01*
X157953580Y-81010095D02*
X157858342Y-80962476D01*
X157858342Y-80962476D02*
X157048819Y-80962476D01*
X158048819Y-79962476D02*
X158048819Y-80533904D01*
X158048819Y-80248190D02*
X157048819Y-80248190D01*
X157048819Y-80248190D02*
X157191676Y-80343428D01*
X157191676Y-80343428D02*
X157286914Y-80438666D01*
X157286914Y-80438666D02*
X157334533Y-80533904D01*
X159091333Y-79862819D02*
X158758000Y-79386628D01*
X158519905Y-79862819D02*
X158519905Y-78862819D01*
X158519905Y-78862819D02*
X158900857Y-78862819D01*
X158900857Y-78862819D02*
X158996095Y-78910438D01*
X158996095Y-78910438D02*
X159043714Y-78958057D01*
X159043714Y-78958057D02*
X159091333Y-79053295D01*
X159091333Y-79053295D02*
X159091333Y-79196152D01*
X159091333Y-79196152D02*
X159043714Y-79291390D01*
X159043714Y-79291390D02*
X158996095Y-79339009D01*
X158996095Y-79339009D02*
X158900857Y-79386628D01*
X158900857Y-79386628D02*
X158519905Y-79386628D01*
X159424667Y-78862819D02*
X160091333Y-78862819D01*
X160091333Y-78862819D02*
X159662762Y-79862819D01*
X150662666Y-85052819D02*
X150662666Y-85767104D01*
X150662666Y-85767104D02*
X150615047Y-85909961D01*
X150615047Y-85909961D02*
X150519809Y-86005200D01*
X150519809Y-86005200D02*
X150376952Y-86052819D01*
X150376952Y-86052819D02*
X150281714Y-86052819D01*
X151138857Y-86052819D02*
X151138857Y-85052819D01*
X151138857Y-85052819D02*
X151519809Y-85052819D01*
X151519809Y-85052819D02*
X151615047Y-85100438D01*
X151615047Y-85100438D02*
X151662666Y-85148057D01*
X151662666Y-85148057D02*
X151710285Y-85243295D01*
X151710285Y-85243295D02*
X151710285Y-85386152D01*
X151710285Y-85386152D02*
X151662666Y-85481390D01*
X151662666Y-85481390D02*
X151615047Y-85529009D01*
X151615047Y-85529009D02*
X151519809Y-85576628D01*
X151519809Y-85576628D02*
X151138857Y-85576628D01*
X152662666Y-86052819D02*
X152091238Y-86052819D01*
X152376952Y-86052819D02*
X152376952Y-85052819D01*
X152376952Y-85052819D02*
X152281714Y-85195676D01*
X152281714Y-85195676D02*
X152186476Y-85290914D01*
X152186476Y-85290914D02*
X152091238Y-85338533D01*
X118006905Y-62303819D02*
X118006905Y-61303819D01*
X118006905Y-61303819D02*
X118245000Y-61303819D01*
X118245000Y-61303819D02*
X118387857Y-61351438D01*
X118387857Y-61351438D02*
X118483095Y-61446676D01*
X118483095Y-61446676D02*
X118530714Y-61541914D01*
X118530714Y-61541914D02*
X118578333Y-61732390D01*
X118578333Y-61732390D02*
X118578333Y-61875247D01*
X118578333Y-61875247D02*
X118530714Y-62065723D01*
X118530714Y-62065723D02*
X118483095Y-62160961D01*
X118483095Y-62160961D02*
X118387857Y-62256200D01*
X118387857Y-62256200D02*
X118245000Y-62303819D01*
X118245000Y-62303819D02*
X118006905Y-62303819D01*
X119435476Y-61637152D02*
X119435476Y-62303819D01*
X119197381Y-61256200D02*
X118959286Y-61970485D01*
X118959286Y-61970485D02*
X119578333Y-61970485D01*
X130662819Y-64396857D02*
X130186628Y-64730190D01*
X130662819Y-64968285D02*
X129662819Y-64968285D01*
X129662819Y-64968285D02*
X129662819Y-64587333D01*
X129662819Y-64587333D02*
X129710438Y-64492095D01*
X129710438Y-64492095D02*
X129758057Y-64444476D01*
X129758057Y-64444476D02*
X129853295Y-64396857D01*
X129853295Y-64396857D02*
X129996152Y-64396857D01*
X129996152Y-64396857D02*
X130091390Y-64444476D01*
X130091390Y-64444476D02*
X130139009Y-64492095D01*
X130139009Y-64492095D02*
X130186628Y-64587333D01*
X130186628Y-64587333D02*
X130186628Y-64968285D01*
X130662819Y-63444476D02*
X130662819Y-64015904D01*
X130662819Y-63730190D02*
X129662819Y-63730190D01*
X129662819Y-63730190D02*
X129805676Y-63825428D01*
X129805676Y-63825428D02*
X129900914Y-63920666D01*
X129900914Y-63920666D02*
X129948533Y-64015904D01*
X129662819Y-62539714D02*
X129662819Y-63015904D01*
X129662819Y-63015904D02*
X130139009Y-63063523D01*
X130139009Y-63063523D02*
X130091390Y-63015904D01*
X130091390Y-63015904D02*
X130043771Y-62920666D01*
X130043771Y-62920666D02*
X130043771Y-62682571D01*
X130043771Y-62682571D02*
X130091390Y-62587333D01*
X130091390Y-62587333D02*
X130139009Y-62539714D01*
X130139009Y-62539714D02*
X130234247Y-62492095D01*
X130234247Y-62492095D02*
X130472342Y-62492095D01*
X130472342Y-62492095D02*
X130567580Y-62539714D01*
X130567580Y-62539714D02*
X130615200Y-62587333D01*
X130615200Y-62587333D02*
X130662819Y-62682571D01*
X130662819Y-62682571D02*
X130662819Y-62920666D01*
X130662819Y-62920666D02*
X130615200Y-63015904D01*
X130615200Y-63015904D02*
X130567580Y-63063523D01*
X124168819Y-86185333D02*
X124883104Y-86185333D01*
X124883104Y-86185333D02*
X125025961Y-86232952D01*
X125025961Y-86232952D02*
X125121200Y-86328190D01*
X125121200Y-86328190D02*
X125168819Y-86471047D01*
X125168819Y-86471047D02*
X125168819Y-86566285D01*
X124168819Y-85232952D02*
X124168819Y-85709142D01*
X124168819Y-85709142D02*
X124645009Y-85756761D01*
X124645009Y-85756761D02*
X124597390Y-85709142D01*
X124597390Y-85709142D02*
X124549771Y-85613904D01*
X124549771Y-85613904D02*
X124549771Y-85375809D01*
X124549771Y-85375809D02*
X124597390Y-85280571D01*
X124597390Y-85280571D02*
X124645009Y-85232952D01*
X124645009Y-85232952D02*
X124740247Y-85185333D01*
X124740247Y-85185333D02*
X124978342Y-85185333D01*
X124978342Y-85185333D02*
X125073580Y-85232952D01*
X125073580Y-85232952D02*
X125121200Y-85280571D01*
X125121200Y-85280571D02*
X125168819Y-85375809D01*
X125168819Y-85375809D02*
X125168819Y-85613904D01*
X125168819Y-85613904D02*
X125121200Y-85709142D01*
X125121200Y-85709142D02*
X125073580Y-85756761D01*
X132185580Y-58808857D02*
X132233200Y-58856476D01*
X132233200Y-58856476D02*
X132280819Y-58999333D01*
X132280819Y-58999333D02*
X132280819Y-59094571D01*
X132280819Y-59094571D02*
X132233200Y-59237428D01*
X132233200Y-59237428D02*
X132137961Y-59332666D01*
X132137961Y-59332666D02*
X132042723Y-59380285D01*
X132042723Y-59380285D02*
X131852247Y-59427904D01*
X131852247Y-59427904D02*
X131709390Y-59427904D01*
X131709390Y-59427904D02*
X131518914Y-59380285D01*
X131518914Y-59380285D02*
X131423676Y-59332666D01*
X131423676Y-59332666D02*
X131328438Y-59237428D01*
X131328438Y-59237428D02*
X131280819Y-59094571D01*
X131280819Y-59094571D02*
X131280819Y-58999333D01*
X131280819Y-58999333D02*
X131328438Y-58856476D01*
X131328438Y-58856476D02*
X131376057Y-58808857D01*
X132280819Y-57856476D02*
X132280819Y-58427904D01*
X132280819Y-58142190D02*
X131280819Y-58142190D01*
X131280819Y-58142190D02*
X131423676Y-58237428D01*
X131423676Y-58237428D02*
X131518914Y-58332666D01*
X131518914Y-58332666D02*
X131566533Y-58427904D01*
X131280819Y-56999333D02*
X131280819Y-57189809D01*
X131280819Y-57189809D02*
X131328438Y-57285047D01*
X131328438Y-57285047D02*
X131376057Y-57332666D01*
X131376057Y-57332666D02*
X131518914Y-57427904D01*
X131518914Y-57427904D02*
X131709390Y-57475523D01*
X131709390Y-57475523D02*
X132090342Y-57475523D01*
X132090342Y-57475523D02*
X132185580Y-57427904D01*
X132185580Y-57427904D02*
X132233200Y-57380285D01*
X132233200Y-57380285D02*
X132280819Y-57285047D01*
X132280819Y-57285047D02*
X132280819Y-57094571D01*
X132280819Y-57094571D02*
X132233200Y-56999333D01*
X132233200Y-56999333D02*
X132185580Y-56951714D01*
X132185580Y-56951714D02*
X132090342Y-56904095D01*
X132090342Y-56904095D02*
X131852247Y-56904095D01*
X131852247Y-56904095D02*
X131757009Y-56951714D01*
X131757009Y-56951714D02*
X131709390Y-56999333D01*
X131709390Y-56999333D02*
X131661771Y-57094571D01*
X131661771Y-57094571D02*
X131661771Y-57285047D01*
X131661771Y-57285047D02*
X131709390Y-57380285D01*
X131709390Y-57380285D02*
X131757009Y-57427904D01*
X131757009Y-57427904D02*
X131852247Y-57475523D01*
X130915580Y-69508666D02*
X130963200Y-69556285D01*
X130963200Y-69556285D02*
X131010819Y-69699142D01*
X131010819Y-69699142D02*
X131010819Y-69794380D01*
X131010819Y-69794380D02*
X130963200Y-69937237D01*
X130963200Y-69937237D02*
X130867961Y-70032475D01*
X130867961Y-70032475D02*
X130772723Y-70080094D01*
X130772723Y-70080094D02*
X130582247Y-70127713D01*
X130582247Y-70127713D02*
X130439390Y-70127713D01*
X130439390Y-70127713D02*
X130248914Y-70080094D01*
X130248914Y-70080094D02*
X130153676Y-70032475D01*
X130153676Y-70032475D02*
X130058438Y-69937237D01*
X130058438Y-69937237D02*
X130010819Y-69794380D01*
X130010819Y-69794380D02*
X130010819Y-69699142D01*
X130010819Y-69699142D02*
X130058438Y-69556285D01*
X130058438Y-69556285D02*
X130106057Y-69508666D01*
X130439390Y-68937237D02*
X130391771Y-69032475D01*
X130391771Y-69032475D02*
X130344152Y-69080094D01*
X130344152Y-69080094D02*
X130248914Y-69127713D01*
X130248914Y-69127713D02*
X130201295Y-69127713D01*
X130201295Y-69127713D02*
X130106057Y-69080094D01*
X130106057Y-69080094D02*
X130058438Y-69032475D01*
X130058438Y-69032475D02*
X130010819Y-68937237D01*
X130010819Y-68937237D02*
X130010819Y-68746761D01*
X130010819Y-68746761D02*
X130058438Y-68651523D01*
X130058438Y-68651523D02*
X130106057Y-68603904D01*
X130106057Y-68603904D02*
X130201295Y-68556285D01*
X130201295Y-68556285D02*
X130248914Y-68556285D01*
X130248914Y-68556285D02*
X130344152Y-68603904D01*
X130344152Y-68603904D02*
X130391771Y-68651523D01*
X130391771Y-68651523D02*
X130439390Y-68746761D01*
X130439390Y-68746761D02*
X130439390Y-68937237D01*
X130439390Y-68937237D02*
X130487009Y-69032475D01*
X130487009Y-69032475D02*
X130534628Y-69080094D01*
X130534628Y-69080094D02*
X130629866Y-69127713D01*
X130629866Y-69127713D02*
X130820342Y-69127713D01*
X130820342Y-69127713D02*
X130915580Y-69080094D01*
X130915580Y-69080094D02*
X130963200Y-69032475D01*
X130963200Y-69032475D02*
X131010819Y-68937237D01*
X131010819Y-68937237D02*
X131010819Y-68746761D01*
X131010819Y-68746761D02*
X130963200Y-68651523D01*
X130963200Y-68651523D02*
X130915580Y-68603904D01*
X130915580Y-68603904D02*
X130820342Y-68556285D01*
X130820342Y-68556285D02*
X130629866Y-68556285D01*
X130629866Y-68556285D02*
X130534628Y-68603904D01*
X130534628Y-68603904D02*
X130487009Y-68651523D01*
X130487009Y-68651523D02*
X130439390Y-68746761D01*
X149457580Y-74302857D02*
X149505200Y-74350476D01*
X149505200Y-74350476D02*
X149552819Y-74493333D01*
X149552819Y-74493333D02*
X149552819Y-74588571D01*
X149552819Y-74588571D02*
X149505200Y-74731428D01*
X149505200Y-74731428D02*
X149409961Y-74826666D01*
X149409961Y-74826666D02*
X149314723Y-74874285D01*
X149314723Y-74874285D02*
X149124247Y-74921904D01*
X149124247Y-74921904D02*
X148981390Y-74921904D01*
X148981390Y-74921904D02*
X148790914Y-74874285D01*
X148790914Y-74874285D02*
X148695676Y-74826666D01*
X148695676Y-74826666D02*
X148600438Y-74731428D01*
X148600438Y-74731428D02*
X148552819Y-74588571D01*
X148552819Y-74588571D02*
X148552819Y-74493333D01*
X148552819Y-74493333D02*
X148600438Y-74350476D01*
X148600438Y-74350476D02*
X148648057Y-74302857D01*
X149552819Y-73350476D02*
X149552819Y-73921904D01*
X149552819Y-73636190D02*
X148552819Y-73636190D01*
X148552819Y-73636190D02*
X148695676Y-73731428D01*
X148695676Y-73731428D02*
X148790914Y-73826666D01*
X148790914Y-73826666D02*
X148838533Y-73921904D01*
X148886152Y-72493333D02*
X149552819Y-72493333D01*
X148505200Y-72731428D02*
X149219485Y-72969523D01*
X149219485Y-72969523D02*
X149219485Y-72350476D01*
X148153523Y-85798819D02*
X147820190Y-85322628D01*
X147582095Y-85798819D02*
X147582095Y-84798819D01*
X147582095Y-84798819D02*
X147963047Y-84798819D01*
X147963047Y-84798819D02*
X148058285Y-84846438D01*
X148058285Y-84846438D02*
X148105904Y-84894057D01*
X148105904Y-84894057D02*
X148153523Y-84989295D01*
X148153523Y-84989295D02*
X148153523Y-85132152D01*
X148153523Y-85132152D02*
X148105904Y-85227390D01*
X148105904Y-85227390D02*
X148058285Y-85275009D01*
X148058285Y-85275009D02*
X147963047Y-85322628D01*
X147963047Y-85322628D02*
X147582095Y-85322628D01*
X148582095Y-85798819D02*
X148582095Y-84798819D01*
X148582095Y-84798819D02*
X149153523Y-85798819D01*
X149153523Y-85798819D02*
X149153523Y-84798819D01*
X150153523Y-85798819D02*
X149582095Y-85798819D01*
X149867809Y-85798819D02*
X149867809Y-84798819D01*
X149867809Y-84798819D02*
X149772571Y-84941676D01*
X149772571Y-84941676D02*
X149677333Y-85036914D01*
X149677333Y-85036914D02*
X149582095Y-85084533D01*
X151854819Y-72643904D02*
X152664342Y-72643904D01*
X152664342Y-72643904D02*
X152759580Y-72596285D01*
X152759580Y-72596285D02*
X152807200Y-72548666D01*
X152807200Y-72548666D02*
X152854819Y-72453428D01*
X152854819Y-72453428D02*
X152854819Y-72262952D01*
X152854819Y-72262952D02*
X152807200Y-72167714D01*
X152807200Y-72167714D02*
X152759580Y-72120095D01*
X152759580Y-72120095D02*
X152664342Y-72072476D01*
X152664342Y-72072476D02*
X151854819Y-72072476D01*
X151950057Y-71643904D02*
X151902438Y-71596285D01*
X151902438Y-71596285D02*
X151854819Y-71501047D01*
X151854819Y-71501047D02*
X151854819Y-71262952D01*
X151854819Y-71262952D02*
X151902438Y-71167714D01*
X151902438Y-71167714D02*
X151950057Y-71120095D01*
X151950057Y-71120095D02*
X152045295Y-71072476D01*
X152045295Y-71072476D02*
X152140533Y-71072476D01*
X152140533Y-71072476D02*
X152283390Y-71120095D01*
X152283390Y-71120095D02*
X152854819Y-71691523D01*
X152854819Y-71691523D02*
X152854819Y-71072476D01*
X156617200Y-59499332D02*
X156664819Y-59356475D01*
X156664819Y-59356475D02*
X156664819Y-59118380D01*
X156664819Y-59118380D02*
X156617200Y-59023142D01*
X156617200Y-59023142D02*
X156569580Y-58975523D01*
X156569580Y-58975523D02*
X156474342Y-58927904D01*
X156474342Y-58927904D02*
X156379104Y-58927904D01*
X156379104Y-58927904D02*
X156283866Y-58975523D01*
X156283866Y-58975523D02*
X156236247Y-59023142D01*
X156236247Y-59023142D02*
X156188628Y-59118380D01*
X156188628Y-59118380D02*
X156141009Y-59308856D01*
X156141009Y-59308856D02*
X156093390Y-59404094D01*
X156093390Y-59404094D02*
X156045771Y-59451713D01*
X156045771Y-59451713D02*
X155950533Y-59499332D01*
X155950533Y-59499332D02*
X155855295Y-59499332D01*
X155855295Y-59499332D02*
X155760057Y-59451713D01*
X155760057Y-59451713D02*
X155712438Y-59404094D01*
X155712438Y-59404094D02*
X155664819Y-59308856D01*
X155664819Y-59308856D02*
X155664819Y-59070761D01*
X155664819Y-59070761D02*
X155712438Y-58927904D01*
X155664819Y-58594570D02*
X156664819Y-58356475D01*
X156664819Y-58356475D02*
X155950533Y-58165999D01*
X155950533Y-58165999D02*
X156664819Y-57975523D01*
X156664819Y-57975523D02*
X155664819Y-57737428D01*
X156664819Y-56832666D02*
X156664819Y-57404094D01*
X156664819Y-57118380D02*
X155664819Y-57118380D01*
X155664819Y-57118380D02*
X155807676Y-57213618D01*
X155807676Y-57213618D02*
X155902914Y-57308856D01*
X155902914Y-57308856D02*
X155950533Y-57404094D01*
X133723142Y-78845580D02*
X133675523Y-78893200D01*
X133675523Y-78893200D02*
X133532666Y-78940819D01*
X133532666Y-78940819D02*
X133437428Y-78940819D01*
X133437428Y-78940819D02*
X133294571Y-78893200D01*
X133294571Y-78893200D02*
X133199333Y-78797961D01*
X133199333Y-78797961D02*
X133151714Y-78702723D01*
X133151714Y-78702723D02*
X133104095Y-78512247D01*
X133104095Y-78512247D02*
X133104095Y-78369390D01*
X133104095Y-78369390D02*
X133151714Y-78178914D01*
X133151714Y-78178914D02*
X133199333Y-78083676D01*
X133199333Y-78083676D02*
X133294571Y-77988438D01*
X133294571Y-77988438D02*
X133437428Y-77940819D01*
X133437428Y-77940819D02*
X133532666Y-77940819D01*
X133532666Y-77940819D02*
X133675523Y-77988438D01*
X133675523Y-77988438D02*
X133723142Y-78036057D01*
X134675523Y-78940819D02*
X134104095Y-78940819D01*
X134389809Y-78940819D02*
X134389809Y-77940819D01*
X134389809Y-77940819D02*
X134294571Y-78083676D01*
X134294571Y-78083676D02*
X134199333Y-78178914D01*
X134199333Y-78178914D02*
X134104095Y-78226533D01*
X135008857Y-77940819D02*
X135627904Y-77940819D01*
X135627904Y-77940819D02*
X135294571Y-78321771D01*
X135294571Y-78321771D02*
X135437428Y-78321771D01*
X135437428Y-78321771D02*
X135532666Y-78369390D01*
X135532666Y-78369390D02*
X135580285Y-78417009D01*
X135580285Y-78417009D02*
X135627904Y-78512247D01*
X135627904Y-78512247D02*
X135627904Y-78750342D01*
X135627904Y-78750342D02*
X135580285Y-78845580D01*
X135580285Y-78845580D02*
X135532666Y-78893200D01*
X135532666Y-78893200D02*
X135437428Y-78940819D01*
X135437428Y-78940819D02*
X135151714Y-78940819D01*
X135151714Y-78940819D02*
X135056476Y-78893200D01*
X135056476Y-78893200D02*
X135008857Y-78845580D01*
X143089333Y-85068580D02*
X143041714Y-85116200D01*
X143041714Y-85116200D02*
X142898857Y-85163819D01*
X142898857Y-85163819D02*
X142803619Y-85163819D01*
X142803619Y-85163819D02*
X142660762Y-85116200D01*
X142660762Y-85116200D02*
X142565524Y-85020961D01*
X142565524Y-85020961D02*
X142517905Y-84925723D01*
X142517905Y-84925723D02*
X142470286Y-84735247D01*
X142470286Y-84735247D02*
X142470286Y-84592390D01*
X142470286Y-84592390D02*
X142517905Y-84401914D01*
X142517905Y-84401914D02*
X142565524Y-84306676D01*
X142565524Y-84306676D02*
X142660762Y-84211438D01*
X142660762Y-84211438D02*
X142803619Y-84163819D01*
X142803619Y-84163819D02*
X142898857Y-84163819D01*
X142898857Y-84163819D02*
X143041714Y-84211438D01*
X143041714Y-84211438D02*
X143089333Y-84259057D01*
X143422667Y-84163819D02*
X144089333Y-84163819D01*
X144089333Y-84163819D02*
X143660762Y-85163819D01*
X132929333Y-65383580D02*
X132881714Y-65431200D01*
X132881714Y-65431200D02*
X132738857Y-65478819D01*
X132738857Y-65478819D02*
X132643619Y-65478819D01*
X132643619Y-65478819D02*
X132500762Y-65431200D01*
X132500762Y-65431200D02*
X132405524Y-65335961D01*
X132405524Y-65335961D02*
X132357905Y-65240723D01*
X132357905Y-65240723D02*
X132310286Y-65050247D01*
X132310286Y-65050247D02*
X132310286Y-64907390D01*
X132310286Y-64907390D02*
X132357905Y-64716914D01*
X132357905Y-64716914D02*
X132405524Y-64621676D01*
X132405524Y-64621676D02*
X132500762Y-64526438D01*
X132500762Y-64526438D02*
X132643619Y-64478819D01*
X132643619Y-64478819D02*
X132738857Y-64478819D01*
X132738857Y-64478819D02*
X132881714Y-64526438D01*
X132881714Y-64526438D02*
X132929333Y-64574057D01*
X133786476Y-64478819D02*
X133596000Y-64478819D01*
X133596000Y-64478819D02*
X133500762Y-64526438D01*
X133500762Y-64526438D02*
X133453143Y-64574057D01*
X133453143Y-64574057D02*
X133357905Y-64716914D01*
X133357905Y-64716914D02*
X133310286Y-64907390D01*
X133310286Y-64907390D02*
X133310286Y-65288342D01*
X133310286Y-65288342D02*
X133357905Y-65383580D01*
X133357905Y-65383580D02*
X133405524Y-65431200D01*
X133405524Y-65431200D02*
X133500762Y-65478819D01*
X133500762Y-65478819D02*
X133691238Y-65478819D01*
X133691238Y-65478819D02*
X133786476Y-65431200D01*
X133786476Y-65431200D02*
X133834095Y-65383580D01*
X133834095Y-65383580D02*
X133881714Y-65288342D01*
X133881714Y-65288342D02*
X133881714Y-65050247D01*
X133881714Y-65050247D02*
X133834095Y-64955009D01*
X133834095Y-64955009D02*
X133786476Y-64907390D01*
X133786476Y-64907390D02*
X133691238Y-64859771D01*
X133691238Y-64859771D02*
X133500762Y-64859771D01*
X133500762Y-64859771D02*
X133405524Y-64907390D01*
X133405524Y-64907390D02*
X133357905Y-64955009D01*
X133357905Y-64955009D02*
X133310286Y-65050247D01*
X139170580Y-85859857D02*
X139218200Y-85907476D01*
X139218200Y-85907476D02*
X139265819Y-86050333D01*
X139265819Y-86050333D02*
X139265819Y-86145571D01*
X139265819Y-86145571D02*
X139218200Y-86288428D01*
X139218200Y-86288428D02*
X139122961Y-86383666D01*
X139122961Y-86383666D02*
X139027723Y-86431285D01*
X139027723Y-86431285D02*
X138837247Y-86478904D01*
X138837247Y-86478904D02*
X138694390Y-86478904D01*
X138694390Y-86478904D02*
X138503914Y-86431285D01*
X138503914Y-86431285D02*
X138408676Y-86383666D01*
X138408676Y-86383666D02*
X138313438Y-86288428D01*
X138313438Y-86288428D02*
X138265819Y-86145571D01*
X138265819Y-86145571D02*
X138265819Y-86050333D01*
X138265819Y-86050333D02*
X138313438Y-85907476D01*
X138313438Y-85907476D02*
X138361057Y-85859857D01*
X139265819Y-84907476D02*
X139265819Y-85478904D01*
X139265819Y-85193190D02*
X138265819Y-85193190D01*
X138265819Y-85193190D02*
X138408676Y-85288428D01*
X138408676Y-85288428D02*
X138503914Y-85383666D01*
X138503914Y-85383666D02*
X138551533Y-85478904D01*
X139265819Y-83955095D02*
X139265819Y-84526523D01*
X139265819Y-84240809D02*
X138265819Y-84240809D01*
X138265819Y-84240809D02*
X138408676Y-84336047D01*
X138408676Y-84336047D02*
X138503914Y-84431285D01*
X138503914Y-84431285D02*
X138551533Y-84526523D01*
X133058819Y-55197333D02*
X133773104Y-55197333D01*
X133773104Y-55197333D02*
X133915961Y-55244952D01*
X133915961Y-55244952D02*
X134011200Y-55340190D01*
X134011200Y-55340190D02*
X134058819Y-55483047D01*
X134058819Y-55483047D02*
X134058819Y-55578285D01*
X133392152Y-54292571D02*
X134058819Y-54292571D01*
X133011200Y-54530666D02*
X133725485Y-54768761D01*
X133725485Y-54768761D02*
X133725485Y-54149714D01*
X132947580Y-84970857D02*
X132995200Y-85018476D01*
X132995200Y-85018476D02*
X133042819Y-85161333D01*
X133042819Y-85161333D02*
X133042819Y-85256571D01*
X133042819Y-85256571D02*
X132995200Y-85399428D01*
X132995200Y-85399428D02*
X132899961Y-85494666D01*
X132899961Y-85494666D02*
X132804723Y-85542285D01*
X132804723Y-85542285D02*
X132614247Y-85589904D01*
X132614247Y-85589904D02*
X132471390Y-85589904D01*
X132471390Y-85589904D02*
X132280914Y-85542285D01*
X132280914Y-85542285D02*
X132185676Y-85494666D01*
X132185676Y-85494666D02*
X132090438Y-85399428D01*
X132090438Y-85399428D02*
X132042819Y-85256571D01*
X132042819Y-85256571D02*
X132042819Y-85161333D01*
X132042819Y-85161333D02*
X132090438Y-85018476D01*
X132090438Y-85018476D02*
X132138057Y-84970857D01*
X133042819Y-84018476D02*
X133042819Y-84589904D01*
X133042819Y-84304190D02*
X132042819Y-84304190D01*
X132042819Y-84304190D02*
X132185676Y-84399428D01*
X132185676Y-84399428D02*
X132280914Y-84494666D01*
X132280914Y-84494666D02*
X132328533Y-84589904D01*
X132042819Y-83685142D02*
X132042819Y-83018476D01*
X132042819Y-83018476D02*
X133042819Y-83447047D01*
X147171580Y-85383666D02*
X147219200Y-85431285D01*
X147219200Y-85431285D02*
X147266819Y-85574142D01*
X147266819Y-85574142D02*
X147266819Y-85669380D01*
X147266819Y-85669380D02*
X147219200Y-85812237D01*
X147219200Y-85812237D02*
X147123961Y-85907475D01*
X147123961Y-85907475D02*
X147028723Y-85955094D01*
X147028723Y-85955094D02*
X146838247Y-86002713D01*
X146838247Y-86002713D02*
X146695390Y-86002713D01*
X146695390Y-86002713D02*
X146504914Y-85955094D01*
X146504914Y-85955094D02*
X146409676Y-85907475D01*
X146409676Y-85907475D02*
X146314438Y-85812237D01*
X146314438Y-85812237D02*
X146266819Y-85669380D01*
X146266819Y-85669380D02*
X146266819Y-85574142D01*
X146266819Y-85574142D02*
X146314438Y-85431285D01*
X146314438Y-85431285D02*
X146362057Y-85383666D01*
X147266819Y-84907475D02*
X147266819Y-84716999D01*
X147266819Y-84716999D02*
X147219200Y-84621761D01*
X147219200Y-84621761D02*
X147171580Y-84574142D01*
X147171580Y-84574142D02*
X147028723Y-84478904D01*
X147028723Y-84478904D02*
X146838247Y-84431285D01*
X146838247Y-84431285D02*
X146457295Y-84431285D01*
X146457295Y-84431285D02*
X146362057Y-84478904D01*
X146362057Y-84478904D02*
X146314438Y-84526523D01*
X146314438Y-84526523D02*
X146266819Y-84621761D01*
X146266819Y-84621761D02*
X146266819Y-84812237D01*
X146266819Y-84812237D02*
X146314438Y-84907475D01*
X146314438Y-84907475D02*
X146362057Y-84955094D01*
X146362057Y-84955094D02*
X146457295Y-85002713D01*
X146457295Y-85002713D02*
X146695390Y-85002713D01*
X146695390Y-85002713D02*
X146790628Y-84955094D01*
X146790628Y-84955094D02*
X146838247Y-84907475D01*
X146838247Y-84907475D02*
X146885866Y-84812237D01*
X146885866Y-84812237D02*
X146885866Y-84621761D01*
X146885866Y-84621761D02*
X146838247Y-84526523D01*
X146838247Y-84526523D02*
X146790628Y-84478904D01*
X146790628Y-84478904D02*
X146695390Y-84431285D01*
X148028819Y-79922666D02*
X147552628Y-80255999D01*
X148028819Y-80494094D02*
X147028819Y-80494094D01*
X147028819Y-80494094D02*
X147028819Y-80113142D01*
X147028819Y-80113142D02*
X147076438Y-80017904D01*
X147076438Y-80017904D02*
X147124057Y-79970285D01*
X147124057Y-79970285D02*
X147219295Y-79922666D01*
X147219295Y-79922666D02*
X147362152Y-79922666D01*
X147362152Y-79922666D02*
X147457390Y-79970285D01*
X147457390Y-79970285D02*
X147505009Y-80017904D01*
X147505009Y-80017904D02*
X147552628Y-80113142D01*
X147552628Y-80113142D02*
X147552628Y-80494094D01*
X147028819Y-79589332D02*
X147028819Y-78970285D01*
X147028819Y-78970285D02*
X147409771Y-79303618D01*
X147409771Y-79303618D02*
X147409771Y-79160761D01*
X147409771Y-79160761D02*
X147457390Y-79065523D01*
X147457390Y-79065523D02*
X147505009Y-79017904D01*
X147505009Y-79017904D02*
X147600247Y-78970285D01*
X147600247Y-78970285D02*
X147838342Y-78970285D01*
X147838342Y-78970285D02*
X147933580Y-79017904D01*
X147933580Y-79017904D02*
X147981200Y-79065523D01*
X147981200Y-79065523D02*
X148028819Y-79160761D01*
X148028819Y-79160761D02*
X148028819Y-79446475D01*
X148028819Y-79446475D02*
X147981200Y-79541713D01*
X147981200Y-79541713D02*
X147933580Y-79589332D01*
X151330819Y-78843094D02*
X150330819Y-78843094D01*
X150330819Y-78843094D02*
X150330819Y-78604999D01*
X150330819Y-78604999D02*
X150378438Y-78462142D01*
X150378438Y-78462142D02*
X150473676Y-78366904D01*
X150473676Y-78366904D02*
X150568914Y-78319285D01*
X150568914Y-78319285D02*
X150759390Y-78271666D01*
X150759390Y-78271666D02*
X150902247Y-78271666D01*
X150902247Y-78271666D02*
X151092723Y-78319285D01*
X151092723Y-78319285D02*
X151187961Y-78366904D01*
X151187961Y-78366904D02*
X151283200Y-78462142D01*
X151283200Y-78462142D02*
X151330819Y-78604999D01*
X151330819Y-78604999D02*
X151330819Y-78843094D01*
X150426057Y-77890713D02*
X150378438Y-77843094D01*
X150378438Y-77843094D02*
X150330819Y-77747856D01*
X150330819Y-77747856D02*
X150330819Y-77509761D01*
X150330819Y-77509761D02*
X150378438Y-77414523D01*
X150378438Y-77414523D02*
X150426057Y-77366904D01*
X150426057Y-77366904D02*
X150521295Y-77319285D01*
X150521295Y-77319285D02*
X150616533Y-77319285D01*
X150616533Y-77319285D02*
X150759390Y-77366904D01*
X150759390Y-77366904D02*
X151330819Y-77938332D01*
X151330819Y-77938332D02*
X151330819Y-77319285D01*
X154328905Y-67891819D02*
X154328905Y-66891819D01*
X154328905Y-66891819D02*
X154567000Y-66891819D01*
X154567000Y-66891819D02*
X154709857Y-66939438D01*
X154709857Y-66939438D02*
X154805095Y-67034676D01*
X154805095Y-67034676D02*
X154852714Y-67129914D01*
X154852714Y-67129914D02*
X154900333Y-67320390D01*
X154900333Y-67320390D02*
X154900333Y-67463247D01*
X154900333Y-67463247D02*
X154852714Y-67653723D01*
X154852714Y-67653723D02*
X154805095Y-67748961D01*
X154805095Y-67748961D02*
X154709857Y-67844200D01*
X154709857Y-67844200D02*
X154567000Y-67891819D01*
X154567000Y-67891819D02*
X154328905Y-67891819D01*
X155852714Y-67891819D02*
X155281286Y-67891819D01*
X155567000Y-67891819D02*
X155567000Y-66891819D01*
X155567000Y-66891819D02*
X155471762Y-67034676D01*
X155471762Y-67034676D02*
X155376524Y-67129914D01*
X155376524Y-67129914D02*
X155281286Y-67177533D01*
X129391580Y-68714857D02*
X129439200Y-68762476D01*
X129439200Y-68762476D02*
X129486819Y-68905333D01*
X129486819Y-68905333D02*
X129486819Y-69000571D01*
X129486819Y-69000571D02*
X129439200Y-69143428D01*
X129439200Y-69143428D02*
X129343961Y-69238666D01*
X129343961Y-69238666D02*
X129248723Y-69286285D01*
X129248723Y-69286285D02*
X129058247Y-69333904D01*
X129058247Y-69333904D02*
X128915390Y-69333904D01*
X128915390Y-69333904D02*
X128724914Y-69286285D01*
X128724914Y-69286285D02*
X128629676Y-69238666D01*
X128629676Y-69238666D02*
X128534438Y-69143428D01*
X128534438Y-69143428D02*
X128486819Y-69000571D01*
X128486819Y-69000571D02*
X128486819Y-68905333D01*
X128486819Y-68905333D02*
X128534438Y-68762476D01*
X128534438Y-68762476D02*
X128582057Y-68714857D01*
X129486819Y-67762476D02*
X129486819Y-68333904D01*
X129486819Y-68048190D02*
X128486819Y-68048190D01*
X128486819Y-68048190D02*
X128629676Y-68143428D01*
X128629676Y-68143428D02*
X128724914Y-68238666D01*
X128724914Y-68238666D02*
X128772533Y-68333904D01*
X128915390Y-67191047D02*
X128867771Y-67286285D01*
X128867771Y-67286285D02*
X128820152Y-67333904D01*
X128820152Y-67333904D02*
X128724914Y-67381523D01*
X128724914Y-67381523D02*
X128677295Y-67381523D01*
X128677295Y-67381523D02*
X128582057Y-67333904D01*
X128582057Y-67333904D02*
X128534438Y-67286285D01*
X128534438Y-67286285D02*
X128486819Y-67191047D01*
X128486819Y-67191047D02*
X128486819Y-67000571D01*
X128486819Y-67000571D02*
X128534438Y-66905333D01*
X128534438Y-66905333D02*
X128582057Y-66857714D01*
X128582057Y-66857714D02*
X128677295Y-66810095D01*
X128677295Y-66810095D02*
X128724914Y-66810095D01*
X128724914Y-66810095D02*
X128820152Y-66857714D01*
X128820152Y-66857714D02*
X128867771Y-66905333D01*
X128867771Y-66905333D02*
X128915390Y-67000571D01*
X128915390Y-67000571D02*
X128915390Y-67191047D01*
X128915390Y-67191047D02*
X128963009Y-67286285D01*
X128963009Y-67286285D02*
X129010628Y-67333904D01*
X129010628Y-67333904D02*
X129105866Y-67381523D01*
X129105866Y-67381523D02*
X129296342Y-67381523D01*
X129296342Y-67381523D02*
X129391580Y-67333904D01*
X129391580Y-67333904D02*
X129439200Y-67286285D01*
X129439200Y-67286285D02*
X129486819Y-67191047D01*
X129486819Y-67191047D02*
X129486819Y-67000571D01*
X129486819Y-67000571D02*
X129439200Y-66905333D01*
X129439200Y-66905333D02*
X129391580Y-66857714D01*
X129391580Y-66857714D02*
X129296342Y-66810095D01*
X129296342Y-66810095D02*
X129105866Y-66810095D01*
X129105866Y-66810095D02*
X129010628Y-66857714D01*
X129010628Y-66857714D02*
X128963009Y-66905333D01*
X128963009Y-66905333D02*
X128915390Y-67000571D01*
X131169580Y-67476666D02*
X131217200Y-67524285D01*
X131217200Y-67524285D02*
X131264819Y-67667142D01*
X131264819Y-67667142D02*
X131264819Y-67762380D01*
X131264819Y-67762380D02*
X131217200Y-67905237D01*
X131217200Y-67905237D02*
X131121961Y-68000475D01*
X131121961Y-68000475D02*
X131026723Y-68048094D01*
X131026723Y-68048094D02*
X130836247Y-68095713D01*
X130836247Y-68095713D02*
X130693390Y-68095713D01*
X130693390Y-68095713D02*
X130502914Y-68048094D01*
X130502914Y-68048094D02*
X130407676Y-68000475D01*
X130407676Y-68000475D02*
X130312438Y-67905237D01*
X130312438Y-67905237D02*
X130264819Y-67762380D01*
X130264819Y-67762380D02*
X130264819Y-67667142D01*
X130264819Y-67667142D02*
X130312438Y-67524285D01*
X130312438Y-67524285D02*
X130360057Y-67476666D01*
X130264819Y-66571904D02*
X130264819Y-67048094D01*
X130264819Y-67048094D02*
X130741009Y-67095713D01*
X130741009Y-67095713D02*
X130693390Y-67048094D01*
X130693390Y-67048094D02*
X130645771Y-66952856D01*
X130645771Y-66952856D02*
X130645771Y-66714761D01*
X130645771Y-66714761D02*
X130693390Y-66619523D01*
X130693390Y-66619523D02*
X130741009Y-66571904D01*
X130741009Y-66571904D02*
X130836247Y-66524285D01*
X130836247Y-66524285D02*
X131074342Y-66524285D01*
X131074342Y-66524285D02*
X131169580Y-66571904D01*
X131169580Y-66571904D02*
X131217200Y-66619523D01*
X131217200Y-66619523D02*
X131264819Y-66714761D01*
X131264819Y-66714761D02*
X131264819Y-66952856D01*
X131264819Y-66952856D02*
X131217200Y-67048094D01*
X131217200Y-67048094D02*
X131169580Y-67095713D01*
X155725905Y-78432819D02*
X155725905Y-77432819D01*
X155725905Y-77432819D02*
X155964000Y-77432819D01*
X155964000Y-77432819D02*
X156106857Y-77480438D01*
X156106857Y-77480438D02*
X156202095Y-77575676D01*
X156202095Y-77575676D02*
X156249714Y-77670914D01*
X156249714Y-77670914D02*
X156297333Y-77861390D01*
X156297333Y-77861390D02*
X156297333Y-78004247D01*
X156297333Y-78004247D02*
X156249714Y-78194723D01*
X156249714Y-78194723D02*
X156202095Y-78289961D01*
X156202095Y-78289961D02*
X156106857Y-78385200D01*
X156106857Y-78385200D02*
X155964000Y-78432819D01*
X155964000Y-78432819D02*
X155725905Y-78432819D01*
X156630667Y-77432819D02*
X157249714Y-77432819D01*
X157249714Y-77432819D02*
X156916381Y-77813771D01*
X156916381Y-77813771D02*
X157059238Y-77813771D01*
X157059238Y-77813771D02*
X157154476Y-77861390D01*
X157154476Y-77861390D02*
X157202095Y-77909009D01*
X157202095Y-77909009D02*
X157249714Y-78004247D01*
X157249714Y-78004247D02*
X157249714Y-78242342D01*
X157249714Y-78242342D02*
X157202095Y-78337580D01*
X157202095Y-78337580D02*
X157154476Y-78385200D01*
X157154476Y-78385200D02*
X157059238Y-78432819D01*
X157059238Y-78432819D02*
X156773524Y-78432819D01*
X156773524Y-78432819D02*
X156678286Y-78385200D01*
X156678286Y-78385200D02*
X156630667Y-78337580D01*
X128809761Y-62272057D02*
X128714523Y-62224438D01*
X128714523Y-62224438D02*
X128619285Y-62129200D01*
X128619285Y-62129200D02*
X128476428Y-61986342D01*
X128476428Y-61986342D02*
X128381190Y-61938723D01*
X128381190Y-61938723D02*
X128285952Y-61938723D01*
X128333571Y-62176819D02*
X128238333Y-62129200D01*
X128238333Y-62129200D02*
X128143095Y-62033961D01*
X128143095Y-62033961D02*
X128095476Y-61843485D01*
X128095476Y-61843485D02*
X128095476Y-61510152D01*
X128095476Y-61510152D02*
X128143095Y-61319676D01*
X128143095Y-61319676D02*
X128238333Y-61224438D01*
X128238333Y-61224438D02*
X128333571Y-61176819D01*
X128333571Y-61176819D02*
X128524047Y-61176819D01*
X128524047Y-61176819D02*
X128619285Y-61224438D01*
X128619285Y-61224438D02*
X128714523Y-61319676D01*
X128714523Y-61319676D02*
X128762142Y-61510152D01*
X128762142Y-61510152D02*
X128762142Y-61843485D01*
X128762142Y-61843485D02*
X128714523Y-62033961D01*
X128714523Y-62033961D02*
X128619285Y-62129200D01*
X128619285Y-62129200D02*
X128524047Y-62176819D01*
X128524047Y-62176819D02*
X128333571Y-62176819D01*
X129143095Y-61272057D02*
X129190714Y-61224438D01*
X129190714Y-61224438D02*
X129285952Y-61176819D01*
X129285952Y-61176819D02*
X129524047Y-61176819D01*
X129524047Y-61176819D02*
X129619285Y-61224438D01*
X129619285Y-61224438D02*
X129666904Y-61272057D01*
X129666904Y-61272057D02*
X129714523Y-61367295D01*
X129714523Y-61367295D02*
X129714523Y-61462533D01*
X129714523Y-61462533D02*
X129666904Y-61605390D01*
X129666904Y-61605390D02*
X129095476Y-62176819D01*
X129095476Y-62176819D02*
X129714523Y-62176819D01*
X162734666Y-77432819D02*
X162734666Y-78147104D01*
X162734666Y-78147104D02*
X162687047Y-78289961D01*
X162687047Y-78289961D02*
X162591809Y-78385200D01*
X162591809Y-78385200D02*
X162448952Y-78432819D01*
X162448952Y-78432819D02*
X162353714Y-78432819D01*
X163115619Y-77432819D02*
X163734666Y-77432819D01*
X163734666Y-77432819D02*
X163401333Y-77813771D01*
X163401333Y-77813771D02*
X163544190Y-77813771D01*
X163544190Y-77813771D02*
X163639428Y-77861390D01*
X163639428Y-77861390D02*
X163687047Y-77909009D01*
X163687047Y-77909009D02*
X163734666Y-78004247D01*
X163734666Y-78004247D02*
X163734666Y-78242342D01*
X163734666Y-78242342D02*
X163687047Y-78337580D01*
X163687047Y-78337580D02*
X163639428Y-78385200D01*
X163639428Y-78385200D02*
X163544190Y-78432819D01*
X163544190Y-78432819D02*
X163258476Y-78432819D01*
X163258476Y-78432819D02*
X163163238Y-78385200D01*
X163163238Y-78385200D02*
X163115619Y-78337580D01*
X145742819Y-85256666D02*
X145742819Y-85732856D01*
X145742819Y-85732856D02*
X144742819Y-85732856D01*
X145742819Y-84399523D02*
X145742819Y-84970951D01*
X145742819Y-84685237D02*
X144742819Y-84685237D01*
X144742819Y-84685237D02*
X144885676Y-84780475D01*
X144885676Y-84780475D02*
X144980914Y-84875713D01*
X144980914Y-84875713D02*
X145028533Y-84970951D01*
X135509095Y-67526819D02*
X135509095Y-68336342D01*
X135509095Y-68336342D02*
X135556714Y-68431580D01*
X135556714Y-68431580D02*
X135604333Y-68479200D01*
X135604333Y-68479200D02*
X135699571Y-68526819D01*
X135699571Y-68526819D02*
X135890047Y-68526819D01*
X135890047Y-68526819D02*
X135985285Y-68479200D01*
X135985285Y-68479200D02*
X136032904Y-68431580D01*
X136032904Y-68431580D02*
X136080523Y-68336342D01*
X136080523Y-68336342D02*
X136080523Y-67526819D01*
X136461476Y-67526819D02*
X137080523Y-67526819D01*
X137080523Y-67526819D02*
X136747190Y-67907771D01*
X136747190Y-67907771D02*
X136890047Y-67907771D01*
X136890047Y-67907771D02*
X136985285Y-67955390D01*
X136985285Y-67955390D02*
X137032904Y-68003009D01*
X137032904Y-68003009D02*
X137080523Y-68098247D01*
X137080523Y-68098247D02*
X137080523Y-68336342D01*
X137080523Y-68336342D02*
X137032904Y-68431580D01*
X137032904Y-68431580D02*
X136985285Y-68479200D01*
X136985285Y-68479200D02*
X136890047Y-68526819D01*
X136890047Y-68526819D02*
X136604333Y-68526819D01*
X136604333Y-68526819D02*
X136509095Y-68479200D01*
X136509095Y-68479200D02*
X136461476Y-68431580D01*
X148281580Y-69984857D02*
X148329200Y-70032476D01*
X148329200Y-70032476D02*
X148376819Y-70175333D01*
X148376819Y-70175333D02*
X148376819Y-70270571D01*
X148376819Y-70270571D02*
X148329200Y-70413428D01*
X148329200Y-70413428D02*
X148233961Y-70508666D01*
X148233961Y-70508666D02*
X148138723Y-70556285D01*
X148138723Y-70556285D02*
X147948247Y-70603904D01*
X147948247Y-70603904D02*
X147805390Y-70603904D01*
X147805390Y-70603904D02*
X147614914Y-70556285D01*
X147614914Y-70556285D02*
X147519676Y-70508666D01*
X147519676Y-70508666D02*
X147424438Y-70413428D01*
X147424438Y-70413428D02*
X147376819Y-70270571D01*
X147376819Y-70270571D02*
X147376819Y-70175333D01*
X147376819Y-70175333D02*
X147424438Y-70032476D01*
X147424438Y-70032476D02*
X147472057Y-69984857D01*
X148376819Y-69032476D02*
X148376819Y-69603904D01*
X148376819Y-69318190D02*
X147376819Y-69318190D01*
X147376819Y-69318190D02*
X147519676Y-69413428D01*
X147519676Y-69413428D02*
X147614914Y-69508666D01*
X147614914Y-69508666D02*
X147662533Y-69603904D01*
X147376819Y-68127714D02*
X147376819Y-68603904D01*
X147376819Y-68603904D02*
X147853009Y-68651523D01*
X147853009Y-68651523D02*
X147805390Y-68603904D01*
X147805390Y-68603904D02*
X147757771Y-68508666D01*
X147757771Y-68508666D02*
X147757771Y-68270571D01*
X147757771Y-68270571D02*
X147805390Y-68175333D01*
X147805390Y-68175333D02*
X147853009Y-68127714D01*
X147853009Y-68127714D02*
X147948247Y-68080095D01*
X147948247Y-68080095D02*
X148186342Y-68080095D01*
X148186342Y-68080095D02*
X148281580Y-68127714D01*
X148281580Y-68127714D02*
X148329200Y-68175333D01*
X148329200Y-68175333D02*
X148376819Y-68270571D01*
X148376819Y-68270571D02*
X148376819Y-68508666D01*
X148376819Y-68508666D02*
X148329200Y-68603904D01*
X148329200Y-68603904D02*
X148281580Y-68651523D01*
D12*
%TO.C,R10*%
X126638500Y-78232724D02*
X126638500Y-77723276D01*
X127683500Y-78232724D02*
X127683500Y-77723276D01*
%TO.C,R13*%
X125983276Y-57389500D02*
X126492724Y-57389500D01*
X125983276Y-58434500D02*
X126492724Y-58434500D01*
%TO.C,Q3*%
X122989000Y-66740500D02*
X123174000Y-66740500D01*
X122989000Y-70010500D02*
X122989000Y-66740500D01*
X122989000Y-70010500D02*
X123174000Y-70010500D01*
X126074000Y-66740500D02*
X126259000Y-66740500D01*
X126074000Y-70010500D02*
X126259000Y-70010500D01*
X126259000Y-70010500D02*
X126259000Y-66740500D01*
X123164000Y-70730500D02*
X122764000Y-70330500D01*
X123164000Y-70330500D01*
X123164000Y-70730500D01*
G36*
X123164000Y-70730500D02*
G01*
X122764000Y-70330500D01*
X123164000Y-70330500D01*
X123164000Y-70730500D01*
G37*
%TO.C,R20*%
X124242276Y-64882500D02*
X124751724Y-64882500D01*
X124242276Y-65927500D02*
X124751724Y-65927500D01*
%TO.C,C10*%
X131951000Y-75457267D02*
X131951000Y-75164733D01*
X132971000Y-75457267D02*
X132971000Y-75164733D01*
%TO.C,J1*%
X115784500Y-63404000D02*
X115784500Y-64724000D01*
X115784500Y-65324000D02*
X115784500Y-79344000D01*
X116404500Y-63404000D02*
X116404500Y-79344000D01*
X121704500Y-63404000D02*
X121704500Y-79344000D01*
X122224500Y-63404000D02*
X115784500Y-63404000D01*
X122224500Y-63404000D02*
X122224500Y-79344000D01*
X122224500Y-79344000D02*
X115784500Y-79344000D01*
X115784500Y-65024000D02*
X115174500Y-65464000D01*
X115174500Y-64584000D01*
X115784500Y-65024000D01*
G36*
X115784500Y-65024000D02*
G01*
X115174500Y-65464000D01*
X115174500Y-64584000D01*
X115784500Y-65024000D01*
G37*
%TO.C,R12*%
X124242276Y-72409500D02*
X124751724Y-72409500D01*
X124242276Y-73454500D02*
X124751724Y-73454500D01*
%TO.C,R2*%
X151400742Y-68311500D02*
X151875258Y-68311500D01*
X151400742Y-69356500D02*
X151875258Y-69356500D01*
%TO.C,Q1*%
X122989000Y-74267500D02*
X123174000Y-74267500D01*
X122989000Y-77537500D02*
X122989000Y-74267500D01*
X122989000Y-77537500D02*
X123174000Y-77537500D01*
X126074000Y-74267500D02*
X126259000Y-74267500D01*
X126074000Y-77537500D02*
X126259000Y-77537500D01*
X126259000Y-77537500D02*
X126259000Y-74267500D01*
X123164000Y-78257500D02*
X122764000Y-77857500D01*
X123164000Y-77857500D01*
X123164000Y-78257500D01*
G36*
X123164000Y-78257500D02*
G01*
X122764000Y-77857500D01*
X123164000Y-77857500D01*
X123164000Y-78257500D01*
G37*
%TO.C,RN2*%
X151990000Y-58858000D02*
X151990000Y-57858000D01*
X155350000Y-58858000D02*
X155350000Y-57858000D01*
%TO.C,C1*%
X152144000Y-80123420D02*
X152144000Y-80404580D01*
X153164000Y-80123420D02*
X153164000Y-80404580D01*
%TO.C,U4*%
X133478000Y-84642000D02*
X133478000Y-84142000D01*
X133778000Y-79442000D02*
X134528000Y-79442000D01*
X133978000Y-84642000D02*
X133478000Y-84642000D01*
X136278000Y-79442000D02*
X136778000Y-79442000D01*
X136778000Y-79442000D02*
X136778000Y-79942000D01*
X136778000Y-84142000D02*
X136778000Y-84642000D01*
X136778000Y-84642000D02*
X136278000Y-84642000D01*
X133578000Y-79442000D02*
X133218000Y-79442000D01*
X133578000Y-79082000D01*
X133578000Y-79442000D01*
G36*
X133578000Y-79442000D02*
G01*
X133218000Y-79442000D01*
X133578000Y-79082000D01*
X133578000Y-79442000D01*
G37*
%TO.C,C12*%
X133242267Y-70356000D02*
X132949733Y-70356000D01*
X133242267Y-71376000D02*
X132949733Y-71376000D01*
%TO.C,C2*%
X153668000Y-84441420D02*
X153668000Y-84722580D01*
X154688000Y-84441420D02*
X154688000Y-84722580D01*
%TO.C,JP2*%
X129048000Y-81218000D02*
X129048000Y-79818000D01*
X129748000Y-79118000D02*
X130348000Y-79118000D01*
X130348000Y-81918000D02*
X129748000Y-81918000D01*
X131048000Y-79818000D02*
X131048000Y-81218000D01*
X129048000Y-79818000D02*
G75*
G02*
X129748000Y-79118000I700000J0D01*
G01*
X129748000Y-81918000D02*
G75*
G02*
X129048000Y-81218000I-1J699999D01*
G01*
X130348000Y-79118000D02*
G75*
G02*
X131048000Y-79818000I0J-700000D01*
G01*
X131048000Y-81218000D02*
G75*
G02*
X130348000Y-81918000I-699999J-1D01*
G01*
%TO.C,U5*%
X128180000Y-73320000D02*
X128355000Y-73320000D01*
X128180000Y-73995000D02*
X128180000Y-73320000D01*
X128180000Y-75865000D02*
X128180000Y-76540000D01*
X128180000Y-76540000D02*
X128355000Y-76540000D01*
X130900000Y-73995000D02*
X130900000Y-73620000D01*
X130900000Y-75865000D02*
X130900000Y-76540000D01*
X130900000Y-76540000D02*
X130725000Y-76540000D01*
X131090000Y-73460000D02*
X130900000Y-73320000D01*
X131090000Y-73180000D01*
X131090000Y-73460000D01*
G36*
X131090000Y-73460000D02*
G01*
X130900000Y-73320000D01*
X131090000Y-73180000D01*
X131090000Y-73460000D01*
G37*
%TO.C,R14*%
X126492724Y-58913500D02*
X125983276Y-58913500D01*
X126492724Y-59958500D02*
X125983276Y-59958500D01*
%TO.C,C4*%
X143021267Y-81151000D02*
X142728733Y-81151000D01*
X143021267Y-82171000D02*
X142728733Y-82171000D01*
%TO.C,R16*%
X128255500Y-59308276D02*
X128255500Y-59817724D01*
X129300500Y-59308276D02*
X129300500Y-59817724D01*
%TO.C,C3*%
X155700000Y-84441420D02*
X155700000Y-84722580D01*
X156720000Y-84441420D02*
X156720000Y-84722580D01*
%TO.C,R19*%
X126638500Y-66039276D02*
X126638500Y-66548724D01*
X127683500Y-66039276D02*
X127683500Y-66548724D01*
%TO.C,R1*%
X125746742Y-79995500D02*
X126221258Y-79995500D01*
X125746742Y-81040500D02*
X126221258Y-81040500D01*
%TO.C,R8*%
X159050258Y-65263500D02*
X158575742Y-65263500D01*
X159050258Y-66308500D02*
X158575742Y-66308500D01*
%TO.C,U1*%
X153634000Y-80772000D02*
X153634000Y-79972000D01*
X153634000Y-80772000D02*
X153634000Y-81572000D01*
X156754000Y-80772000D02*
X156754000Y-79972000D01*
X156754000Y-80772000D02*
X156754000Y-81572000D01*
X157034000Y-79712000D02*
X156704000Y-79472000D01*
X157034000Y-79232000D01*
X157034000Y-79712000D01*
G36*
X157034000Y-79712000D02*
G01*
X156704000Y-79472000D01*
X157034000Y-79232000D01*
X157034000Y-79712000D01*
G37*
%TO.C,R7*%
X159050258Y-77455500D02*
X158575742Y-77455500D01*
X159050258Y-78500500D02*
X158575742Y-78500500D01*
%TO.C,JP1*%
X150096000Y-87930000D02*
X150096000Y-87330000D01*
X150796000Y-86630000D02*
X152196000Y-86630000D01*
X152196000Y-88630000D02*
X150796000Y-88630000D01*
X152896000Y-87330000D02*
X152896000Y-87930000D01*
X150096000Y-87330000D02*
G75*
G02*
X150796000Y-86630000I700000J0D01*
G01*
X150796000Y-88630000D02*
G75*
G02*
X150096000Y-87930000I0J700000D01*
G01*
X152196000Y-86630000D02*
G75*
G02*
X152896000Y-87330000I1J-699999D01*
G01*
X152896000Y-87930000D02*
G75*
G02*
X152196000Y-88630000I-699999J-1D01*
G01*
%TO.C,D4*%
X119837000Y-60849000D02*
X119837000Y-62849000D01*
X119837000Y-60849000D02*
X123697000Y-60849000D01*
X119837000Y-62849000D02*
X123697000Y-62849000D01*
%TO.C,R15*%
X128255500Y-63499276D02*
X128255500Y-64008724D01*
X129300500Y-63499276D02*
X129300500Y-64008724D01*
%TO.C,R9*%
X124242276Y-78378500D02*
X124751724Y-78378500D01*
X124242276Y-79423500D02*
X124751724Y-79423500D01*
%TO.C,J5*%
X125380000Y-82632000D02*
X125380000Y-89072000D01*
X125380000Y-82632000D02*
X131160000Y-82632000D01*
X125380000Y-83152000D02*
X131160000Y-83152000D01*
X125380000Y-88452000D02*
X125970000Y-88452000D01*
X125380000Y-89072000D02*
X125970000Y-89072000D01*
X128030000Y-88452000D02*
X128510000Y-88452000D01*
X128030000Y-89072000D02*
X128510000Y-89072000D01*
X130570000Y-88452000D02*
X131160000Y-88452000D01*
X130570000Y-89072000D02*
X131160000Y-89072000D01*
X131160000Y-82632000D02*
X131160000Y-89072000D01*
X127440000Y-90032000D02*
X126560000Y-90032000D01*
X127000000Y-89422000D01*
X127440000Y-90032000D01*
G36*
X127440000Y-90032000D02*
G01*
X126560000Y-90032000D01*
X127000000Y-89422000D01*
X127440000Y-90032000D01*
G37*
%TO.C,C16*%
X132849000Y-57988233D02*
X132849000Y-58280767D01*
X133869000Y-57988233D02*
X133869000Y-58280767D01*
%TO.C,C8*%
X133242267Y-68832000D02*
X132949733Y-68832000D01*
X133242267Y-69852000D02*
X132949733Y-69852000D01*
%TO.C,C14*%
X148588000Y-76981267D02*
X148588000Y-76688733D01*
X149608000Y-76981267D02*
X149608000Y-76688733D01*
%TO.C,RN1*%
X147926000Y-82812000D02*
X147926000Y-83812000D01*
X151286000Y-82812000D02*
X151286000Y-83812000D01*
%TO.C,U2*%
X155194000Y-70322000D02*
X154394000Y-70322000D01*
X155194000Y-70322000D02*
X155994000Y-70322000D01*
X155194000Y-73442000D02*
X154394000Y-73442000D01*
X155194000Y-73442000D02*
X155994000Y-73442000D01*
X156734000Y-73722000D02*
X156254000Y-73722000D01*
X156494000Y-73392000D01*
X156734000Y-73722000D01*
G36*
X156734000Y-73722000D02*
G01*
X156254000Y-73722000D01*
X156494000Y-73392000D01*
X156734000Y-73722000D01*
G37*
%TO.C,R11*%
X126638500Y-73566276D02*
X126638500Y-74075724D01*
X127683500Y-73566276D02*
X127683500Y-74075724D01*
%TO.C,SW1*%
X150910000Y-60011000D02*
X150910000Y-60721000D01*
X150910000Y-66481000D02*
X150910000Y-65771000D01*
X156430000Y-60011000D02*
X150910000Y-60011000D01*
X156430000Y-60011000D02*
X156430000Y-60721000D01*
X156430000Y-66481000D02*
X150910000Y-66481000D01*
X156430000Y-66481000D02*
X156430000Y-65831000D01*
X157010000Y-65831000D02*
X156430000Y-65831000D01*
%TO.C,C13*%
X133475000Y-75457267D02*
X133475000Y-75164733D01*
X134495000Y-75457267D02*
X134495000Y-75164733D01*
%TO.C,C7*%
X143021267Y-82675000D02*
X142728733Y-82675000D01*
X143021267Y-83695000D02*
X142728733Y-83695000D01*
%TO.C,C6*%
X133242267Y-65784000D02*
X132949733Y-65784000D01*
X133242267Y-66804000D02*
X132949733Y-66804000D01*
%TO.C,C11*%
X138301000Y-82403733D02*
X138301000Y-82696267D01*
X139321000Y-82403733D02*
X139321000Y-82696267D01*
%TO.C,J4*%
X135203000Y-52203000D02*
X135203000Y-53603000D01*
X135203000Y-52203000D02*
X149023000Y-52203000D01*
X135203000Y-61903000D02*
X135203000Y-56123000D01*
X135203000Y-64423000D02*
X135203000Y-66923000D01*
X135203000Y-66923000D02*
X149023000Y-66923000D01*
X149023000Y-52203000D02*
X149023000Y-53603000D01*
X149023000Y-56123000D02*
X149023000Y-61903000D01*
X149023000Y-64423000D02*
X149023000Y-66923000D01*
%TO.C,R18*%
X126638500Y-70705724D02*
X126638500Y-70196276D01*
X127683500Y-70705724D02*
X127683500Y-70196276D01*
%TO.C,C19*%
X129393733Y-77214000D02*
X129686267Y-77214000D01*
X129393733Y-78234000D02*
X129686267Y-78234000D01*
%TO.C,C17*%
X132078000Y-80726233D02*
X132078000Y-81018767D01*
X133098000Y-80726233D02*
X133098000Y-81018767D01*
%TO.C,C9*%
X146302000Y-82403733D02*
X146302000Y-82696267D01*
X147322000Y-82403733D02*
X147322000Y-82696267D01*
%TO.C,R3*%
X148575500Y-80026742D02*
X148575500Y-80501258D01*
X149620500Y-80026742D02*
X149620500Y-80501258D01*
%TO.C,D2*%
X150141000Y-79464000D02*
X150141000Y-81749000D01*
X150141000Y-81749000D02*
X151611000Y-81749000D01*
X151611000Y-81749000D02*
X151611000Y-79464000D01*
%TO.C,D1*%
X154267000Y-69569000D02*
X156552000Y-69569000D01*
X156552000Y-68099000D02*
X154267000Y-68099000D01*
X156552000Y-69569000D02*
X156552000Y-68099000D01*
%TO.C,C18*%
X128522000Y-71266267D02*
X128522000Y-70973733D01*
X129542000Y-71266267D02*
X129542000Y-70973733D01*
%TO.C,C5*%
X133242267Y-67308000D02*
X132949733Y-67308000D01*
X133242267Y-68328000D02*
X132949733Y-68328000D01*
%TO.C,D3*%
X157084000Y-74332000D02*
X152024000Y-74332000D01*
X157084000Y-77052000D02*
X152024000Y-77052000D01*
X157084000Y-77052000D02*
X157084000Y-74332000D01*
%TO.C,R17*%
X124242276Y-70851500D02*
X124751724Y-70851500D01*
X124242276Y-71896500D02*
X124751724Y-71896500D01*
%TO.C,Q2*%
X124603000Y-60833500D02*
X124603000Y-64103500D01*
X124788000Y-60833500D02*
X124603000Y-60833500D01*
X124788000Y-64103500D02*
X124603000Y-64103500D01*
X127873000Y-60833500D02*
X127688000Y-60833500D01*
X127873000Y-60833500D02*
X127873000Y-64103500D01*
X127873000Y-64103500D02*
X127688000Y-64103500D01*
X128098000Y-60513500D02*
X127698000Y-60513500D01*
X127698000Y-60113500D01*
X128098000Y-60513500D01*
G36*
X128098000Y-60513500D02*
G01*
X127698000Y-60513500D01*
X127698000Y-60113500D01*
X128098000Y-60513500D01*
G37*
%TO.C,J3*%
X161952000Y-67212000D02*
X160252000Y-67212000D01*
X161952000Y-76552000D02*
X160252000Y-76552000D01*
%TO.C,L1*%
X144778000Y-82378733D02*
X144778000Y-82721267D01*
X145798000Y-82378733D02*
X145798000Y-82721267D01*
%TO.C,U3*%
X136389000Y-68841000D02*
X136389000Y-69791000D01*
X136389000Y-79061000D02*
X136389000Y-78111000D01*
X137339000Y-68841000D02*
X136389000Y-68841000D01*
X137339000Y-79061000D02*
X136389000Y-79061000D01*
X145659000Y-68841000D02*
X146609000Y-68841000D01*
X145659000Y-79061000D02*
X146609000Y-79061000D01*
X146609000Y-68841000D02*
X146609000Y-69791000D01*
X146609000Y-79061000D02*
X146609000Y-78111000D01*
X135774000Y-69791000D02*
X135434000Y-69321000D01*
X136114000Y-69321000D01*
X135774000Y-69791000D01*
G36*
X135774000Y-69791000D02*
G01*
X135434000Y-69321000D01*
X136114000Y-69321000D01*
X135774000Y-69791000D01*
G37*
%TO.C,C15*%
X148842000Y-69488267D02*
X148842000Y-69195733D01*
X149862000Y-69488267D02*
X149862000Y-69195733D01*
%TD*%
M02*
