M48
; DRILL file {KiCad 9.0.1} date 2025-05-21T17:24:45-0400
; FORMAT={-:-/ absolute / metric / decimal}
; #@! TF.CreationDate,2025-05-21T17:24:45-04:00
; #@! TF.GenerationSoftware,Kicad,Pcbnew,9.0.1
; #@! TF.FileFunction,Plated,1,2,PTH
FMAT,2
METRIC
; #@! TA.AperFunction,Plated,PTH,ViaDrill
T1C0.300
; #@! TA.AperFunction,Plated,PTH,ComponentDrill
T2C0.500
; #@! TA.AperFunction,Plated,PTH,ComponentDrill
T3C0.600
; #@! TA.AperFunction,Plated,PTH,ComponentDrill
T4C1.000
; #@! TA.AperFunction,Plated,PTH,ComponentDrill
T5C1.100
; #@! TA.AperFunction,Plated,PTH,ComponentDrill
T6C3.200
%
G90
G05
T1
X122.682Y-78.486
X122.682Y-79.756
X122.722Y-71.374
X122.936Y-72.136
X124.206Y-72.136
X124.46Y-57.912
X124.46Y-65.405
X124.46Y-70.866
X124.46Y-78.994
X124.46Y-79.756
X126.238Y-59.436
X126.238Y-71.374
X126.238Y-78.901
X128.016Y-72.136
X128.27Y-78.994
X129.032Y-68.834
X129.54Y-74.93
X129.54Y-76.962
X130.048Y-58.928
X130.048Y-59.69
X130.048Y-60.452
X130.048Y-61.214
X130.048Y-65.532
X130.048Y-71.12
X130.81Y-65.786
X131.318Y-68.58
X131.318Y-70.104
X131.318Y-72.868
X131.318Y-74.168
X131.318Y-74.93
X131.318Y-75.692
X131.572Y-79.756
X131.826Y-77.978
X132.588Y-82.804
X133.096Y-76.962
X133.35Y-60.198
X133.35Y-82.804
X133.604Y-77.978
X133.858Y-72.136
X135.238Y-56.388
X135.238Y-64.66
X135.382Y-68.834
X137.16Y-73.406
X137.16Y-74.201
X137.16Y-77.978
X137.16Y-80.167
X137.16Y-81.417
X137.16Y-82.667
X138.176Y-75.692
X138.176Y-76.454
X138.249Y-70.285
X138.249Y-78.232
X139.446Y-70.612
X139.7Y-81.893
X139.749Y-64.213
X139.749Y-80.772
X139.909Y-83.897
X140.716Y-72.898
X140.749Y-80.993
X141.749Y-80.794
X141.986Y-84.328
X142.748Y-74.93
X144.018Y-70.643
X144.249Y-78.255
X144.408Y-58.81
X144.78Y-62.484
X145.288Y-78.232
X146.05Y-82.55
X148.082Y-68.834
X148.412Y-70.701
X148.988Y-56.532
X148.988Y-64.77
X149.352Y-67.31
X150.006Y-81.534
X150.114Y-75.946
X151.13Y-56.896
X151.13Y-57.658
X151.892Y-82.042
X152.654Y-63.5
X152.654Y-82.042
X152.908Y-61.976
X152.908Y-84.836
X152.908Y-85.598
X153.162Y-75.692
X155.194Y-71.882
X155.194Y-78.486
X155.194Y-84.836
X155.194Y-85.598
X155.194Y-86.36
X155.194Y-87.122
X155.194Y-87.884
X155.194Y-88.646
X159.484Y-70.132
X159.492Y-73.132
X161.036Y-65.786
X161.036Y-77.978
T2
X117.996Y-57.15
X117.996Y-84.836
X118.699Y-55.453
X118.699Y-58.847
X118.699Y-83.139
X118.699Y-86.533
X120.396Y-54.75
X120.396Y-59.55
X120.396Y-82.436
X120.396Y-87.236
X122.093Y-55.453
X122.093Y-58.847
X122.093Y-83.139
X122.093Y-86.533
X122.796Y-57.15
X122.796Y-84.836
X158.128Y-57.15
X158.128Y-84.836
X158.831Y-55.453
X158.831Y-58.847
X158.831Y-83.139
X158.831Y-86.533
X160.528Y-54.75
X160.528Y-59.55
X160.528Y-82.436
X160.528Y-87.236
X162.225Y-55.453
X162.225Y-58.847
X162.225Y-83.139
X162.225Y-86.533
X162.928Y-57.15
X162.928Y-84.836
T4
X132.842Y-87.63
X135.382Y-87.63
X137.922Y-87.63
X140.462Y-87.63
X143.002Y-87.63
X145.542Y-87.63
X148.082Y-87.63
T5
X119.004Y-65.024
X119.004Y-67.564
X119.004Y-70.104
X119.004Y-72.644
X119.004Y-75.184
X119.004Y-77.724
X127.0Y-85.852
X129.54Y-85.852
T6
X120.396Y-57.15
X120.396Y-84.836
X160.528Y-57.15
X160.528Y-84.836
T3
G00X158.397Y-67.562
M15
G01X159.497Y-67.562
M16
G05
G00X158.397Y-76.202
M15
G01X159.497Y-76.202
M16
G05
G00X162.727Y-67.562
M15
G01X163.527Y-67.562
M16
G05
G00X162.727Y-76.202
M15
G01X163.527Y-76.202
M16
G05
M30
